<svg xmlns="http://www.w3.org/2000/svg" viewBox="0 0 25 25" width="25" height="25" shape-rendering="crispEdges" aria-hidden="true">
  <rect width="25" height="25" fill="#ffffff"/>
  <path fill="#808080" d="M1 0h1v1H1z M3 0h4v1H3z M15 0h3v1H15z M19 0h1v1H19z M22 0h3v1H22z M0 1h1v1H0z M2 1h1v1H2z M4 1h13v1H4z M18 1h1v1H18z M20 1h5v1H20z M1 2h1v1H1z M3 2h14v1H3z M19 2h1v1H19z M21 2h4v1H21z M2 3h1v1H2z M4 3h13v1H4z M18 3h1v1H18z M22 3h3v1H22z M1 4h1v1H1z M3 4h15v1H3z M19 4h1v1H19z M23 4h2v1H23z M2 5h1v1H2z M4 5h15v1H4z M20 5h1v1H20z M22 5h1v1H22z M24 5h1v1H24z M1 6h1v1H1z M3 6h1v1H3z M5 6h19v1H5z M2 7h1v1H2z M4 7h1v1H4z M6 7h19v1H6z M3 8h1v1H3z M5 8h16v1H5z M22 8h1v1H22z M24 8h1v1H24z M2 9h1v1H2z M4 9h1v1H4z M6 9h10v1H6z M17 9h1v1H17z M20 9h1v1H20z M3 10h1v1H3z M5 10h9v1H5z M19 10h1v1H19z M2 11h1v1H2z M4 11h1v1H4z M7 11h5v1H7z M20 11h1v1H20z M22 11h1v1H22z M24 11h1v1H24z M5 12h6v1H5z M14 12h1v1H14z M21 12h3v1H21z M3 13h2v1H3z M7 13h4v1H7z M13 13h12v1H13z M3 14h1v1H3z M5 14h2v1H5z M8 14h3v1H8z M13 14h1v1H13z M16 14h9v1H16z M5 15h3v1H5z M9 15h3v1H9z M13 15h2v1H13z M24 15h1v1H24z M7 16h2v1H7z M10 16h14v1H10z M7 17h1v1H7z M9 17h16v1H9z M8 18h1v1H8z M10 18h2v1H10z M13 18h6v1H13z M21 18h4v1H21z M7 19h1v1H7z M9 19h2v1H9z M12 19h9v1H12z M7 20h1v1H7z M11 20h1v1H11z M14 20h8v1H14z M9 21h1v1H9z M13 21h1v1H13z M15 21h7v1H15z M23 21h1v1H23z M8 22h1v1H8z M14 22h1v1H14z M16 22h8v1H16z M13 23h1v1H13z M15 23h10v1H15z M6 24h1v1H6z M12 24h1v1H12z M14 24h1v1H14z M16 24h9v1H16z"/>
  <path fill="#000000" d="M0 0h1v1H0z M2 0h1v1H2z M7 0h8v1H7z M18 0h1v1H18z M20 0h2v1H20z M1 1h1v1H1z M3 1h1v1H3z M17 1h1v1H17z M19 1h1v1H19z M0 2h1v1H0z M2 2h1v1H2z M17 2h2v1H17z M20 2h1v1H20z M0 3h2v1H0z M3 3h1v1H3z M17 3h1v1H17z M19 3h3v1H19z M0 4h1v1H0z M2 4h1v1H2z M18 4h1v1H18z M20 4h3v1H20z M0 5h2v1H0z M3 5h1v1H3z M19 5h1v1H19z M21 5h1v1H21z M23 5h1v1H23z M0 6h1v1H0z M2 6h1v1H2z M4 6h1v1H4z M24 6h1v1H24z M0 7h2v1H0z M3 7h1v1H3z M5 7h1v1H5z M0 8h3v1H0z M4 8h1v1H4z M21 8h1v1H21z M23 8h1v1H23z M0 9h2v1H0z M3 9h1v1H3z M5 9h1v1H5z M16 9h1v1H16z M18 9h2v1H18z M21 9h4v1H21z M0 10h3v1H0z M4 10h1v1H4z M14 10h5v1H14z M20 10h5v1H20z M1 11h1v1H1z M3 11h1v1H3z M5 11h2v1H5z M12 11h8v1H12z M21 11h1v1H21z M23 11h1v1H23z M1 12h4v1H1z M11 12h3v1H11z M15 12h6v1H15z M24 12h1v1H24z M1 13h2v1H1z M5 13h2v1H5z M11 13h2v1H11z M1 14h2v1H1z M4 14h1v1H4z M7 14h1v1H7z M11 14h2v1H11z M14 14h2v1H14z M2 15h3v1H2z M8 15h1v1H8z M12 15h1v1H12z M15 15h9v1H15z M2 16h5v1H2z M9 16h1v1H9z M24 16h1v1H24z M3 17h4v1H3z M8 17h1v1H8z M3 18h5v1H3z M9 18h1v1H9z M12 18h1v1H12z M19 18h2v1H19z M4 19h3v1H4z M8 19h1v1H8z M11 19h1v1H11z M21 19h4v1H21z M5 20h2v1H5z M8 20h3v1H8z M12 20h2v1H12z M22 20h3v1H22z M5 21h4v1H5z M10 21h3v1H10z M14 21h1v1H14z M22 21h1v1H22z M24 21h1v1H24z M5 22h3v1H5z M9 22h5v1H9z M15 22h1v1H15z M24 22h1v1H24z M5 23h8v1H5z M14 23h1v1H14z M5 24h1v1H5z M7 24h5v1H7z M13 24h1v1H13z M15 24h1v1H15z"/>
</svg>
