<svg xmlns="http://www.w3.org/2000/svg" viewBox="0 0 25 25" width="25" height="25" shape-rendering="crispEdges" aria-hidden="true">
  <rect width="25" height="25" fill="#ffffff"/>
  <path fill="#808080" d="M3 0h1v1H3z M5 0h20v1H5z M2 1h1v1H2z M4 1h1v1H4z M6 1h19v1H6z M3 2h1v1H3z M5 2h20v1H5z M2 3h1v1H2z M4 3h21v1H4z M1 4h1v1H1z M3 4h1v1H3z M5 4h2v1H5z M15 4h10v1H15z M3 5h2v1H3z M20 5h5v1H20z M0 6h1v1H0z M2 6h1v1H2z M21 6h4v1H21z M1 7h1v1H1z M3 7h1v1H3z M8 7h1v1H8z M10 7h1v1H10z M12 7h1v1H12z M21 7h4v1H21z M0 8h1v1H0z M2 8h1v1H2z M15 8h3v1H15z M21 8h4v1H21z M1 9h1v1H1z M3 9h1v1H3z M6 9h3v1H6z M18 9h7v1H18z M0 10h1v1H0z M2 10h1v1H2z M5 10h2v1H5z M15 10h1v1H15z M20 10h5v1H20z M1 11h1v1H1z M4 11h5v1H4z M18 11h1v1H18z M21 11h4v1H21z M3 12h5v1H3z M16 12h1v1H16z M19 12h1v1H19z M22 12h1v1H22z M2 13h5v1H2z M17 13h1v1H17z M19 13h2v1H19z M23 13h2v1H23z M2 14h4v1H2z M18 14h3v1H18z M23 14h2v1H23z M0 15h1v1H0z M2 15h4v1H2z M19 15h2v1H19z M23 15h2v1H23z M2 16h4v1H2z M19 16h2v1H19z M23 16h2v1H23z M0 17h1v1H0z M2 17h5v1H2z M17 17h4v1H17z M23 17h2v1H23z M2 18h6v1H2z M18 18h2v1H18z M23 18h2v1H23z M0 19h1v1H0z M3 19h11v1H3z M17 19h3v1H17z M23 19h2v1H23z M1 20h1v1H1z M3 20h6v1H3z M13 20h7v1H13z M21 20h1v1H21z M23 20h2v1H23z M0 21h1v1H0z M3 21h17v1H3z M21 21h1v1H21z M23 21h2v1H23z M1 22h2v1H1z M4 22h15v1H4z M20 22h2v1H20z M23 22h2v1H23z M1 23h1v1H1z M3 23h1v1H3z M6 23h11v1H6z M21 23h4v1H21z M0 24h1v1H0z M2 24h3v1H2z M7 24h8v1H7z M17 24h2v1H17z M20 24h1v1H20z M22 24h3v1H22z"/>
  <path fill="#000000" d="M0 0h3v1H0z M4 0h1v1H4z M0 1h2v1H0z M3 1h1v1H3z M5 1h1v1H5z M0 2h3v1H0z M4 2h1v1H4z M0 3h2v1H0z M3 3h1v1H3z M0 4h1v1H0z M2 4h1v1H2z M4 4h1v1H4z M7 4h8v1H7z M0 5h3v1H0z M5 5h15v1H5z M1 6h1v1H1z M3 6h18v1H3z M0 7h1v1H0z M2 7h1v1H2z M4 7h4v1H4z M9 7h1v1H9z M11 7h1v1H11z M13 7h8v1H13z M1 8h1v1H1z M3 8h12v1H3z M18 8h3v1H18z M0 9h1v1H0z M2 9h1v1H2z M4 9h2v1H4z M9 9h9v1H9z M1 10h1v1H1z M3 10h2v1H3z M7 10h8v1H7z M16 10h4v1H16z M0 11h1v1H0z M2 11h2v1H2z M9 11h9v1H9z M19 11h2v1H19z M0 12h3v1H0z M8 12h4v1H8z M13 12h3v1H13z M17 12h2v1H17z M20 12h2v1H20z M23 12h2v1H23z M0 13h2v1H0z M7 13h1v1H7z M9 13h5v1H9z M16 13h1v1H16z M18 13h1v1H18z M21 13h2v1H21z M0 14h2v1H0z M6 14h1v1H6z M10 14h4v1H10z M17 14h1v1H17z M21 14h2v1H21z M1 15h1v1H1z M6 15h1v1H6z M18 15h1v1H18z M21 15h2v1H21z M0 16h2v1H0z M6 16h1v1H6z M18 16h1v1H18z M21 16h2v1H21z M1 17h1v1H1z M7 17h1v1H7z M16 17h1v1H16z M21 17h2v1H21z M0 18h2v1H0z M8 18h10v1H8z M20 18h3v1H20z M1 19h2v1H1z M14 19h3v1H14z M20 19h3v1H20z M0 20h1v1H0z M2 20h1v1H2z M9 20h4v1H9z M20 20h1v1H20z M22 20h1v1H22z M1 21h2v1H1z M20 21h1v1H20z M22 21h1v1H22z M0 22h1v1H0z M3 22h1v1H3z M19 22h1v1H19z M22 22h1v1H22z M0 23h1v1H0z M2 23h1v1H2z M4 23h2v1H4z M17 23h4v1H17z M1 24h1v1H1z M5 24h2v1H5z M15 24h2v1H15z M19 24h1v1H19z M21 24h1v1H21z"/>
</svg>
