<svg xmlns="http://www.w3.org/2000/svg" viewBox="0 0 25 25" width="25" height="25" shape-rendering="crispEdges" aria-hidden="true">
  <rect width="25" height="25" fill="#ffffff"/>
  <path fill="#808080" d="M0 0h21v1H0z M0 1h20v1H0z M21 1h1v1H21z M0 2h20v1H0z M22 2h1v1H22z M0 3h23v1H0z M0 4h24v1H0z M0 5h6v1H0z M20 5h5v1H20z M0 6h5v1H0z M21 6h4v1H21z M0 7h4v1H0z M12 7h6v1H12z M22 7h3v1H22z M0 8h4v1H0z M8 8h2v1H8z M18 8h3v1H18z M23 8h2v1H23z M0 9h6v1H0z M7 9h1v1H7z M10 9h8v1H10z M21 9h4v1H21z M0 10h5v1H0z M8 10h12v1H8z M22 10h3v1H22z M0 11h4v1H0z M6 11h16v1H6z M23 11h2v1H23z M2 12h1v1H2z M5 12h4v1H5z M12 12h10v1H12z M0 13h2v1H0z M4 13h4v1H4z M9 13h14v1H9z M0 14h3v1H0z M4 14h3v1H4z M8 14h15v1H8z M0 15h3v1H0z M4 15h19v1H4z M24 15h1v1H24z M0 16h3v1H0z M4 16h3v1H4z M10 16h8v1H10z M20 16h3v1H20z M24 16h1v1H24z M0 17h3v1H0z M4 17h4v1H4z M19 17h4v1H19z M24 17h1v1H24z M0 18h3v1H0z M5 18h5v1H5z M18 18h5v1H18z M24 18h1v1H24z M0 19h3v1H0z M5 19h3v1H5z M9 19h13v1H9z M23 19h2v1H23z M0 20h4v1H0z M5 20h7v1H5z M16 20h6v1H16z M23 20h2v1H23z M0 21h4v1H0z M5 21h17v1H5z M23 21h2v1H23z M0 22h5v1H0z M6 22h15v1H6z M22 22h3v1H22z M0 23h5v1H0z M8 23h11v1H8z M21 23h4v1H21z M0 24h8v1H0z M10 24h8v1H10z M20 24h5v1H20z"/>
  <path fill="#000000" d="M21 0h4v1H21z M20 1h1v1H20z M22 1h3v1H22z M20 2h2v1H20z M23 2h2v1H23z M23 3h2v1H23z M24 4h1v1H24z M6 5h14v1H6z M5 6h16v1H5z M4 7h8v1H4z M18 7h4v1H18z M4 8h4v1H4z M10 8h8v1H10z M21 8h2v1H21z M6 9h1v1H6z M8 9h2v1H8z M18 9h3v1H18z M5 10h3v1H5z M20 10h2v1H20z M4 11h2v1H4z M22 11h1v1H22z M0 12h2v1H0z M3 12h2v1H3z M9 12h3v1H9z M22 12h3v1H22z M2 13h2v1H2z M8 13h1v1H8z M23 13h2v1H23z M3 14h1v1H3z M7 14h1v1H7z M23 14h2v1H23z M3 15h1v1H3z M23 15h1v1H23z M3 16h1v1H3z M7 16h3v1H7z M18 16h2v1H18z M23 16h1v1H23z M3 17h1v1H3z M8 17h11v1H8z M23 17h1v1H23z M3 18h2v1H3z M10 18h8v1H10z M23 18h1v1H23z M3 19h2v1H3z M8 19h1v1H8z M22 19h1v1H22z M4 20h1v1H4z M12 20h4v1H12z M22 20h1v1H22z M4 21h1v1H4z M22 21h1v1H22z M5 22h1v1H5z M21 22h1v1H21z M5 23h3v1H5z M19 23h2v1H19z M8 24h2v1H8z M18 24h2v1H18z"/>
</svg>
