<svg xmlns="http://www.w3.org/2000/svg" viewBox="0 0 25 25" width="25" height="25" shape-rendering="crispEdges" aria-hidden="true">
  <rect width="25" height="25" fill="#ffffff"/>
  <path fill="#808080" d="M0 10h2v1H0z M0 11h4v1H0z M0 12h5v1H0z M0 13h6v1H0z M0 14h7v1H0z M0 15h7v1H0z M0 16h8v1H0z M0 17h9v1H0z M0 18h10v1H0z M0 19h10v1H0z M0 20h11v1H0z M0 21h11v1H0z M0 22h12v1H0z M0 23h11v1H0z M0 24h10v1H0z M11 24h1v1H11z"/>
  <path fill="#000000" d="M0 8h1v1H0z M0 9h3v1H0z M3 10h1v1H3z M4 11h2v1H4z M5 12h2v1H5z M6 13h2v1H6z M7 14h1v1H7z M7 15h2v1H7z M8 16h2v1H8z M9 17h2v1H9z M10 18h1v1H10z M10 19h2v1H10z M11 20h1v1H11z M11 21h2v1H11z M12 22h1v1H12z M11 23h3v1H11z M10 24h1v1H10z M12 24h2v1H12z"/>
</svg>
