<svg xmlns="http://www.w3.org/2000/svg" viewBox="0 0 25 25" width="25" height="25" shape-rendering="crispEdges" aria-hidden="true">
  <rect width="25" height="25" fill="#ffffff"/>
  <path fill="#808080" d="M5 0h6v1H5z M14 0h1v1H14z M17 0h1v1H17z M19 0h1v1H19z M21 0h1v1H21z M24 0h1v1H24z M6 1h5v1H6z M15 1h1v1H15z M18 1h1v1H18z M20 1h1v1H20z M22 1h1v1H22z M24 1h1v1H24z M7 2h4v1H7z M16 2h1v1H16z M19 2h1v1H19z M21 2h1v1H21z M23 2h1v1H23z M0 3h4v1H0z M5 3h1v1H5z M8 3h4v1H8z M19 3h1v1H19z M0 4h11v1H0z M15 4h1v1H15z M19 4h3v1H19z M23 4h1v1H23z M0 5h12v1H0z M16 5h1v1H16z M20 5h1v1H20z M23 5h2v1H23z M0 6h10v1H0z M15 6h1v1H15z M17 6h1v1H17z M22 6h3v1H22z M0 7h9v1H0z M10 7h2v1H10z M16 7h1v1H16z M18 7h1v1H18z M24 7h1v1H24z M0 8h7v1H0z M9 8h1v1H9z M15 8h1v1H15z M17 8h1v1H17z M19 8h1v1H19z M0 9h6v1H0z M8 9h1v1H8z M10 9h1v1H10z M14 9h1v1H14z M16 9h1v1H16z M18 9h1v1H18z M0 10h5v1H0z M7 10h1v1H7z M9 10h1v1H9z M15 10h1v1H15z M17 10h1v1H17z M21 10h2v1H21z M0 11h4v1H0z M6 11h1v1H6z M8 11h1v1H8z M10 11h1v1H10z M20 11h5v1H20z M0 12h3v1H0z M5 12h1v1H5z M7 12h1v1H7z M9 12h1v1H9z M14 12h1v1H14z M19 12h6v1H19z"/>
  <path fill="#000000" d="M0 0h5v1H0z M11 0h3v1H11z M15 0h2v1H15z M18 0h1v1H18z M20 0h1v1H20z M22 0h2v1H22z M0 1h6v1H0z M11 1h4v1H11z M16 1h2v1H16z M19 1h1v1H19z M21 1h1v1H21z M23 1h1v1H23z M0 2h7v1H0z M11 2h5v1H11z M17 2h2v1H17z M20 2h1v1H20z M22 2h1v1H22z M24 2h1v1H24z M4 3h1v1H4z M6 3h2v1H6z M12 3h7v1H12z M20 3h5v1H20z M11 4h4v1H11z M16 4h3v1H16z M22 4h1v1H22z M24 4h1v1H24z M12 5h4v1H12z M17 5h3v1H17z M21 5h2v1H21z M10 6h5v1H10z M16 6h1v1H16z M18 6h4v1H18z M9 7h1v1H9z M12 7h4v1H12z M17 7h1v1H17z M19 7h5v1H19z M7 8h2v1H7z M10 8h5v1H10z M16 8h1v1H16z M18 8h1v1H18z M20 8h5v1H20z M6 9h2v1H6z M9 9h1v1H9z M11 9h3v1H11z M15 9h1v1H15z M17 9h1v1H17z M19 9h6v1H19z M5 10h2v1H5z M8 10h1v1H8z M10 10h5v1H10z M16 10h1v1H16z M18 10h3v1H18z M23 10h2v1H23z M4 11h2v1H4z M7 11h1v1H7z M9 11h1v1H9z M11 11h9v1H11z M3 12h2v1H3z M6 12h1v1H6z M8 12h1v1H8z M10 12h4v1H10z M15 12h4v1H15z"/>
</svg>
