<svg xmlns="http://www.w3.org/2000/svg" viewBox="0 0 25 25" width="25" height="25" shape-rendering="crispEdges" aria-hidden="true">
  <rect width="25" height="25" fill="#ffffff"/>
  <path fill="#808080" d="M22 2h1v1H22z M24 2h1v1H24z M21 3h1v1H21z M23 3h1v1H23z M20 4h1v1H20z M22 4h1v1H22z M24 4h1v1H24z M18 5h1v1H18z M21 5h1v1H21z M23 5h1v1H23z M15 6h1v1H15z M17 6h1v1H17z M19 6h1v1H19z M22 6h1v1H22z M24 6h1v1H24z M7 7h1v1H7z M11 7h1v1H11z M16 7h1v1H16z M18 7h1v1H18z M20 7h1v1H20z M23 7h1v1H23z M2 8h1v1H2z M4 8h1v1H4z M6 8h1v1H6z M8 8h2v1H8z M12 8h1v1H12z M15 8h1v1H15z M17 8h1v1H17z M19 8h1v1H19z M21 8h1v1H21z M24 8h1v1H24z M1 9h1v1H1z M3 9h1v1H3z M5 9h1v1H5z M7 9h1v1H7z M9 9h2v1H9z M13 9h1v1H13z M16 9h7v1H16z M3 10h1v1H3z M5 10h1v1H5z M7 10h5v1H7z M13 10h2v1H13z M18 10h7v1H18z M0 11h1v1H0z M2 11h1v1H2z M4 11h8v1H4z M13 11h3v1H13z M18 11h7v1H18z M1 12h1v1H1z M3 12h9v1H3z M13 12h3v1H13z M19 12h6v1H19z M0 13h1v1H0z M2 13h10v1H2z M13 13h3v1H13z M20 13h3v1H20z M1 14h11v1H1z M13 14h3v1H13z M24 14h1v1H24z M0 15h11v1H0z M13 15h2v1H13z M21 15h4v1H21z M0 16h9v1H0z M19 16h6v1H19z M0 17h8v1H0z M10 17h1v1H10z M12 17h2v1H12z M18 17h7v1H18z M0 18h6v1H0z M9 18h1v1H9z M11 18h1v1H11z M17 18h8v1H17z M0 19h5v1H0z M6 19h1v1H6z M8 19h1v1H8z M10 19h1v1H10z M16 19h9v1H16z M0 20h4v1H0z M5 20h1v1H5z M7 20h1v1H7z M9 20h1v1H9z M12 20h1v1H12z M16 20h9v1H16z M0 21h3v1H0z M4 21h1v1H4z M6 21h1v1H6z M8 21h1v1H8z M10 21h1v1H10z M12 21h1v1H12z M15 21h9v1H15z M0 22h2v1H0z M3 22h1v1H3z M5 22h1v1H5z M7 22h1v1H7z M9 22h1v1H9z M11 22h1v1H11z M15 22h8v1H15z M0 23h2v1H0z M4 23h1v1H4z M6 23h1v1H6z M8 23h1v1H8z M11 23h1v1H11z M14 23h8v1H14z M0 24h1v1H0z M3 24h1v1H3z M5 24h1v1H5z M7 24h1v1H7z M9 24h1v1H9z M11 24h1v1H11z M14 24h7v1H14z"/>
  <path fill="#000000" d="M24 0h1v1H24z M21 1h4v1H21z M19 2h3v1H19z M23 2h1v1H23z M17 3h4v1H17z M22 3h1v1H22z M24 3h1v1H24z M15 4h5v1H15z M21 4h1v1H21z M23 4h1v1H23z M9 5h9v1H9z M19 5h2v1H19z M22 5h1v1H22z M24 5h1v1H24z M4 6h11v1H4z M16 6h1v1H16z M18 6h1v1H18z M20 6h2v1H20z M23 6h1v1H23z M1 7h6v1H1z M8 7h3v1H8z M12 7h4v1H12z M17 7h1v1H17z M19 7h1v1H19z M21 7h2v1H21z M24 7h1v1H24z M0 8h2v1H0z M3 8h1v1H3z M5 8h1v1H5z M7 8h1v1H7z M10 8h2v1H10z M13 8h2v1H13z M16 8h1v1H16z M18 8h1v1H18z M20 8h1v1H20z M22 8h2v1H22z M0 9h1v1H0z M2 9h1v1H2z M4 9h1v1H4z M6 9h1v1H6z M8 9h1v1H8z M11 9h2v1H11z M14 9h2v1H14z M23 9h2v1H23z M0 10h3v1H0z M4 10h1v1H4z M6 10h1v1H6z M12 10h1v1H12z M15 10h3v1H15z M1 11h1v1H1z M3 11h1v1H3z M12 11h1v1H12z M16 11h2v1H16z M0 12h1v1H0z M2 12h1v1H2z M12 12h1v1H12z M16 12h3v1H16z M1 13h1v1H1z M12 13h1v1H12z M16 13h4v1H16z M23 13h2v1H23z M0 14h1v1H0z M12 14h1v1H12z M16 14h8v1H16z M11 15h2v1H11z M15 15h6v1H15z M9 16h10v1H9z M8 17h2v1H8z M11 17h1v1H11z M14 17h4v1H14z M6 18h3v1H6z M10 18h1v1H10z M12 18h5v1H12z M5 19h1v1H5z M7 19h1v1H7z M9 19h1v1H9z M11 19h5v1H11z M4 20h1v1H4z M6 20h1v1H6z M8 20h1v1H8z M10 20h2v1H10z M13 20h3v1H13z M3 21h1v1H3z M5 21h1v1H5z M7 21h1v1H7z M9 21h1v1H9z M11 21h1v1H11z M13 21h2v1H13z M24 21h1v1H24z M2 22h1v1H2z M4 22h1v1H4z M6 22h1v1H6z M8 22h1v1H8z M10 22h1v1H10z M12 22h3v1H12z M23 22h2v1H23z M2 23h2v1H2z M5 23h1v1H5z M7 23h1v1H7z M9 23h2v1H9z M12 23h2v1H12z M22 23h3v1H22z M1 24h2v1H1z M4 24h1v1H4z M6 24h1v1H6z M8 24h1v1H8z M10 24h1v1H10z M12 24h2v1H12z M21 24h4v1H21z"/>
</svg>
