<svg xmlns="http://www.w3.org/2000/svg" viewBox="0 0 25 25" width="25" height="25" shape-rendering="crispEdges" aria-hidden="true">
  <rect width="25" height="25" fill="#ffffff"/>
  <path fill="#808080" d="M12 0h1v1H12z M14 0h1v1H14z M16 0h1v1H16z M18 0h7v1H18z M13 1h1v1H13z M15 1h1v1H15z M17 1h1v1H17z M19 1h6v1H19z M12 2h1v1H12z M14 2h1v1H14z M16 2h1v1H16z M18 2h7v1H18z M12 3h1v1H12z M16 3h1v1H16z M18 3h7v1H18z M11 4h1v1H11z M13 4h1v1H13z M15 4h1v1H15z M17 4h1v1H17z M19 4h5v1H19z M12 5h1v1H12z M14 5h1v1H14z M16 5h1v1H16z M18 5h5v1H18z M11 6h1v1H11z M13 6h1v1H13z M15 6h1v1H15z M17 6h1v1H17z M19 6h2v1H19z M23 6h2v1H23z M12 7h1v1H12z M14 7h1v1H14z M16 7h1v1H16z M18 7h1v1H18z M21 7h4v1H21z M11 8h1v1H11z M13 8h1v1H13z M15 8h1v1H15z M20 8h5v1H20z M12 9h1v1H12z M17 9h6v1H17z M15 10h6v1H15z M11 11h8v1H11z M11 12h6v1H11z M24 12h1v1H24z"/>
  <path fill="#000000" d="M11 0h1v1H11z M13 0h1v1H13z M15 0h1v1H15z M17 0h1v1H17z M11 1h2v1H11z M14 1h1v1H14z M16 1h1v1H16z M18 1h1v1H18z M11 2h1v1H11z M13 2h1v1H13z M15 2h1v1H15z M17 2h1v1H17z M11 3h1v1H11z M13 3h3v1H13z M17 3h1v1H17z M12 4h1v1H12z M14 4h1v1H14z M16 4h1v1H16z M18 4h1v1H18z M24 4h1v1H24z M11 5h1v1H11z M13 5h1v1H13z M15 5h1v1H15z M17 5h1v1H17z M23 5h2v1H23z M12 6h1v1H12z M14 6h1v1H14z M16 6h1v1H16z M18 6h1v1H18z M21 6h2v1H21z M11 7h1v1H11z M13 7h1v1H13z M15 7h1v1H15z M17 7h1v1H17z M19 7h2v1H19z M12 8h1v1H12z M14 8h1v1H14z M16 8h4v1H16z M11 9h1v1H11z M13 9h4v1H13z M23 9h2v1H23z M11 10h4v1H11z M21 10h4v1H21z M19 11h6v1H19z M17 12h7v1H17z"/>
</svg>
