<svg xmlns="http://www.w3.org/2000/svg" viewBox="0 0 25 25" width="25" height="25" shape-rendering="crispEdges" aria-hidden="true">
  <rect width="25" height="25" fill="#ffffff"/>
  <path fill="#808080" d="M0 2h3v1H0z M0 3h4v1H0z M0 4h5v1H0z M6 4h1v1H6z M0 5h4v1H0z M6 5h3v1H6z M0 6h3v1H0z M5 6h6v1H5z M0 7h2v1H0z M4 7h6v1H4z M12 7h2v1H12z M15 7h4v1H15z M0 8h1v1H0z M3 8h7v1H3z M11 8h2v1H11z M15 8h8v1H15z M2 9h7v1H2z M11 9h1v1H11z M14 9h11v1H14z M0 10h7v1H0z M10 10h2v1H10z M14 10h11v1H14z M0 11h6v1H0z M9 11h2v1H9z M12 11h13v1H12z M0 12h6v1H0z M9 12h2v1H9z M12 12h13v1H12z M2 13h3v1H2z M9 13h2v1H9z M12 13h13v1H12z M0 14h1v1H0z M9 14h2v1H9z M12 14h13v1H12z M0 15h4v1H0z M10 15h1v1H10z M14 15h11v1H14z M0 16h6v1H0z M16 16h9v1H16z M0 17h7v1H0z M12 17h1v1H12z M14 17h1v1H14z M17 17h8v1H17z M0 18h8v1H0z M11 18h1v1H11z M13 18h1v1H13z M15 18h1v1H15z M19 18h6v1H19z M0 19h9v1H0z M11 19h1v1H11z M15 19h1v1H15z M17 19h1v1H17z M20 19h5v1H20z M0 20h9v1H0z M11 20h2v1H11z M14 20h1v1H14z M16 20h1v1H16z M18 20h1v1H18z M21 20h4v1H21z M1 21h9v1H1z M12 21h1v1H12z M15 21h1v1H15z M17 21h1v1H17z M19 21h1v1H19z M22 21h3v1H22z M2 22h8v1H2z M12 22h2v1H12z M16 22h1v1H16z M18 22h1v1H18z M20 22h1v1H20z M23 22h2v1H23z M3 23h8v1H3z M13 23h1v1H13z M15 23h1v1H15z M17 23h1v1H17z M19 23h1v1H19z M21 23h1v1H21z M23 23h2v1H23z M4 24h7v1H4z M13 24h1v1H13z M16 24h1v1H16z M18 24h1v1H18z M20 24h1v1H20z M22 24h1v1H22z M24 24h1v1H24z"/>
  <path fill="#000000" d="M0 0h1v1H0z M0 1h4v1H0z M3 2h3v1H3z M4 3h4v1H4z M5 4h1v1H5z M7 4h3v1H7z M4 5h2v1H4z M9 5h7v1H9z M3 6h2v1H3z M11 6h10v1H11z M2 7h2v1H2z M10 7h2v1H10z M14 7h1v1H14z M19 7h5v1H19z M1 8h2v1H1z M10 8h1v1H10z M13 8h2v1H13z M23 8h2v1H23z M0 9h2v1H0z M9 9h2v1H9z M12 9h2v1H12z M7 10h3v1H7z M12 10h2v1H12z M6 11h3v1H6z M11 11h1v1H11z M6 12h3v1H6z M11 12h1v1H11z M0 13h2v1H0z M5 13h4v1H5z M11 13h1v1H11z M1 14h8v1H1z M11 14h1v1H11z M4 15h6v1H4z M11 15h3v1H11z M6 16h10v1H6z M7 17h5v1H7z M13 17h1v1H13z M15 17h2v1H15z M8 18h3v1H8z M12 18h1v1H12z M14 18h1v1H14z M16 18h3v1H16z M9 19h2v1H9z M12 19h3v1H12z M16 19h1v1H16z M18 19h2v1H18z M9 20h2v1H9z M13 20h1v1H13z M15 20h1v1H15z M17 20h1v1H17z M19 20h2v1H19z M0 21h1v1H0z M10 21h2v1H10z M13 21h2v1H13z M16 21h1v1H16z M18 21h1v1H18z M20 21h2v1H20z M0 22h2v1H0z M10 22h2v1H10z M14 22h2v1H14z M17 22h1v1H17z M19 22h1v1H19z M21 22h2v1H21z M0 23h3v1H0z M11 23h2v1H11z M14 23h1v1H14z M16 23h1v1H16z M18 23h1v1H18z M20 23h1v1H20z M22 23h1v1H22z M0 24h4v1H0z M11 24h2v1H11z M14 24h2v1H14z M17 24h1v1H17z M19 24h1v1H19z M21 24h1v1H21z M23 24h1v1H23z"/>
</svg>
