<svg xmlns="http://www.w3.org/2000/svg" viewBox="0 0 25 25" width="25" height="25" shape-rendering="crispEdges" aria-hidden="true">
  <rect width="25" height="25" fill="#ffffff"/>
  <path fill="#808080" d="M22 10h1v1H22z M24 10h1v1H24z M21 11h1v1H21z M23 11h1v1H23z M20 12h1v1H20z M22 12h1v1H22z M24 12h1v1H24z M19 13h1v1H19z M21 13h1v1H21z M23 13h1v1H23z M20 14h1v1H20z M22 14h1v1H22z M24 14h1v1H24z M18 15h2v1H18z M21 15h1v1H21z M23 15h1v1H23z M17 16h1v1H17z M20 16h1v1H20z M22 16h1v1H22z M24 16h1v1H24z M16 17h1v1H16z M18 17h2v1H18z M21 17h1v1H21z M23 17h2v1H23z M15 18h1v1H15z M17 18h1v1H17z M20 18h1v1H20z M22 18h3v1H22z M16 19h1v1H16z M18 19h2v1H18z M21 19h4v1H21z M15 20h1v1H15z M17 20h1v1H17z M20 20h5v1H20z M14 21h1v1H14z M16 21h1v1H16z M18 21h7v1H18z M13 22h1v1H13z M15 22h1v1H15z M17 22h1v1H17z M20 22h5v1H20z M14 23h1v1H14z M16 23h1v1H16z M18 23h7v1H18z M13 24h1v1H13z M15 24h1v1H15z M17 24h1v1H17z M19 24h6v1H19z"/>
  <path fill="#000000" d="M24 8h1v1H24z M22 9h3v1H22z M20 10h2v1H20z M23 10h1v1H23z M19 11h2v1H19z M22 11h1v1H22z M24 11h1v1H24z M18 12h2v1H18z M21 12h1v1H21z M23 12h1v1H23z M17 13h2v1H17z M20 13h1v1H20z M22 13h1v1H22z M24 13h1v1H24z M17 14h3v1H17z M21 14h1v1H21z M23 14h1v1H23z M16 15h2v1H16z M20 15h1v1H20z M22 15h1v1H22z M24 15h1v1H24z M15 16h2v1H15z M18 16h2v1H18z M21 16h1v1H21z M23 16h1v1H23z M14 17h2v1H14z M17 17h1v1H17z M20 17h1v1H20z M22 17h1v1H22z M14 18h1v1H14z M16 18h1v1H16z M18 18h2v1H18z M21 18h1v1H21z M13 19h3v1H13z M17 19h1v1H17z M20 19h1v1H20z M13 20h2v1H13z M16 20h1v1H16z M18 20h2v1H18z M12 21h2v1H12z M15 21h1v1H15z M17 21h1v1H17z M12 22h1v1H12z M14 22h1v1H14z M16 22h1v1H16z M18 22h2v1H18z M11 23h3v1H11z M15 23h1v1H15z M17 23h1v1H17z M11 24h2v1H11z M14 24h1v1H14z M16 24h1v1H16z M18 24h1v1H18z"/>
</svg>
