<svg xmlns="http://www.w3.org/2000/svg" viewBox="0 0 25 25" width="25" height="25" shape-rendering="crispEdges" aria-hidden="true">
  <rect width="25" height="25" fill="#ffffff"/>
  <path fill="#808080" d="M1 0h1v1H1z M3 0h1v1H3z M5 0h3v1H5z M15 0h1v1H15z M17 0h1v1H17z M19 0h6v1H19z M2 1h1v1H2z M4 1h1v1H4z M7 1h2v1H7z M13 1h1v1H13z M16 1h1v1H16z M18 1h1v1H18z M20 1h1v1H20z M22 1h1v1H22z M3 2h1v1H3z M6 2h1v1H6z M9 2h1v1H9z M15 2h1v1H15z M17 2h1v1H17z M19 2h1v1H19z M22 2h1v1H22z M24 2h1v1H24z M2 3h1v1H2z M4 3h1v1H4z M7 3h1v1H7z M10 3h2v1H10z M21 3h1v1H21z M3 4h1v1H3z M6 4h1v1H6z M8 4h1v1H8z M11 4h2v1H11z M17 4h1v1H17z M20 4h1v1H20z M0 5h1v1H0z M4 5h1v1H4z M7 5h1v1H7z M9 5h1v1H9z M13 5h1v1H13z M19 5h1v1H19z M22 5h1v1H22z M1 6h1v1H1z M8 6h1v1H8z M10 6h1v1H10z M12 6h1v1H12z M14 6h1v1H14z M0 7h1v1H0z M2 7h1v1H2z M7 7h1v1H7z M9 7h1v1H9z M11 7h2v1H11z M14 7h1v1H14z M0 8h4v1H0z M6 8h1v1H6z M8 8h1v1H8z M10 8h1v1H10z M12 8h2v1H12z M15 8h1v1H15z M0 9h6v1H0z M7 9h1v1H7z M9 9h1v1H9z M11 9h1v1H11z M13 9h1v1H13z M16 9h1v1H16z M23 9h1v1H23z M2 10h4v1H2z M9 10h1v1H9z M11 10h1v1H11z M13 10h2v1H13z M17 10h1v1H17z M20 10h1v1H20z M0 11h1v1H0z M10 11h1v1H10z M12 11h1v1H12z M14 11h2v1H14z M17 11h1v1H17z M21 11h1v1H21z M23 11h2v1H23z M0 12h2v1H0z M11 12h1v1H11z M13 12h3v1H13z M18 12h1v1H18z M20 12h1v1H20z M2 13h7v1H2z M15 13h2v1H15z M18 13h1v1H18z M21 13h1v1H21z M23 13h2v1H23z M0 14h13v1H0z M18 14h1v1H18z M22 14h1v1H22z M24 14h1v1H24z M0 15h17v1H0z M23 15h2v1H23z M0 16h9v1H0z M10 16h11v1H10z M24 16h1v1H24z M0 17h6v1H0z M10 17h13v1H10z M0 18h4v1H0z M9 18h15v1H9z M0 19h2v1H0z M9 19h13v1H9z M23 19h1v1H23z M10 20h12v1H10z M23 20h1v1H23z M11 21h11v1H11z M13 22h8v1H13z M16 23h5v1H16z"/>
  <path fill="#000000" d="M0 0h1v1H0z M2 0h1v1H2z M4 0h1v1H4z M8 0h7v1H8z M16 0h1v1H16z M18 0h1v1H18z M0 1h2v1H0z M3 1h1v1H3z M5 1h2v1H5z M9 1h4v1H9z M14 1h2v1H14z M17 1h1v1H17z M19 1h1v1H19z M21 1h1v1H21z M24 1h1v1H24z M0 2h3v1H0z M4 2h2v1H4z M7 2h2v1H7z M10 2h5v1H10z M16 2h1v1H16z M18 2h1v1H18z M20 2h2v1H20z M23 2h1v1H23z M0 3h2v1H0z M3 3h1v1H3z M5 3h2v1H5z M8 3h2v1H8z M12 3h9v1H12z M22 3h1v1H22z M24 3h1v1H24z M0 4h3v1H0z M4 4h2v1H4z M7 4h1v1H7z M9 4h2v1H9z M13 4h4v1H13z M18 4h2v1H18z M21 4h4v1H21z M1 5h3v1H1z M5 5h2v1H5z M8 5h1v1H8z M10 5h3v1H10z M14 5h5v1H14z M20 5h2v1H20z M23 5h2v1H23z M0 6h1v1H0z M2 6h6v1H2z M9 6h1v1H9z M11 6h1v1H11z M13 6h1v1H13z M15 6h8v1H15z M24 6h1v1H24z M1 7h1v1H1z M3 7h4v1H3z M8 7h1v1H8z M10 7h1v1H10z M13 7h1v1H13z M15 7h10v1H15z M4 8h2v1H4z M7 8h1v1H7z M9 8h1v1H9z M11 8h1v1H11z M14 8h1v1H14z M16 8h9v1H16z M6 9h1v1H6z M8 9h1v1H8z M10 9h1v1H10z M12 9h1v1H12z M14 9h2v1H14z M17 9h6v1H17z M24 9h1v1H24z M0 10h2v1H0z M6 10h3v1H6z M10 10h1v1H10z M12 10h1v1H12z M15 10h2v1H15z M18 10h2v1H18z M21 10h4v1H21z M1 11h9v1H1z M11 11h1v1H11z M13 11h1v1H13z M16 11h1v1H16z M18 11h3v1H18z M22 11h1v1H22z M2 12h9v1H2z M12 12h1v1H12z M16 12h2v1H16z M19 12h1v1H19z M21 12h4v1H21z M0 13h2v1H0z M9 13h6v1H9z M17 13h1v1H17z M19 13h2v1H19z M22 13h1v1H22z M13 14h5v1H13z M19 14h3v1H19z M23 14h1v1H23z M17 15h6v1H17z M9 16h1v1H9z M21 16h3v1H21z M6 17h4v1H6z M23 17h2v1H23z M4 18h5v1H4z M24 18h1v1H24z M2 19h7v1H2z M22 19h1v1H22z M24 19h1v1H24z M0 20h10v1H0z M22 20h1v1H22z M24 20h1v1H24z M0 21h11v1H0z M22 21h3v1H22z M0 22h13v1H0z M21 22h4v1H21z M0 23h16v1H0z M21 23h4v1H21z M0 24h25v1H0z"/>
</svg>
