<svg xmlns="http://www.w3.org/2000/svg" viewBox="0 0 25 25" width="25" height="25" shape-rendering="crispEdges" aria-hidden="true">
  <rect width="25" height="25" fill="#ffffff"/>
  <path fill="#808080" d="M0 0h9v1H0z M10 0h1v1H10z M17 0h1v1H17z M19 0h5v1H19z M0 1h1v1H0z M2 1h1v1H2z M4 1h2v1H4z M7 1h1v1H7z M11 1h1v1H11z M16 1h1v1H16z M19 1h5v1H19z M0 2h2v1H0z M3 2h1v1H3z M5 2h1v1H5z M9 2h1v1H9z M15 2h1v1H15z M18 2h5v1H18z M1 3h1v1H1z M3 3h1v1H3z M13 3h2v1H13z M17 3h6v1H17z M2 4h1v1H2z M4 4h1v1H4z M7 4h1v1H7z M12 4h2v1H12z M15 4h7v1H15z M24 4h1v1H24z M4 5h1v1H4z M11 5h1v1H11z M14 5h7v1H14z M24 5h1v1H24z M1 6h1v1H1z M10 6h1v1H10z M13 6h7v1H13z M23 6h2v1H23z M10 7h1v1H10z M12 7h7v1H12z M22 7h3v1H22z M9 8h1v1H9z M11 8h7v1H11z M21 8h4v1H21z M8 9h1v1H8z M11 9h7v1H11z M20 9h4v1H20z M0 10h1v1H0z M2 10h1v1H2z M4 10h1v1H4z M7 10h1v1H7z M10 10h6v1H10z M18 10h5v1H18z M1 11h1v1H1z M3 11h1v1H3z M7 11h1v1H7z M9 11h6v1H9z M18 11h3v1H18z M24 11h1v1H24z M4 12h1v1H4z M6 12h1v1H6z M9 12h5v1H9z M24 12h1v1H24z M0 13h4v1H0z M6 13h1v1H6z M8 13h3v1H8z M16 13h7v1H16z M0 14h4v1H0z M6 14h1v1H6z M12 14h13v1H12z M0 15h3v1H0z M8 15h17v1H8z M0 16h1v1H0z M4 16h11v1H4z M16 16h9v1H16z M2 17h13v1H2z M18 17h7v1H18z M1 18h15v1H1z M21 18h4v1H21z M0 19h2v1H0z M3 19h13v1H3z M23 19h2v1H23z M0 20h2v1H0z M3 20h12v1H3z M0 21h1v1H0z M3 21h11v1H3z M4 22h8v1H4z M4 23h5v1H4z"/>
  <path fill="#000000" d="M9 0h1v1H9z M11 0h6v1H11z M18 0h1v1H18z M24 0h1v1H24z M1 1h1v1H1z M3 1h1v1H3z M6 1h1v1H6z M8 1h3v1H8z M12 1h4v1H12z M17 1h2v1H17z M24 1h1v1H24z M2 2h1v1H2z M4 2h1v1H4z M6 2h3v1H6z M10 2h5v1H10z M16 2h2v1H16z M23 2h2v1H23z M0 3h1v1H0z M2 3h1v1H2z M4 3h9v1H4z M15 3h2v1H15z M23 3h2v1H23z M0 4h2v1H0z M3 4h1v1H3z M5 4h2v1H5z M8 4h4v1H8z M14 4h1v1H14z M22 4h2v1H22z M0 5h4v1H0z M5 5h6v1H5z M12 5h2v1H12z M21 5h3v1H21z M0 6h1v1H0z M2 6h8v1H2z M11 6h2v1H11z M20 6h3v1H20z M0 7h10v1H0z M11 7h1v1H11z M19 7h3v1H19z M0 8h9v1H0z M10 8h1v1H10z M18 8h3v1H18z M0 9h8v1H0z M9 9h2v1H9z M18 9h2v1H18z M24 9h1v1H24z M1 10h1v1H1z M3 10h1v1H3z M5 10h2v1H5z M8 10h2v1H8z M16 10h2v1H16z M23 10h2v1H23z M0 11h1v1H0z M2 11h1v1H2z M4 11h3v1H4z M8 11h1v1H8z M15 11h3v1H15z M21 11h3v1H21z M0 12h4v1H0z M5 12h1v1H5z M7 12h2v1H7z M14 12h10v1H14z M4 13h2v1H4z M7 13h1v1H7z M11 13h5v1H11z M23 13h2v1H23z M4 14h2v1H4z M7 14h5v1H7z M3 15h5v1H3z M1 16h3v1H1z M15 16h1v1H15z M0 17h2v1H0z M15 17h3v1H15z M0 18h1v1H0z M16 18h5v1H16z M2 19h1v1H2z M16 19h7v1H16z M2 20h1v1H2z M15 20h10v1H15z M1 21h2v1H1z M14 21h11v1H14z M0 22h4v1H0z M12 22h13v1H12z M0 23h4v1H0z M9 23h16v1H9z M0 24h25v1H0z"/>
</svg>
