<svg xmlns="http://www.w3.org/2000/svg" viewBox="0 0 25 25" width="25" height="25" shape-rendering="crispEdges" aria-hidden="true">
  <rect width="25" height="25" fill="#ffffff"/>
  <path fill="#808080" d="M20 3h5v1H20z M19 4h6v1H19z M9 5h7v1H9z M18 5h7v1H18z M6 6h13v1H6z M20 6h5v1H20z M4 7h16v1H4z M21 7h4v1H21z M3 8h18v1H3z M22 8h3v1H22z M2 9h20v1H2z M23 9h2v1H23z M1 10h22v1H1z M24 10h1v1H24z M0 11h23v1H0z M24 11h1v1H24z M0 12h24v1H0z"/>
  <path fill="#000000" d="M0 0h25v1H0z M0 1h25v1H0z M0 2h25v1H0z M0 3h20v1H0z M0 4h19v1H0z M0 5h9v1H0z M16 5h2v1H16z M0 6h6v1H0z M19 6h1v1H19z M0 7h4v1H0z M20 7h1v1H20z M0 8h3v1H0z M21 8h1v1H21z M0 9h2v1H0z M22 9h1v1H22z M0 10h1v1H0z M23 10h1v1H23z M23 11h1v1H23z M24 12h1v1H24z"/>
</svg>
