<svg xmlns="http://www.w3.org/2000/svg" viewBox="0 0 25 25" width="25" height="25" shape-rendering="crispEdges" aria-hidden="true">
  <rect width="25" height="25" fill="#ffffff"/>
  <path fill="#808080" d="M0 0h9v1H0z M10 0h1v1H10z M12 0h1v1H12z M0 1h8v1H0z M9 1h1v1H9z M11 1h1v1H11z M0 2h7v1H0z M8 2h1v1H8z M10 2h1v1H10z M12 2h1v1H12z M0 3h5v1H0z M6 3h1v1H6z M8 3h1v1H8z M10 3h1v1H10z M12 3h1v1H12z M1 4h3v1H1z M5 4h2v1H5z M9 4h1v1H9z M11 4h1v1H11z M13 4h1v1H13z M3 5h5v1H3z M10 5h1v1H10z M12 5h1v1H12z M0 6h2v1H0z M4 6h1v1H4z M6 6h4v1H6z M11 6h1v1H11z M13 6h1v1H13z M0 7h4v1H0z M6 7h3v1H6z M10 7h1v1H10z M12 7h1v1H12z M0 8h5v1H0z M9 8h1v1H9z M11 8h1v1H11z M13 8h1v1H13z M2 9h6v1H2z M12 9h2v1H12z M4 10h6v1H4z M5 11h9v1H5z M0 12h2v1H0z M8 12h6v1H8z"/>
  <path fill="#000000" d="M9 0h1v1H9z M11 0h1v1H11z M13 0h1v1H13z M8 1h1v1H8z M10 1h1v1H10z M12 1h2v1H12z M7 2h1v1H7z M9 2h1v1H9z M11 2h1v1H11z M13 2h1v1H13z M5 3h1v1H5z M7 3h1v1H7z M9 3h1v1H9z M11 3h1v1H11z M13 3h1v1H13z M0 4h1v1H0z M4 4h1v1H4z M8 4h1v1H8z M10 4h1v1H10z M12 4h1v1H12z M0 5h3v1H0z M9 5h1v1H9z M11 5h1v1H11z M13 5h1v1H13z M2 6h2v1H2z M10 6h1v1H10z M12 6h1v1H12z M4 7h2v1H4z M9 7h1v1H9z M11 7h1v1H11z M13 7h1v1H13z M5 8h4v1H5z M10 8h1v1H10z M12 8h1v1H12z M0 9h2v1H0z M8 9h4v1H8z M0 10h4v1H0z M10 10h4v1H10z M0 11h5v1H0z M2 12h6v1H2z"/>
</svg>
