<svg xmlns="http://www.w3.org/2000/svg" viewBox="0 0 25 25" width="25" height="25" shape-rendering="crispEdges" aria-hidden="true">
  <rect width="25" height="25" fill="#ffffff"/>
  <path fill="#808080" d="M2 0h1v1H2z M15 0h1v1H15z M17 0h1v1H17z M19 0h6v1H19z M1 1h1v1H1z M3 1h1v1H3z M6 1h1v1H6z M13 1h1v1H13z M16 1h1v1H16z M18 1h1v1H18z M20 1h1v1H20z M22 1h2v1H22z M0 2h3v1H0z M7 2h2v1H7z M15 2h1v1H15z M17 2h1v1H17z M19 2h1v1H19z M22 2h1v1H22z M24 2h1v1H24z M0 3h4v1H0z M7 3h1v1H7z M9 3h1v1H9z M21 3h1v1H21z M23 3h1v1H23z M0 4h1v1H0z M3 4h1v1H3z M6 4h1v1H6z M8 4h1v1H8z M10 4h1v1H10z M17 4h1v1H17z M20 4h1v1H20z M24 4h1v1H24z M0 5h3v1H0z M7 5h1v1H7z M9 5h1v1H9z M11 5h1v1H11z M19 5h1v1H19z M22 5h1v1H22z M24 5h1v1H24z M2 6h2v1H2z M6 6h1v1H6z M8 6h1v1H8z M10 6h1v1H10z M12 6h1v1H12z M23 6h1v1H23z M7 7h1v1H7z M9 7h1v1H9z M11 7h1v1H11z M13 7h1v1H13z M0 8h2v1H0z M8 8h1v1H8z M14 8h1v1H14z M1 9h2v1H1z M4 9h1v1H4z M7 9h1v1H7z M9 9h1v1H9z M11 9h1v1H11z M13 9h1v1H13z M15 9h1v1H15z M0 10h1v1H0z M2 10h1v1H2z M5 10h1v1H5z M7 10h1v1H7z M9 10h1v1H9z M11 10h1v1H11z M13 10h1v1H13z M15 10h1v1H15z M18 10h1v1H18z M20 10h1v1H20z M22 10h1v1H22z M24 10h1v1H24z M8 11h1v1H8z M10 11h1v1H10z M16 11h2v1H16z M21 11h1v1H21z M24 11h1v1H24z M0 12h2v1H0z M3 12h1v1H3z M6 12h1v1H6z M9 12h1v1H9z M11 12h1v1H11z M13 12h1v1H13z M15 12h2v1H15z M18 12h1v1H18z M20 12h1v1H20z M22 12h1v1H22z M24 12h1v1H24z M0 13h1v1H0z M4 13h1v1H4z M6 13h2v1H6z M10 13h1v1H10z M12 13h1v1H12z M14 13h1v1H14z M16 13h2v1H16z M19 13h1v1H19z M21 13h1v1H21z M23 13h2v1H23z M1 14h1v1H1z M4 14h5v1H4z M11 14h1v1H11z M13 14h1v1H13z M15 14h1v1H15z M17 14h4v1H17z M22 14h1v1H22z M24 14h1v1H24z M1 15h1v1H1z M5 15h5v1H5z M12 15h1v1H12z M14 15h1v1H14z M16 15h1v1H16z M18 15h1v1H18z M20 15h5v1H20z M2 16h1v1H2z M5 16h6v1H5z M12 16h2v1H12z M15 16h1v1H15z M17 16h1v1H17z M19 16h1v1H19z M21 16h4v1H21z M0 17h1v1H0z M2 17h1v1H2z M5 17h7v1H5z M13 17h4v1H13z M18 17h7v1H18z M0 18h1v1H0z M2 18h2v1H2z M5 18h8v1H5z M14 18h11v1H14z M0 19h1v1H0z M2 19h7v1H2z M12 19h2v1H12z M16 19h9v1H16z M1 20h6v1H1z M12 20h3v1H12z M17 20h8v1H17z M0 21h6v1H0z M12 21h4v1H12z M18 21h7v1H18z M0 22h4v1H0z M7 22h1v1H7z M9 22h1v1H9z M13 22h4v1H13z M19 22h6v1H19z M0 23h2v1H0z M6 23h1v1H6z M8 23h1v1H8z M10 23h1v1H10z M16 23h2v1H16z M20 23h5v1H20z M4 24h1v1H4z M7 24h1v1H7z M9 24h1v1H9z M12 24h1v1H12z M17 24h2v1H17z M21 24h4v1H21z"/>
  <path fill="#000000" d="M0 0h2v1H0z M3 0h12v1H3z M16 0h1v1H16z M18 0h1v1H18z M0 1h1v1H0z M2 1h1v1H2z M4 1h2v1H4z M7 1h6v1H7z M14 1h2v1H14z M17 1h1v1H17z M19 1h1v1H19z M21 1h1v1H21z M24 1h1v1H24z M3 2h4v1H3z M9 2h6v1H9z M16 2h1v1H16z M18 2h1v1H18z M20 2h2v1H20z M23 2h1v1H23z M4 3h3v1H4z M8 3h1v1H8z M10 3h11v1H10z M22 3h1v1H22z M24 3h1v1H24z M1 4h2v1H1z M4 4h2v1H4z M7 4h1v1H7z M9 4h1v1H9z M11 4h6v1H11z M18 4h2v1H18z M21 4h3v1H21z M3 5h4v1H3z M8 5h1v1H8z M10 5h1v1H10z M12 5h7v1H12z M20 5h2v1H20z M23 5h1v1H23z M0 6h2v1H0z M4 6h2v1H4z M7 6h1v1H7z M9 6h1v1H9z M11 6h1v1H11z M13 6h10v1H13z M24 6h1v1H24z M0 7h4v1H0z M5 7h2v1H5z M8 7h1v1H8z M10 7h1v1H10z M12 7h1v1H12z M14 7h11v1H14z M2 8h4v1H2z M7 8h1v1H7z M9 8h1v1H9z M11 8h1v1H11z M13 8h1v1H13z M15 8h10v1H15z M0 9h1v1H0z M3 9h1v1H3z M5 9h2v1H5z M8 9h1v1H8z M10 9h1v1H10z M12 9h1v1H12z M14 9h1v1H14z M16 9h9v1H16z M1 10h1v1H1z M3 10h2v1H3z M6 10h1v1H6z M8 10h1v1H8z M10 10h1v1H10z M12 10h1v1H12z M14 10h1v1H14z M16 10h2v1H16z M19 10h1v1H19z M21 10h1v1H21z M23 10h1v1H23z M0 11h1v1H0z M2 11h1v1H2z M4 11h4v1H4z M9 11h1v1H9z M11 11h1v1H11z M13 11h1v1H13z M15 11h1v1H15z M18 11h1v1H18z M20 11h1v1H20z M22 11h1v1H22z M2 12h1v1H2z M4 12h2v1H4z M7 12h2v1H7z M10 12h1v1H10z M12 12h1v1H12z M14 12h1v1H14z M17 12h1v1H17z M19 12h1v1H19z M21 12h1v1H21z M23 12h1v1H23z M1 13h3v1H1z M5 13h1v1H5z M8 13h2v1H8z M11 13h1v1H11z M13 13h1v1H13z M15 13h1v1H15z M18 13h1v1H18z M20 13h1v1H20z M22 13h1v1H22z M0 14h1v1H0z M2 14h2v1H2z M9 14h2v1H9z M12 14h1v1H12z M14 14h1v1H14z M16 14h1v1H16z M21 14h1v1H21z M23 14h1v1H23z M0 15h1v1H0z M2 15h3v1H2z M10 15h2v1H10z M13 15h1v1H13z M15 15h1v1H15z M17 15h1v1H17z M19 15h1v1H19z M0 16h2v1H0z M3 16h2v1H3z M11 16h1v1H11z M14 16h1v1H14z M16 16h1v1H16z M18 16h1v1H18z M20 16h1v1H20z M1 17h1v1H1z M3 17h2v1H3z M12 17h1v1H12z M17 17h1v1H17z M1 18h1v1H1z M4 18h1v1H4z M13 18h1v1H13z M1 19h1v1H1z M9 19h3v1H9z M14 19h2v1H14z M0 20h1v1H0z M7 20h5v1H7z M15 20h2v1H15z M6 21h6v1H6z M16 21h2v1H16z M4 22h3v1H4z M8 22h1v1H8z M10 22h3v1H10z M17 22h2v1H17z M2 23h4v1H2z M7 23h1v1H7z M9 23h1v1H9z M11 23h5v1H11z M18 23h2v1H18z M0 24h4v1H0z M5 24h2v1H5z M8 24h1v1H8z M10 24h2v1H10z M13 24h4v1H13z M19 24h2v1H19z"/>
</svg>
