<svg xmlns="http://www.w3.org/2000/svg" viewBox="0 0 25 25" width="25" height="25" shape-rendering="crispEdges" aria-hidden="true">
  <rect width="25" height="25" fill="#ffffff"/>
  <path fill="#808080" d="M3 0h8v1H3z M12 0h2v1H12z M16 0h1v1H16z M20 0h5v1H20z M3 1h11v1H3z M16 1h1v1H16z M20 1h4v1H20z M5 2h2v1H5z M8 2h1v1H8z M11 2h4v1H11z M16 2h2v1H16z M20 2h4v1H20z M5 3h1v1H5z M7 3h1v1H7z M9 3h1v1H9z M11 3h8v1H11z M20 3h3v1H20z M24 3h1v1H24z M5 4h2v1H5z M10 4h5v1H10z M17 4h2v1H17z M20 4h3v1H20z M24 4h1v1H24z M1 5h1v1H1z M4 5h2v1H4z M7 5h1v1H7z M9 5h6v1H9z M18 5h4v1H18z M24 5h1v1H24z M1 6h3v1H1z M6 6h9v1H6z M19 6h1v1H19z M21 6h1v1H21z M23 6h2v1H23z M0 7h3v1H0z M5 7h1v1H5z M10 7h5v1H10z M19 7h1v1H19z M21 7h1v1H21z M23 7h2v1H23z M1 8h1v1H1z M4 8h1v1H4z M11 8h5v1H11z M19 8h2v1H19z M23 8h2v1H23z M0 9h1v1H0z M3 9h4v1H3z M11 9h3v1H11z M16 9h1v1H16z M18 9h1v1H18z M20 9h1v1H20z M23 9h2v1H23z M0 10h5v1H0z M11 10h3v1H11z M17 10h1v1H17z M20 10h1v1H20z M22 10h1v1H22z M24 10h1v1H24z M0 11h4v1H0z M5 11h2v1H5z M11 11h4v1H11z M18 11h2v1H18z M23 11h2v1H23z M1 12h1v1H1z M3 12h1v1H3z M7 12h1v1H7z M11 12h6v1H11z M19 12h1v1H19z M21 12h1v1H21z M23 12h2v1H23z"/>
  <path fill="#000000" d="M0 0h3v1H0z M11 0h1v1H11z M14 0h2v1H14z M17 0h3v1H17z M0 1h3v1H0z M14 1h2v1H14z M17 1h3v1H17z M24 1h1v1H24z M0 2h4v1H0z M7 2h1v1H7z M9 2h2v1H9z M15 2h1v1H15z M18 2h2v1H18z M24 2h1v1H24z M0 3h5v1H0z M6 3h1v1H6z M8 3h1v1H8z M10 3h1v1H10z M19 3h1v1H19z M23 3h1v1H23z M0 4h1v1H0z M2 4h3v1H2z M7 4h1v1H7z M9 4h1v1H9z M15 4h2v1H15z M23 4h1v1H23z M0 5h1v1H0z M2 5h2v1H2z M6 5h1v1H6z M8 5h1v1H8z M15 5h3v1H15z M22 5h2v1H22z M0 6h1v1H0z M4 6h2v1H4z M15 6h4v1H15z M20 6h1v1H20z M22 6h1v1H22z M3 7h2v1H3z M6 7h4v1H6z M15 7h4v1H15z M20 7h1v1H20z M22 7h1v1H22z M0 8h1v1H0z M2 8h2v1H2z M5 8h6v1H5z M16 8h3v1H16z M21 8h2v1H21z M1 9h2v1H1z M7 9h4v1H7z M14 9h2v1H14z M17 9h1v1H17z M19 9h1v1H19z M21 9h2v1H21z M5 10h6v1H5z M14 10h3v1H14z M18 10h2v1H18z M21 10h1v1H21z M23 10h1v1H23z M4 11h1v1H4z M7 11h4v1H7z M15 11h3v1H15z M20 11h3v1H20z M0 12h1v1H0z M2 12h1v1H2z M4 12h3v1H4z M8 12h3v1H8z M17 12h2v1H17z M20 12h1v1H20z M22 12h1v1H22z"/>
</svg>
