<svg xmlns="http://www.w3.org/2000/svg" viewBox="0 0 25 25" width="25" height="25" shape-rendering="crispEdges" aria-hidden="true">
  <rect width="25" height="25" fill="#ffffff"/>
  <path fill="#808080" d="M0 0h1v1H0z M0 1h2v1H0z M0 2h3v1H0z M4 2h1v1H4z M0 3h4v1H0z M1 4h2v1H1z M5 4h1v1H5z M4 5h2v1H4z M0 6h1v1H0z M5 6h2v1H5z M0 7h3v1H0z M6 7h1v1H6z M0 8h1v1H0z M4 8h2v1H4z M0 9h3v1H0z M5 9h1v1H5z M0 10h2v1H0z M0 11h2v1H0z M4 11h1v1H4z M0 12h1v1H0z M6 12h1v1H6z"/>
  <path fill="#000000" d="M1 0h2v1H1z M2 1h2v1H2z M3 2h1v1H3z M4 3h1v1H4z M0 4h1v1H0z M3 4h2v1H3z M0 5h3v1H0z M1 6h4v1H1z M4 7h2v1H4z M1 8h3v1H1z M6 8h1v1H6z M3 9h2v1H3z M6 9h2v1H6z M2 10h6v1H2z M2 11h2v1H2z M5 11h3v1H5z M1 12h5v1H1z M7 12h2v1H7z"/>
</svg>
