<svg xmlns="http://www.w3.org/2000/svg" viewBox="0 0 25 25" width="25" height="25" shape-rendering="crispEdges" aria-hidden="true">
  <rect width="25" height="25" fill="#ffffff"/>
  <path fill="#808080" d="M0 0h2v1H0z M4 0h2v1H4z M8 0h1v1H8z M11 0h1v1H11z M15 0h2v1H15z M19 0h1v1H19z M21 0h1v1H21z M0 1h2v1H0z M3 1h2v1H3z M7 1h1v1H7z M9 1h1v1H9z M12 1h1v1H12z M15 1h6v1H15z M22 1h1v1H22z M24 1h1v1H24z M0 2h1v1H0z M3 2h1v1H3z M8 2h2v1H8z M12 2h1v1H12z M16 2h8v1H16z M1 3h1v1H1z M3 3h1v1H3z M5 3h1v1H5z M9 3h1v1H9z M12 3h3v1H12z M16 3h7v1H16z M1 4h1v1H1z M3 4h2v1H3z M9 4h1v1H9z M13 4h2v1H13z M16 4h4v1H16z M22 4h1v1H22z M0 5h4v1H0z M6 5h1v1H6z M9 5h3v1H9z M13 5h2v1H13z M16 5h3v1H16z M23 5h1v1H23z M0 6h4v1H0z M6 6h1v1H6z M8 6h4v1H8z M13 6h5v1H13z M24 6h1v1H24z M0 7h4v1H0z M5 7h2v1H5z M8 7h2v1H8z M11 7h7v1H11z M2 8h2v1H2z M5 8h1v1H5z M8 8h10v1H8z M22 8h3v1H22z M3 9h1v1H3z M5 9h13v1H5z M24 9h1v1H24z M0 10h2v1H0z M3 10h1v1H3z M5 10h14v1H5z M22 10h2v1H22z M2 11h2v1H2z M5 11h6v1H5z M13 11h9v1H13z M24 11h1v1H24z M0 12h4v1H0z M5 12h4v1H5z M13 12h7v1H13z M24 12h1v1H24z"/>
  <path fill="#000000" d="M2 0h2v1H2z M6 0h2v1H6z M9 0h2v1H9z M12 0h3v1H12z M17 0h2v1H17z M20 0h1v1H20z M22 0h3v1H22z M2 1h1v1H2z M5 1h2v1H5z M8 1h1v1H8z M10 1h2v1H10z M13 1h2v1H13z M21 1h1v1H21z M23 1h1v1H23z M1 2h2v1H1z M4 2h4v1H4z M10 2h2v1H10z M13 2h3v1H13z M24 2h1v1H24z M0 3h1v1H0z M2 3h1v1H2z M4 3h1v1H4z M6 3h3v1H6z M10 3h2v1H10z M15 3h1v1H15z M23 3h2v1H23z M0 4h1v1H0z M5 4h1v1H5z M7 4h2v1H7z M11 4h2v1H11z M15 4h1v1H15z M20 4h2v1H20z M24 4h1v1H24z M4 5h2v1H4z M7 5h2v1H7z M12 5h1v1H12z M15 5h1v1H15z M19 5h4v1H19z M24 5h1v1H24z M4 6h2v1H4z M7 6h1v1H7z M12 6h1v1H12z M18 6h6v1H18z M4 7h1v1H4z M7 7h1v1H7z M10 7h1v1H10z M18 7h7v1H18z M0 8h2v1H0z M4 8h1v1H4z M6 8h2v1H6z M18 8h4v1H18z M1 9h2v1H1z M4 9h1v1H4z M18 9h6v1H18z M2 10h1v1H2z M4 10h1v1H4z M19 10h3v1H19z M24 10h1v1H24z M0 11h2v1H0z M4 11h1v1H4z M11 11h2v1H11z M22 11h2v1H22z M4 12h1v1H4z M9 12h4v1H9z M20 12h4v1H20z"/>
</svg>
