<svg xmlns="http://www.w3.org/2000/svg" viewBox="0 0 25 25" width="25" height="25" shape-rendering="crispEdges" aria-hidden="true">
  <rect width="25" height="25" fill="#ffffff"/>
  <path fill="#808080" d="M0 12h1v1H0z M1 13h2v1H1z M1 14h1v1H1z M3 14h2v1H3z M1 15h3v1H1z M6 15h1v1H6z M1 16h2v1H1z M5 16h2v1H5z M8 16h1v1H8z M2 17h1v1H2z M4 17h2v1H4z M8 17h1v1H8z M0 18h1v1H0z M2 18h4v1H2z M7 18h2v1H7z M10 18h1v1H10z M0 19h1v1H0z M2 19h3v1H2z M7 19h1v1H7z M10 19h1v1H10z M15 19h1v1H15z M0 20h1v1H0z M2 20h3v1H2z M6 20h2v1H6z M10 20h1v1H10z M15 20h1v1H15z M0 21h2v1H0z M3 21h2v1H3z M6 21h2v1H6z M9 21h2v1H9z M15 21h1v1H15z M19 21h1v1H19z M0 22h2v1H0z M3 22h5v1H3z M10 22h1v1H10z M13 22h1v1H13z M16 22h1v1H16z M18 22h1v1H18z M20 22h2v1H20z M0 23h2v1H0z M3 23h6v1H3z M10 23h1v1H10z M13 23h1v1H13z M16 23h1v1H16z M19 23h1v1H19z M21 23h2v1H21z M0 24h2v1H0z M3 24h8v1H3z M12 24h2v1H12z M16 24h1v1H16z M19 24h2v1H19z M22 24h3v1H22z"/>
  <path fill="#000000" d="M0 10h1v1H0z M0 11h2v1H0z M1 12h3v1H1z M0 13h1v1H0z M3 13h3v1H3z M0 14h1v1H0z M2 14h1v1H2z M5 14h3v1H5z M0 15h1v1H0z M4 15h2v1H4z M7 15h3v1H7z M0 16h1v1H0z M3 16h2v1H3z M7 16h1v1H7z M9 16h3v1H9z M0 17h2v1H0z M3 17h1v1H3z M6 17h2v1H6z M9 17h5v1H9z M1 18h1v1H1z M6 18h1v1H6z M9 18h1v1H9z M11 18h1v1H11z M13 18h4v1H13z M1 19h1v1H1z M5 19h2v1H5z M8 19h2v1H8z M11 19h1v1H11z M13 19h2v1H13z M16 19h3v1H16z M1 20h1v1H1z M5 20h1v1H5z M8 20h2v1H8z M11 20h1v1H11z M13 20h2v1H13z M16 20h5v1H16z M2 21h1v1H2z M5 21h1v1H5z M8 21h1v1H8z M11 21h1v1H11z M13 21h2v1H13z M16 21h3v1H16z M20 21h3v1H20z M2 22h1v1H2z M8 22h2v1H8z M11 22h1v1H11z M14 22h2v1H14z M17 22h1v1H17z M19 22h1v1H19z M22 22h2v1H22z M2 23h1v1H2z M9 23h1v1H9z M11 23h1v1H11z M14 23h2v1H14z M17 23h2v1H17z M20 23h1v1H20z M23 23h2v1H23z M2 24h1v1H2z M11 24h1v1H11z M14 24h2v1H14z M17 24h2v1H17z M21 24h1v1H21z"/>
</svg>
