<svg xmlns="http://www.w3.org/2000/svg" viewBox="0 0 25 25" width="25" height="25" shape-rendering="crispEdges" aria-hidden="true">
  <rect width="25" height="25" fill="#ffffff"/>
  <path fill="#808080" d="M3 0h3v1H3z M7 0h1v1H7z M10 0h3v1H10z M14 0h5v1H14z M21 0h2v1H21z M0 1h1v1H0z M2 1h5v1H2z M8 1h4v1H8z M16 1h4v1H16z M0 2h8v1H0z M10 2h2v1H10z M16 2h4v1H16z M23 2h2v1H23z M0 3h6v1H0z M9 3h2v1H9z M12 3h1v1H12z M14 3h1v1H14z M20 3h5v1H20z M0 4h5v1H0z M10 4h1v1H10z M12 4h1v1H12z M20 4h5v1H20z M0 5h4v1H0z M8 5h2v1H8z M11 5h1v1H11z M15 5h2v1H15z M20 5h5v1H20z M1 6h3v1H1z M9 6h3v1H9z M13 6h2v1H13z M19 6h5v1H19z M1 7h4v1H1z M8 7h1v1H8z M11 7h1v1H11z M13 7h1v1H13z M15 7h10v1H15z M0 8h1v1H0z M2 8h6v1H2z M10 8h5v1H10z M18 8h4v1H18z M23 8h2v1H23z M0 9h6v1H0z M9 9h2v1H9z M15 9h1v1H15z M19 9h3v1H19z M24 9h1v1H24z M1 10h4v1H1z M9 10h1v1H9z M12 10h2v1H12z M19 10h4v1H19z M24 10h1v1H24z M1 11h4v1H1z M12 11h1v1H12z M19 11h5v1H19z M1 12h5v1H1z M11 12h2v1H11z M18 12h7v1H18z"/>
  <path fill="#000000" d="M0 0h3v1H0z M6 0h1v1H6z M8 0h2v1H8z M13 0h1v1H13z M19 0h2v1H19z M23 0h2v1H23z M1 1h1v1H1z M7 1h1v1H7z M12 1h4v1H12z M20 1h5v1H20z M8 2h2v1H8z M12 2h4v1H12z M20 2h3v1H20z M6 3h3v1H6z M11 3h1v1H11z M13 3h1v1H13z M15 3h5v1H15z M5 4h5v1H5z M11 4h1v1H11z M14 4h6v1H14z M4 5h4v1H4z M10 5h1v1H10z M12 5h2v1H12z M17 5h3v1H17z M0 6h1v1H0z M4 6h5v1H4z M12 6h1v1H12z M15 6h4v1H15z M24 6h1v1H24z M0 7h1v1H0z M5 7h3v1H5z M9 7h2v1H9z M12 7h1v1H12z M14 7h1v1H14z M1 8h1v1H1z M8 8h2v1H8z M15 8h3v1H15z M22 8h1v1H22z M6 9h3v1H6z M11 9h3v1H11z M16 9h3v1H16z M22 9h2v1H22z M0 10h1v1H0z M5 10h4v1H5z M10 10h2v1H10z M14 10h5v1H14z M23 10h1v1H23z M0 11h1v1H0z M5 11h7v1H5z M13 11h6v1H13z M24 11h1v1H24z M0 12h1v1H0z M6 12h5v1H6z M13 12h5v1H13z"/>
</svg>
