<svg xmlns="http://www.w3.org/2000/svg" viewBox="0 0 25 25" width="25" height="25" shape-rendering="crispEdges" aria-hidden="true">
  <rect width="25" height="25" fill="#ffffff"/>
  <path fill="#808080" d="M0 0h9v1H0z M10 0h1v1H10z M0 1h1v1H0z M2 1h1v1H2z M4 1h2v1H4z M7 1h1v1H7z M11 1h1v1H11z M0 2h2v1H0z M3 2h1v1H3z M5 2h1v1H5z M9 2h1v1H9z M15 2h1v1H15z M1 3h1v1H1z M3 3h1v1H3z M15 3h1v1H15z M2 4h1v1H2z M4 4h1v1H4z M7 4h1v1H7z M14 4h2v1H14z M18 4h1v1H18z M4 5h1v1H4z M13 5h3v1H13z M18 5h2v1H18z M12 6h4v1H12z M18 6h2v1H18z M11 7h5v1H11z M18 7h3v1H18z M9 8h7v1H9z M18 8h4v1H18z M8 9h8v1H8z M20 9h2v1H20z M0 10h1v1H0z M2 10h1v1H2z M4 10h1v1H4z M6 10h10v1H6z M17 10h1v1H17z M20 10h1v1H20z M22 10h1v1H22z M3 11h12v1H3z M17 11h1v1H17z M20 11h2v1H20z M23 11h1v1H23z M0 12h1v1H0z M2 12h1v1H2z M4 12h11v1H4z M16 12h4v1H16z M21 12h2v1H21z M0 13h14v1H0z M16 13h2v1H16z M21 13h3v1H21z M0 14h13v1H0z M15 14h3v1H15z M20 14h1v1H20z M22 14h1v1H22z M24 14h1v1H24z M0 15h12v1H0z M14 15h4v1H14z M21 15h1v1H21z M0 16h11v1H0z M13 16h5v1H13z M20 16h1v1H20z M0 17h10v1H0z M12 17h9v1H12z M24 17h1v1H24z M0 18h9v1H0z M11 18h10v1H11z M24 18h1v1H24z M0 19h8v1H0z M10 19h3v1H10z M16 19h9v1H16z M0 20h7v1H0z M9 20h4v1H9z M17 20h8v1H17z M0 21h6v1H0z M8 21h4v1H8z M18 21h7v1H18z M0 22h5v1H0z M7 22h3v1H7z M13 22h1v1H13z M15 22h1v1H15z M20 22h5v1H20z M0 23h4v1H0z M6 23h2v1H6z M14 23h1v1H14z M16 23h1v1H16z M22 23h3v1H22z M0 24h3v1H0z M5 24h2v1H5z M10 24h1v1H10z M15 24h1v1H15z M17 24h2v1H17z M24 24h1v1H24z"/>
  <path fill="#000000" d="M9 0h1v1H9z M11 0h6v1H11z M1 1h1v1H1z M3 1h1v1H3z M6 1h1v1H6z M8 1h3v1H8z M12 1h6v1H12z M2 2h1v1H2z M4 2h1v1H4z M6 2h3v1H6z M10 2h5v1H10z M16 2h3v1H16z M0 3h1v1H0z M2 3h1v1H2z M4 3h11v1H4z M16 3h4v1H16z M0 4h2v1H0z M3 4h1v1H3z M5 4h2v1H5z M8 4h6v1H8z M16 4h2v1H16z M19 4h2v1H19z M0 5h4v1H0z M5 5h8v1H5z M16 5h2v1H16z M20 5h1v1H20z M0 6h1v1H0z M2 6h10v1H2z M16 6h2v1H16z M20 6h2v1H20z M0 7h11v1H0z M16 7h2v1H16z M21 7h2v1H21z M0 8h9v1H0z M16 8h2v1H16z M22 8h2v1H22z M0 9h8v1H0z M16 9h4v1H16z M22 9h2v1H22z M1 10h1v1H1z M3 10h1v1H3z M5 10h1v1H5z M16 10h1v1H16z M18 10h2v1H18z M21 10h1v1H21z M23 10h2v1H23z M0 11h1v1H0z M2 11h1v1H2z M15 11h2v1H15z M18 11h2v1H18z M22 11h1v1H22z M24 11h1v1H24z M1 12h1v1H1z M3 12h1v1H3z M15 12h1v1H15z M20 12h1v1H20z M23 12h2v1H23z M14 13h2v1H14z M18 13h3v1H18z M24 13h1v1H24z M13 14h2v1H13z M18 14h2v1H18z M21 14h1v1H21z M23 14h1v1H23z M12 15h2v1H12z M18 15h3v1H18z M22 15h3v1H22z M11 16h2v1H11z M18 16h2v1H18z M21 16h4v1H21z M10 17h2v1H10z M21 17h3v1H21z M9 18h2v1H9z M21 18h3v1H21z M8 19h2v1H8z M13 19h3v1H13z M7 20h2v1H7z M13 20h4v1H13z M6 21h2v1H6z M12 21h6v1H12z M5 22h2v1H5z M10 22h3v1H10z M14 22h1v1H14z M16 22h4v1H16z M4 23h2v1H4z M8 23h6v1H8z M15 23h1v1H15z M17 23h5v1H17z M3 24h2v1H3z M7 24h3v1H7z M11 24h4v1H11z M16 24h1v1H16z M19 24h5v1H19z"/>
</svg>
