<svg xmlns="http://www.w3.org/2000/svg" viewBox="0 0 25 25" width="25" height="25" shape-rendering="crispEdges" aria-hidden="true">
  <rect width="25" height="25" fill="#ffffff"/>
  <path fill="#808080" d="M24 4h1v1H24z M23 5h2v1H23z M23 6h2v1H23z M22 7h1v1H22z M20 8h1v1H20z M22 8h3v1H22z M18 9h3v1H18z M13 10h7v1H13z M22 10h3v1H22z M17 11h3v1H17z M11 12h1v1H11z M13 12h2v1H13z M18 12h2v1H18z M22 12h2v1H22z M7 13h2v1H7z M12 13h1v1H12z M15 13h3v1H15z M19 13h1v1H19z M21 13h1v1H21z M4 14h1v1H4z M7 14h2v1H7z M10 14h1v1H10z M17 14h3v1H17z M24 14h1v1H24z M2 15h3v1H2z M7 15h1v1H7z M10 15h1v1H10z M13 15h1v1H13z M15 15h1v1H15z M18 15h2v1H18z M23 15h1v1H23z M0 16h6v1H0z M7 16h1v1H7z M10 16h1v1H10z M14 16h1v1H14z M16 16h2v1H16z M19 16h1v1H19z M21 16h2v1H21z M0 17h8v1H0z M10 17h1v1H10z M12 17h1v1H12z M14 17h1v1H14z M17 17h3v1H17z M0 18h1v1H0z M4 18h5v1H4z M11 18h1v1H11z M13 18h1v1H13z M15 18h1v1H15z M18 18h2v1H18z M22 18h1v1H22z M1 19h2v1H1z M6 19h4v1H6z M11 19h1v1H11z M13 19h1v1H13z M18 19h2v1H18z M21 19h2v1H21z M24 19h1v1H24z M0 20h1v1H0z M5 20h10v1H5z M18 20h1v1H18z M21 20h1v1H21z M24 20h1v1H24z M1 21h16v1H1z M18 21h1v1H18z M21 21h1v1H21z M23 21h2v1H23z M2 22h17v1H2z M21 22h1v1H21z M23 22h2v1H23z M3 23h16v1H3z M21 23h4v1H21z M0 24h1v1H0z M3 24h3v1H3z M8 24h11v1H8z M21 24h4v1H21z"/>
  <path fill="#000000" d="M24 1h1v1H24z M23 2h2v1H23z M23 3h2v1H23z M22 4h2v1H22z M21 5h2v1H21z M20 6h3v1H20z M18 7h4v1H18z M23 7h2v1H23z M16 8h4v1H16z M21 8h1v1H21z M14 9h4v1H14z M21 9h4v1H21z M10 10h3v1H10z M20 10h2v1H20z M8 11h9v1H8z M20 11h5v1H20z M6 12h5v1H6z M12 12h1v1H12z M15 12h3v1H15z M20 12h2v1H20z M24 12h1v1H24z M3 13h4v1H3z M9 13h3v1H9z M13 13h2v1H13z M18 13h1v1H18z M20 13h1v1H20z M22 13h3v1H22z M0 14h4v1H0z M5 14h2v1H5z M9 14h1v1H9z M11 14h6v1H11z M20 14h4v1H20z M0 15h2v1H0z M5 15h2v1H5z M8 15h2v1H8z M11 15h2v1H11z M14 15h1v1H14z M16 15h2v1H16z M20 15h3v1H20z M24 15h1v1H24z M6 16h1v1H6z M8 16h2v1H8z M11 16h3v1H11z M15 16h1v1H15z M18 16h1v1H18z M20 16h1v1H20z M23 16h2v1H23z M8 17h2v1H8z M11 17h1v1H11z M13 17h1v1H13z M15 17h2v1H15z M20 17h5v1H20z M1 18h3v1H1z M9 18h2v1H9z M12 18h1v1H12z M14 18h1v1H14z M16 18h2v1H16z M20 18h2v1H20z M23 18h2v1H23z M0 19h1v1H0z M3 19h3v1H3z M10 19h1v1H10z M12 19h1v1H12z M14 19h4v1H14z M20 19h1v1H20z M23 19h1v1H23z M1 20h4v1H1z M15 20h3v1H15z M19 20h2v1H19z M22 20h2v1H22z M0 21h1v1H0z M17 21h1v1H17z M19 21h2v1H19z M22 21h1v1H22z M0 22h2v1H0z M19 22h2v1H19z M22 22h1v1H22z M0 23h3v1H0z M19 23h2v1H19z M1 24h2v1H1z M6 24h2v1H6z M19 24h2v1H19z"/>
</svg>
