<svg xmlns="http://www.w3.org/2000/svg" viewBox="0 0 25 25" width="25" height="25" shape-rendering="crispEdges" aria-hidden="true">
  <rect width="25" height="25" fill="#ffffff"/>
  <path fill="#808080" d="M23 17h2v1H23z M21 18h2v1H21z M20 19h1v1H20z M23 19h2v1H23z M18 20h2v1H18z M22 20h2v1H22z M19 21h3v1H19z M24 21h1v1H24z M16 22h2v1H16z M19 22h1v1H19z M15 23h5v1H15z M23 23h1v1H23z M14 24h2v1H14z M17 24h7v1H17z"/>
  <path fill="#000000" d="M23 15h2v1H23z M21 16h4v1H21z M20 17h3v1H20z M19 18h2v1H19z M23 18h2v1H23z M17 19h3v1H17z M21 19h2v1H21z M16 20h2v1H16z M20 20h2v1H20z M24 20h1v1H24z M14 21h5v1H14z M22 21h2v1H22z M14 22h2v1H14z M18 22h1v1H18z M20 22h5v1H20z M12 23h3v1H12z M20 23h3v1H20z M24 23h1v1H24z M12 24h2v1H12z M16 24h1v1H16z M24 24h1v1H24z"/>
</svg>
