<svg xmlns="http://www.w3.org/2000/svg" viewBox="0 0 25 25" width="25" height="25" shape-rendering="crispEdges" aria-hidden="true">
  <rect width="25" height="25" fill="#ffffff"/>
  <path fill="#808080" d="M3 0h1v1H3z M5 0h7v1H5z M13 0h1v1H13z M15 0h1v1H15z M18 0h2v1H18z M21 0h4v1H21z M0 1h10v1H0z M11 1h4v1H11z M16 1h1v1H16z M19 1h2v1H19z M22 1h3v1H22z M0 2h6v1H0z M8 2h1v1H8z M10 2h3v1H10z M14 2h2v1H14z M18 2h1v1H18z M20 2h1v1H20z M22 2h3v1H22z M0 3h4v1H0z M5 3h1v1H5z M10 3h1v1H10z M15 3h6v1H15z M24 3h1v1H24z M0 4h3v1H0z M5 4h1v1H5z M10 4h1v1H10z M13 4h4v1H13z M19 4h2v1H19z M24 4h1v1H24z M1 5h2v1H1z M4 5h2v1H4z M9 5h1v1H9z M12 5h1v1H12z M17 5h5v1H17z M1 6h2v1H1z M4 6h2v1H4z M10 6h1v1H10z M15 6h6v1H15z M22 6h1v1H22z M1 7h2v1H1z M5 7h1v1H5z M9 7h1v1H9z M12 7h10v1H12z M1 8h2v1H1z M5 8h1v1H5z M8 8h1v1H8z M15 8h6v1H15z M22 8h1v1H22z M24 8h1v1H24z M2 9h1v1H2z M4 9h1v1H4z M11 9h3v1H11z M17 9h6v1H17z M24 9h1v1H24z M0 10h1v1H0z M2 10h1v1H2z M5 10h1v1H5z M8 10h2v1H8z M14 10h8v1H14z M24 10h1v1H24z M0 11h1v1H0z M3 11h1v1H3z M5 11h1v1H5z M9 11h2v1H9z M16 11h5v1H16z M22 11h1v1H22z M24 11h1v1H24z M1 12h1v1H1z M4 12h1v1H4z M7 12h1v1H7z M11 12h11v1H11z M24 12h1v1H24z"/>
  <path fill="#000000" d="M0 0h3v1H0z M4 0h1v1H4z M12 0h1v1H12z M14 0h1v1H14z M16 0h2v1H16z M20 0h1v1H20z M10 1h1v1H10z M15 1h1v1H15z M17 1h2v1H17z M21 1h1v1H21z M6 2h1v1H6z M9 2h1v1H9z M13 2h1v1H13z M16 2h2v1H16z M19 2h1v1H19z M21 2h1v1H21z M4 3h1v1H4z M6 3h1v1H6z M8 3h2v1H8z M11 3h4v1H11z M21 3h3v1H21z M3 4h1v1H3z M6 4h1v1H6z M8 4h2v1H8z M11 4h2v1H11z M17 4h2v1H17z M21 4h1v1H21z M23 4h1v1H23z M0 5h1v1H0z M3 5h1v1H3z M6 5h1v1H6z M8 5h1v1H8z M10 5h2v1H10z M13 5h4v1H13z M22 5h3v1H22z M0 6h1v1H0z M3 6h1v1H3z M6 6h1v1H6z M8 6h2v1H8z M11 6h4v1H11z M21 6h1v1H21z M23 6h2v1H23z M0 7h1v1H0z M3 7h2v1H3z M6 7h3v1H6z M10 7h2v1H10z M22 7h3v1H22z M0 8h1v1H0z M3 8h2v1H3z M6 8h1v1H6z M9 8h6v1H9z M21 8h1v1H21z M23 8h1v1H23z M0 9h2v1H0z M3 9h1v1H3z M5 9h6v1H5z M14 9h3v1H14z M23 9h1v1H23z M1 10h1v1H1z M3 10h2v1H3z M6 10h2v1H6z M10 10h4v1H10z M22 10h2v1H22z M1 11h2v1H1z M4 11h1v1H4z M6 11h3v1H6z M11 11h5v1H11z M21 11h1v1H21z M23 11h1v1H23z M0 12h1v1H0z M2 12h2v1H2z M5 12h2v1H5z M8 12h3v1H8z M22 12h2v1H22z"/>
</svg>
