<svg xmlns="http://www.w3.org/2000/svg" viewBox="0 0 25 25" width="25" height="25" shape-rendering="crispEdges" aria-hidden="true">
  <rect width="25" height="25" fill="#ffffff"/>
  <path fill="#808080" d="M13 0h3v1H13z M18 0h1v1H18z M20 0h5v1H20z M13 1h3v1H13z M18 1h2v1H18z M21 1h4v1H21z M12 2h4v1H12z M18 2h2v1H18z M22 2h3v1H22z M11 3h1v1H11z M13 3h2v1H13z M17 3h1v1H17z M20 3h1v1H20z M23 3h2v1H23z M11 4h1v1H11z M14 4h1v1H14z M17 4h1v1H17z M19 4h1v1H19z M23 4h2v1H23z M11 5h2v1H11z M14 5h1v1H14z M16 5h1v1H16z M19 5h1v1H19z M21 5h1v1H21z M24 5h1v1H24z M12 6h1v1H12z M14 6h1v1H14z M17 6h1v1H17z M20 6h3v1H20z M24 6h1v1H24z M11 7h1v1H11z M14 7h1v1H14z M16 7h1v1H16z M19 7h4v1H19z M24 7h1v1H24z M12 8h1v1H12z M15 8h1v1H15z M19 8h1v1H19z M22 8h2v1H22z M12 9h1v1H12z M14 9h1v1H14z M17 9h2v1H17z M21 9h3v1H21z M11 10h1v1H11z M14 10h1v1H14z M16 10h1v1H16z M20 10h4v1H20z M11 11h1v1H11z M13 11h1v1H13z M17 11h2v1H17z M21 11h3v1H21z M13 12h1v1H13z M15 12h1v1H15z M19 12h4v1H19z M24 12h1v1H24z"/>
  <path fill="#000000" d="M11 0h2v1H11z M16 0h2v1H16z M19 0h1v1H19z M11 1h2v1H11z M16 1h2v1H16z M20 1h1v1H20z M11 2h1v1H11z M16 2h2v1H16z M20 2h2v1H20z M12 3h1v1H12z M15 3h2v1H15z M18 3h2v1H18z M21 3h2v1H21z M12 4h2v1H12z M15 4h1v1H15z M18 4h1v1H18z M20 4h1v1H20z M22 4h1v1H22z M13 5h1v1H13z M15 5h1v1H15z M17 5h2v1H17z M20 5h1v1H20z M22 5h2v1H22z M11 6h1v1H11z M13 6h1v1H13z M15 6h2v1H15z M18 6h2v1H18z M23 6h1v1H23z M12 7h2v1H12z M15 7h1v1H15z M17 7h2v1H17z M23 7h1v1H23z M11 8h1v1H11z M13 8h2v1H13z M16 8h3v1H16z M20 8h2v1H20z M24 8h1v1H24z M11 9h1v1H11z M13 9h1v1H13z M15 9h2v1H15z M19 9h2v1H19z M24 9h1v1H24z M12 10h2v1H12z M15 10h1v1H15z M17 10h3v1H17z M24 10h1v1H24z M12 11h1v1H12z M14 11h3v1H14z M19 11h2v1H19z M24 11h1v1H24z M11 12h2v1H11z M14 12h1v1H14z M16 12h3v1H16z M23 12h1v1H23z"/>
</svg>
