<svg xmlns="http://www.w3.org/2000/svg" viewBox="0 0 25 25" width="25" height="25" shape-rendering="crispEdges" aria-hidden="true">
  <rect width="25" height="25" fill="#ffffff"/>
  <path fill="#808080" d="M0 0h1v1H0z M2 0h2v1H2z M6 0h1v1H6z M9 0h4v1H9z M14 0h7v1H14z M22 0h3v1H22z M0 1h1v1H0z M2 1h3v1H2z M6 1h2v1H6z M9 1h4v1H9z M15 1h5v1H15z M21 1h4v1H21z M0 2h1v1H0z M3 2h2v1H3z M6 2h2v1H6z M9 2h3v1H9z M13 2h2v1H13z M16 2h3v1H16z M22 2h3v1H22z M0 3h2v1H0z M4 3h2v1H4z M7 3h1v1H7z M9 3h7v1H9z M20 3h1v1H20z M23 3h2v1H23z M0 4h2v1H0z M3 4h1v1H3z M5 4h1v1H5z M7 4h1v1H7z M9 4h8v1H9z M19 4h2v1H19z M23 4h2v1H23z M0 5h2v1H0z M3 5h2v1H3z M7 5h2v1H7z M10 5h3v1H10z M14 5h4v1H14z M19 5h3v1H19z M24 5h1v1H24z M1 6h1v1H1z M4 6h2v1H4z M7 6h2v1H7z M10 6h3v1H10z M15 6h4v1H15z M20 6h3v1H20z M24 6h1v1H24z M1 7h2v1H1z M4 7h3v1H4z M8 7h1v1H8z M10 7h4v1H10z M15 7h4v1H15z M20 7h3v1H20z M24 7h1v1H24z M1 8h2v1H1z M4 8h3v1H4z M8 8h1v1H8z M10 8h4v1H10z M17 8h6v1H17z M24 8h1v1H24z M1 9h2v1H1z M6 9h1v1H6z M8 9h1v1H8z M11 9h3v1H11z M18 9h5v1H18z M24 9h1v1H24z M0 10h1v1H0z M2 10h1v1H2z M4 10h1v1H4z M8 10h2v1H8z M11 10h3v1H11z M15 10h2v1H15z M19 10h3v1H19z M23 10h2v1H23z M0 11h1v1H0z M2 11h1v1H2z M4 11h2v1H4z M8 11h2v1H8z M11 11h2v1H11z M15 11h3v1H15z M19 11h3v1H19z M23 11h2v1H23z M0 12h1v1H0z M2 12h1v1H2z M4 12h4v1H4z M9 12h1v1H9z M11 12h2v1H11z M15 12h3v1H15z M19 12h2v1H19z M23 12h2v1H23z"/>
  <path fill="#000000" d="M1 0h1v1H1z M4 0h2v1H4z M7 0h2v1H7z M13 0h1v1H13z M21 0h1v1H21z M1 1h1v1H1z M5 1h1v1H5z M8 1h1v1H8z M13 1h2v1H13z M20 1h1v1H20z M1 2h1v1H1z M5 2h1v1H5z M8 2h1v1H8z M12 2h1v1H12z M15 2h1v1H15z M19 2h2v1H19z M2 3h2v1H2z M6 3h1v1H6z M8 3h1v1H8z M16 3h4v1H16z M21 3h2v1H21z M4 4h1v1H4z M6 4h1v1H6z M8 4h1v1H8z M17 4h2v1H17z M22 4h1v1H22z M2 5h1v1H2z M5 5h2v1H5z M9 5h1v1H9z M13 5h1v1H13z M18 5h1v1H18z M22 5h2v1H22z M0 6h1v1H0z M2 6h2v1H2z M6 6h1v1H6z M9 6h1v1H9z M13 6h2v1H13z M19 6h1v1H19z M23 6h1v1H23z M0 7h1v1H0z M3 7h1v1H3z M7 7h1v1H7z M9 7h1v1H9z M14 7h1v1H14z M19 7h1v1H19z M23 7h1v1H23z M0 8h1v1H0z M3 8h1v1H3z M7 8h1v1H7z M9 8h1v1H9z M14 8h3v1H14z M23 8h1v1H23z M0 9h1v1H0z M3 9h3v1H3z M7 9h1v1H7z M9 9h2v1H9z M14 9h4v1H14z M23 9h1v1H23z M1 10h1v1H1z M3 10h1v1H3z M5 10h3v1H5z M10 10h1v1H10z M14 10h1v1H14z M17 10h2v1H17z M22 10h1v1H22z M1 11h1v1H1z M3 11h1v1H3z M6 11h2v1H6z M10 11h1v1H10z M13 11h2v1H13z M18 11h1v1H18z M22 11h1v1H22z M1 12h1v1H1z M3 12h1v1H3z M8 12h1v1H8z M10 12h1v1H10z M13 12h2v1H13z M18 12h1v1H18z M21 12h2v1H21z"/>
</svg>
