<svg xmlns="http://www.w3.org/2000/svg" viewBox="0 0 25 25" width="25" height="25" shape-rendering="crispEdges" aria-hidden="true">
  <rect width="25" height="25" fill="#ffffff"/>
  <path fill="#808080" d="M13 0h2v1H13z M17 0h6v1H17z M24 0h1v1H24z M13 1h3v1H13z M17 1h6v1H17z M24 1h1v1H24z M12 2h3v1H12z M18 2h6v1H18z M11 3h3v1H11z M15 3h3v1H15z M19 3h5v1H19z M11 4h2v1H11z M15 4h2v1H15z M19 4h5v1H19z M11 5h2v1H11z M14 5h2v1H14z M18 5h1v1H18z M20 5h4v1H20z M11 6h1v1H11z M14 6h2v1H14z M17 6h2v1H17z M20 6h5v1H20z M11 7h1v1H11z M13 7h2v1H13z M17 7h8v1H17z M13 8h2v1H13z M16 8h4v1H16z M21 8h4v1H21z M12 9h3v1H12z M16 9h4v1H16z M21 9h4v1H21z M12 10h2v1H12z M16 10h4v1H16z M22 10h3v1H22z M11 11h3v1H11z M15 11h4v1H15z M20 11h1v1H20z M22 11h3v1H22z M11 12h2v1H11z M15 12h6v1H15z M22 12h3v1H22z"/>
  <path fill="#000000" d="M11 0h2v1H11z M15 0h2v1H15z M23 0h1v1H23z M11 1h2v1H11z M16 1h1v1H16z M23 1h1v1H23z M11 2h1v1H11z M15 2h3v1H15z M24 2h1v1H24z M14 3h1v1H14z M18 3h1v1H18z M24 3h1v1H24z M13 4h2v1H13z M17 4h2v1H17z M24 4h1v1H24z M13 5h1v1H13z M16 5h2v1H16z M19 5h1v1H19z M24 5h1v1H24z M12 6h2v1H12z M16 6h1v1H16z M19 6h1v1H19z M12 7h1v1H12z M15 7h2v1H15z M11 8h2v1H11z M15 8h1v1H15z M20 8h1v1H20z M11 9h1v1H11z M15 9h1v1H15z M20 9h1v1H20z M11 10h1v1H11z M14 10h2v1H14z M20 10h2v1H20z M14 11h1v1H14z M19 11h1v1H19z M21 11h1v1H21z M13 12h2v1H13z M21 12h1v1H21z"/>
</svg>
