<svg xmlns="http://www.w3.org/2000/svg" viewBox="0 0 25 25" width="25" height="25" shape-rendering="crispEdges" aria-hidden="true">
  <rect width="25" height="25" fill="#ffffff"/>
  <path fill="#808080" d="M1 2h1v1H1z M0 3h4v1H0z M5 3h1v1H5z M0 4h4v1H0z M0 5h6v1H0z M0 6h7v1H0z M0 7h5v1H0z M6 7h1v1H6z M0 8h6v1H0z M0 9h6v1H0z M0 10h6v1H0z M0 11h6v1H0z M0 12h7v1H0z"/>
  <path fill="#000000" d="M0 0h3v1H0z M0 1h4v1H0z M0 2h1v1H0z M2 2h3v1H2z M4 3h1v1H4z M4 4h2v1H4z M5 7h1v1H5z M6 8h1v1H6z M6 9h2v1H6z M6 10h2v1H6z M6 11h2v1H6z M7 12h2v1H7z"/>
</svg>
