<svg xmlns="http://www.w3.org/2000/svg" viewBox="0 0 25 25" width="25" height="25" shape-rendering="crispEdges" aria-hidden="true">
  <rect width="25" height="25" fill="#ffffff"/>
  <path fill="#808080" d="M0 0h2v1H0z M4 0h3v1H4z M9 0h2v1H9z M13 0h2v1H13z M17 0h1v1H17z M19 0h1v1H19z M21 0h1v1H21z M23 0h2v1H23z M0 1h3v1H0z M4 1h3v1H4z M8 1h4v1H8z M13 1h2v1H13z M16 1h2v1H16z M20 1h2v1H20z M23 1h2v1H23z M0 2h3v1H0z M5 2h3v1H5z M9 2h3v1H9z M13 2h2v1H13z M16 2h1v1H16z M18 2h2v1H18z M21 2h1v1H21z M23 2h2v1H23z M0 3h4v1H0z M7 3h2v1H7z M10 3h1v1H10z M13 3h2v1H13z M16 3h1v1H16z M18 3h1v1H18z M21 3h1v1H21z M23 3h2v1H23z M0 4h3v1H0z M7 4h1v1H7z M9 4h2v1H9z M13 4h2v1H13z M16 4h1v1H16z M19 4h1v1H19z M21 4h1v1H21z M23 4h2v1H23z M0 5h2v1H0z M3 5h4v1H3z M9 5h2v1H9z M12 5h3v1H12z M16 5h1v1H16z M20 5h1v1H20z M23 5h2v1H23z M0 6h2v1H0z M3 6h3v1H3z M8 6h2v1H8z M11 6h4v1H11z M16 6h1v1H16z M18 6h1v1H18z M20 6h1v1H20z M22 6h3v1H22z M0 7h2v1H0z M3 7h2v1H3z M6 7h3v1H6z M11 7h4v1H11z M16 7h1v1H16z M18 7h3v1H18z M22 7h3v1H22z M0 8h2v1H0z M3 8h3v1H3z M7 8h1v1H7z M9 8h6v1H9z M16 8h1v1H16z M18 8h1v1H18z M20 8h1v1H20z M22 8h2v1H22z M0 9h2v1H0z M3 9h4v1H3z M8 9h7v1H8z M16 9h2v1H16z M20 9h1v1H20z M22 9h2v1H22z M0 10h2v1H0z M4 10h3v1H4z M8 10h3v1H8z M13 10h1v1H13z M16 10h1v1H16z M19 10h2v1H19z M22 10h1v1H22z M0 11h3v1H0z M4 11h4v1H4z M9 11h2v1H9z M12 11h2v1H12z M15 11h2v1H15z M18 11h1v1H18z M20 11h1v1H20z M22 11h1v1H22z M24 11h1v1H24z M0 12h3v1H0z M5 12h3v1H5z M9 12h2v1H9z M12 12h2v1H12z M15 12h2v1H15z M18 12h1v1H18z M20 12h1v1H20z M22 12h1v1H22z M24 12h1v1H24z"/>
  <path fill="#000000" d="M2 0h2v1H2z M7 0h2v1H7z M11 0h2v1H11z M15 0h2v1H15z M18 0h1v1H18z M20 0h1v1H20z M22 0h1v1H22z M3 1h1v1H3z M7 1h1v1H7z M12 1h1v1H12z M15 1h1v1H15z M18 1h2v1H18z M22 1h1v1H22z M3 2h2v1H3z M8 2h1v1H8z M12 2h1v1H12z M15 2h1v1H15z M17 2h1v1H17z M20 2h1v1H20z M22 2h1v1H22z M4 3h3v1H4z M9 3h1v1H9z M11 3h2v1H11z M15 3h1v1H15z M17 3h1v1H17z M19 3h2v1H19z M22 3h1v1H22z M3 4h1v1H3z M6 4h1v1H6z M8 4h1v1H8z M11 4h1v1H11z M15 4h1v1H15z M17 4h2v1H17z M22 4h1v1H22z M2 5h1v1H2z M7 5h2v1H7z M11 5h1v1H11z M15 5h1v1H15z M17 5h3v1H17z M21 5h2v1H21z M2 6h1v1H2z M6 6h2v1H6z M10 6h1v1H10z M15 6h1v1H15z M17 6h1v1H17z M19 6h1v1H19z M21 6h1v1H21z M2 7h1v1H2z M5 7h1v1H5z M9 7h2v1H9z M15 7h1v1H15z M17 7h1v1H17z M21 7h1v1H21z M2 8h1v1H2z M6 8h1v1H6z M8 8h1v1H8z M15 8h1v1H15z M17 8h1v1H17z M19 8h1v1H19z M21 8h1v1H21z M24 8h1v1H24z M2 9h1v1H2z M7 9h1v1H7z M15 9h1v1H15z M18 9h2v1H18z M21 9h1v1H21z M24 9h1v1H24z M2 10h2v1H2z M7 10h1v1H7z M11 10h1v1H11z M14 10h2v1H14z M17 10h2v1H17z M21 10h1v1H21z M23 10h2v1H23z M3 11h1v1H3z M8 11h1v1H8z M11 11h1v1H11z M14 11h1v1H14z M17 11h1v1H17z M19 11h1v1H19z M21 11h1v1H21z M23 11h1v1H23z M3 12h2v1H3z M8 12h1v1H8z M11 12h1v1H11z M14 12h1v1H14z M17 12h1v1H17z M19 12h1v1H19z M21 12h1v1H21z M23 12h1v1H23z"/>
</svg>
