<svg xmlns="http://www.w3.org/2000/svg" viewBox="0 0 25 25" width="25" height="25" shape-rendering="crispEdges" aria-hidden="true">
  <rect width="25" height="25" fill="#ffffff"/>
  <path fill="#808080" d="M0 0h3v1H0z M0 1h3v1H0z M0 2h2v1H0z M3 2h1v1H3z M0 3h1v1H0z M3 3h1v1H3z M5 3h1v1H5z M0 4h1v1H0z M2 4h1v1H2z M1 5h6v1H1z M1 6h4v1H1z M6 6h1v1H6z M1 7h3v1H1z M5 7h2v1H5z M2 8h2v1H2z M5 8h1v1H5z M0 9h1v1H0z M2 9h2v1H2z M5 9h2v1H5z M0 10h1v1H0z M2 10h2v1H2z M5 10h2v1H5z M0 11h2v1H0z M3 11h1v1H3z M6 11h1v1H6z M0 12h2v1H0z M3 12h2v1H3z M6 12h2v1H6z"/>
  <path fill="#000000" d="M3 0h1v1H3z M3 1h1v1H3z M2 2h1v1H2z M4 2h1v1H4z M1 3h2v1H1z M4 3h1v1H4z M1 4h1v1H1z M3 4h1v1H3z M5 4h1v1H5z M0 5h1v1H0z M0 6h1v1H0z M0 7h1v1H0z M4 7h1v1H4z M0 8h2v1H0z M4 8h1v1H4z M6 8h2v1H6z M1 9h1v1H1z M4 9h1v1H4z M7 9h1v1H7z M1 10h1v1H1z M4 10h1v1H4z M7 10h1v1H7z M2 11h1v1H2z M4 11h2v1H4z M7 11h2v1H7z M2 12h1v1H2z M5 12h1v1H5z M8 12h1v1H8z"/>
</svg>
