<svg xmlns="http://www.w3.org/2000/svg" viewBox="0 0 25 25" width="25" height="25" shape-rendering="crispEdges" aria-hidden="true">
  <rect width="25" height="25" fill="#ffffff"/>
  <path fill="#808080" d="M24 2h1v1H24z M23 3h1v1H23z M22 4h1v1H22z M24 4h1v1H24z M23 5h2v1H23z M22 6h2v1H22z M20 7h3v1H20z M20 8h1v1H20z M23 8h2v1H23z M18 9h1v1H18z M22 9h3v1H22z M13 10h2v1H13z M16 10h3v1H16z M21 10h2v1H21z M12 11h3v1H12z M16 11h3v1H16z M24 11h1v1H24z M7 12h1v1H7z M11 12h4v1H11z M16 12h2v1H16z M22 12h3v1H22z M8 13h2v1H8z M11 13h2v1H11z M16 13h1v1H16z M18 13h2v1H18z M23 13h2v1H23z M6 14h4v1H6z M11 14h3v1H11z M17 14h3v1H17z M23 14h1v1H23z M3 15h2v1H3z M6 15h4v1H6z M12 15h3v1H12z M16 15h4v1H16z M21 15h1v1H21z M24 15h1v1H24z M0 16h2v1H0z M4 16h1v1H4z M6 16h5v1H6z M12 16h3v1H12z M16 16h3v1H16z M21 16h2v1H21z M0 17h3v1H0z M4 17h2v1H4z M7 17h4v1H7z M13 17h2v1H13z M16 17h2v1H16z M20 17h3v1H20z M2 18h2v1H2z M5 18h1v1H5z M7 18h5v1H7z M14 18h4v1H14z M20 18h4v1H20z M1 19h1v1H1z M3 19h1v1H3z M5 19h1v1H5z M7 19h6v1H7z M15 19h2v1H15z M18 19h1v1H18z M21 19h4v1H21z M1 20h2v1H1z M5 20h1v1H5z M7 20h4v1H7z M12 20h2v1H12z M15 20h1v1H15z M18 20h2v1H18z M21 20h4v1H21z M1 21h3v1H1z M5 21h2v1H5z M8 21h3v1H8z M12 21h2v1H12z M15 21h1v1H15z M17 21h3v1H17z M22 21h3v1H22z M0 22h1v1H0z M2 22h2v1H2z M6 22h1v1H6z M8 22h3v1H8z M12 22h3v1H12z M17 22h4v1H17z M22 22h3v1H22z M0 23h1v1H0z M3 23h2v1H3z M6 23h1v1H6z M8 23h8v1H8z M18 23h3v1H18z M22 23h3v1H22z M0 24h3v1H0z M4 24h1v1H4z M6 24h1v1H6z M8 24h4v1H8z M13 24h4v1H13z M18 24h3v1H18z M22 24h3v1H22z"/>
  <path fill="#000000" d="M24 0h1v1H24z M23 1h2v1H23z M22 2h2v1H22z M21 3h2v1H21z M24 3h1v1H24z M20 4h2v1H20z M23 4h1v1H23z M20 5h3v1H20z M19 6h3v1H19z M24 6h1v1H24z M18 7h2v1H18z M23 7h2v1H23z M16 8h4v1H16z M21 8h2v1H21z M14 9h4v1H14z M19 9h3v1H19z M10 10h3v1H10z M15 10h1v1H15z M19 10h2v1H19z M23 10h2v1H23z M8 11h4v1H8z M15 11h1v1H15z M19 11h5v1H19z M6 12h1v1H6z M8 12h3v1H8z M15 12h1v1H15z M18 12h4v1H18z M4 13h4v1H4z M10 13h1v1H10z M13 13h3v1H13z M17 13h1v1H17z M20 13h3v1H20z M1 14h5v1H1z M10 14h1v1H10z M14 14h3v1H14z M20 14h3v1H20z M24 14h1v1H24z M0 15h3v1H0z M5 15h1v1H5z M10 15h2v1H10z M15 15h1v1H15z M20 15h1v1H20z M22 15h2v1H22z M2 16h2v1H2z M5 16h1v1H5z M11 16h1v1H11z M15 16h1v1H15z M19 16h2v1H19z M23 16h2v1H23z M3 17h1v1H3z M6 17h1v1H6z M11 17h2v1H11z M15 17h1v1H15z M18 17h2v1H18z M23 17h2v1H23z M0 18h2v1H0z M4 18h1v1H4z M6 18h1v1H6z M12 18h2v1H12z M18 18h2v1H18z M24 18h1v1H24z M0 19h1v1H0z M2 19h1v1H2z M4 19h1v1H4z M6 19h1v1H6z M13 19h2v1H13z M17 19h1v1H17z M19 19h2v1H19z M0 20h1v1H0z M3 20h2v1H3z M6 20h1v1H6z M11 20h1v1H11z M14 20h1v1H14z M16 20h2v1H16z M20 20h1v1H20z M0 21h1v1H0z M4 21h1v1H4z M7 21h1v1H7z M11 21h1v1H11z M14 21h1v1H14z M16 21h1v1H16z M20 21h2v1H20z M1 22h1v1H1z M4 22h2v1H4z M7 22h1v1H7z M11 22h1v1H11z M15 22h2v1H15z M21 22h1v1H21z M1 23h2v1H1z M5 23h1v1H5z M7 23h1v1H7z M16 23h2v1H16z M21 23h1v1H21z M3 24h1v1H3z M5 24h1v1H5z M7 24h1v1H7z M12 24h1v1H12z M17 24h1v1H17z M21 24h1v1H21z"/>
</svg>
