<svg xmlns="http://www.w3.org/2000/svg" viewBox="0 0 25 25" width="25" height="25" shape-rendering="crispEdges" aria-hidden="true">
  <rect width="25" height="25" fill="#ffffff"/>
  <path fill="#808080" d="M0 0h9v1H0z M10 0h1v1H10z M0 1h1v1H0z M2 1h1v1H2z M4 1h2v1H4z M7 1h1v1H7z M11 1h1v1H11z M0 2h2v1H0z M3 2h1v1H3z M5 2h1v1H5z M9 2h1v1H9z M15 2h1v1H15z M18 2h1v1H18z M1 3h1v1H1z M3 3h1v1H3z M15 3h1v1H15z M2 4h1v1H2z M4 4h1v1H4z M7 4h1v1H7z M14 4h2v1H14z M18 4h3v1H18z M4 5h1v1H4z M13 5h3v1H13z M20 5h2v1H20z M1 6h1v1H1z M12 6h4v1H12z M18 6h2v1H18z M21 6h2v1H21z M11 7h5v1H11z M18 7h3v1H18z M22 7h2v1H22z M9 8h7v1H9z M20 8h2v1H20z M23 8h2v1H23z M8 9h8v1H8z M17 9h3v1H17z M21 9h2v1H21z M0 10h1v1H0z M2 10h1v1H2z M4 10h1v1H4z M6 10h10v1H6z M17 10h1v1H17z M19 10h3v1H19z M23 10h2v1H23z M3 11h12v1H3z M17 11h2v1H17z M21 11h2v1H21z M24 11h1v1H24z M0 12h1v1H0z M2 12h1v1H2z M4 12h11v1H4z M18 12h2v1H18z M21 12h3v1H21z M0 13h14v1H0z M16 13h2v1H16z M19 13h2v1H19z M22 13h2v1H22z M0 14h13v1H0z M17 14h1v1H17z M19 14h3v1H19z M23 14h1v1H23z M0 15h12v1H0z M14 15h2v1H14z M17 15h2v1H17z M20 15h3v1H20z M0 16h11v1H0z M15 16h2v1H15z M18 16h2v1H18z M21 16h2v1H21z M0 17h9v1H0z M12 17h2v1H12z M15 17h5v1H15z M22 17h1v1H22z M24 17h1v1H24z M0 18h7v1H0z M10 18h1v1H10z M12 18h3v1H12z M16 18h2v1H16z M19 18h2v1H19z M24 18h1v1H24z M0 19h5v1H0z M8 19h4v1H8z M13 19h2v1H13z M16 19h2v1H16z M19 19h2v1H19z M23 19h2v1H23z M6 20h1v1H6z M8 20h2v1H8z M11 20h1v1H11z M13 20h3v1H13z M17 20h2v1H17z M20 20h1v1H20z M23 20h2v1H23z M6 21h2v1H6z M9 21h1v1H9z M11 21h2v1H11z M14 21h2v1H14z M17 21h2v1H17z M23 21h2v1H23z M0 22h6v1H0z M7 22h1v1H7z M9 22h1v1H9z M11 22h2v1H11z M14 22h3v1H14z M21 22h1v1H21z M23 22h2v1H23z M0 23h6v1H0z M7 23h1v1H7z M9 23h1v1H9z M11 23h2v1H11z M14 23h3v1H14z M20 23h2v1H20z M23 23h2v1H23z M3 24h3v1H3z M7 24h1v1H7z M9 24h1v1H9z M11 24h3v1H11z M15 24h2v1H15z M19 24h1v1H19z M21 24h1v1H21z M23 24h2v1H23z"/>
  <path fill="#000000" d="M9 0h1v1H9z M11 0h7v1H11z M1 1h1v1H1z M3 1h1v1H3z M6 1h1v1H6z M8 1h3v1H8z M12 1h8v1H12z M2 2h1v1H2z M4 2h1v1H4z M6 2h3v1H6z M10 2h5v1H10z M16 2h2v1H16z M19 2h2v1H19z M0 3h1v1H0z M2 3h1v1H2z M4 3h11v1H4z M16 3h6v1H16z M0 4h2v1H0z M3 4h1v1H3z M5 4h2v1H5z M8 4h6v1H8z M16 4h2v1H16z M21 4h2v1H21z M0 5h4v1H0z M5 5h8v1H5z M16 5h4v1H16z M22 5h2v1H22z M0 6h1v1H0z M2 6h10v1H2z M16 6h2v1H16z M20 6h1v1H20z M23 6h2v1H23z M0 7h11v1H0z M16 7h2v1H16z M21 7h1v1H21z M24 7h1v1H24z M0 8h9v1H0z M16 8h4v1H16z M22 8h1v1H22z M0 9h8v1H0z M16 9h1v1H16z M20 9h1v1H20z M23 9h2v1H23z M1 10h1v1H1z M3 10h1v1H3z M5 10h1v1H5z M16 10h1v1H16z M18 10h1v1H18z M22 10h1v1H22z M0 11h1v1H0z M2 11h1v1H2z M15 11h2v1H15z M19 11h2v1H19z M23 11h1v1H23z M1 12h1v1H1z M3 12h1v1H3z M15 12h3v1H15z M20 12h1v1H20z M24 12h1v1H24z M14 13h2v1H14z M18 13h1v1H18z M21 13h1v1H21z M24 13h1v1H24z M13 14h4v1H13z M18 14h1v1H18z M22 14h1v1H22z M24 14h1v1H24z M12 15h2v1H12z M16 15h1v1H16z M19 15h1v1H19z M23 15h2v1H23z M11 16h4v1H11z M17 16h1v1H17z M20 16h1v1H20z M23 16h2v1H23z M9 17h3v1H9z M14 17h1v1H14z M20 17h2v1H20z M23 17h1v1H23z M7 18h3v1H7z M11 18h1v1H11z M15 18h1v1H15z M18 18h1v1H18z M21 18h3v1H21z M5 19h3v1H5z M12 19h1v1H12z M15 19h1v1H15z M18 19h1v1H18z M21 19h2v1H21z M0 20h6v1H0z M7 20h1v1H7z M10 20h1v1H10z M12 20h1v1H12z M16 20h1v1H16z M19 20h1v1H19z M21 20h2v1H21z M0 21h6v1H0z M8 21h1v1H8z M10 21h1v1H10z M13 21h1v1H13z M16 21h1v1H16z M19 21h4v1H19z M6 22h1v1H6z M8 22h1v1H8z M10 22h1v1H10z M13 22h1v1H13z M17 22h4v1H17z M22 22h1v1H22z M6 23h1v1H6z M8 23h1v1H8z M10 23h1v1H10z M13 23h1v1H13z M17 23h3v1H17z M22 23h1v1H22z M0 24h3v1H0z M6 24h1v1H6z M8 24h1v1H8z M10 24h1v1H10z M14 24h1v1H14z M17 24h2v1H17z M20 24h1v1H20z M22 24h1v1H22z"/>
</svg>
