<svg xmlns="http://www.w3.org/2000/svg" viewBox="0 0 25 25" width="25" height="25" shape-rendering="crispEdges" aria-hidden="true">
  <rect width="25" height="25" fill="#ffffff"/>
  <path fill="#808080" d="M0 0h3v1H0z M5 0h1v1H5z M9 0h2v1H9z M12 0h3v1H12z M16 0h3v1H16z M21 0h3v1H21z M0 1h3v1H0z M4 1h1v1H4z M6 1h1v1H6z M11 1h3v1H11z M16 1h3v1H16z M21 1h2v1H21z M0 2h3v1H0z M4 2h3v1H4z M8 2h1v1H8z M13 2h1v1H13z M15 2h4v1H15z M21 2h2v1H21z M0 3h4v1H0z M6 3h1v1H6z M8 3h5v1H8z M18 3h1v1H18z M21 3h4v1H21z M0 4h4v1H0z M5 4h2v1H5z M8 4h1v1H8z M10 4h5v1H10z M21 4h4v1H21z M0 5h4v1H0z M5 5h1v1H5z M8 5h1v1H8z M12 5h3v1H12z M16 5h3v1H16z M0 6h4v1H0z M5 6h1v1H5z M8 6h1v1H8z M10 6h1v1H10z M13 6h2v1H13z M16 6h3v1H16z M21 6h4v1H21z M0 7h4v1H0z M6 7h1v1H6z M8 7h1v1H8z M10 7h2v1H10z M14 7h1v1H14z M16 7h3v1H16z M0 8h4v1H0z M5 8h2v1H5z M8 8h1v1H8z M11 8h2v1H11z M14 8h1v1H14z M16 8h3v1H16z M21 8h4v1H21z M0 9h5v1H0z M8 9h1v1H8z M10 9h1v1H10z M12 9h3v1H12z M16 9h3v1H16z M0 10h5v1H0z M6 10h1v1H6z M8 10h1v1H8z M10 10h2v1H10z M13 10h2v1H13z M16 10h3v1H16z M21 10h2v1H21z M0 11h5v1H0z M6 11h1v1H6z M8 11h1v1H8z M10 11h3v1H10z M14 11h1v1H14z M16 11h3v1H16z M0 12h5v1H0z M6 12h1v1H6z M8 12h1v1H8z M10 12h5v1H10z M16 12h3v1H16z M21 12h2v1H21z"/>
  <path fill="#000000" d="M3 0h2v1H3z M6 0h3v1H6z M11 0h1v1H11z M15 0h1v1H15z M19 0h2v1H19z M24 0h1v1H24z M3 1h1v1H3z M5 1h1v1H5z M7 1h4v1H7z M14 1h2v1H14z M19 1h2v1H19z M23 1h2v1H23z M3 2h1v1H3z M7 2h1v1H7z M9 2h4v1H9z M14 2h1v1H14z M19 2h2v1H19z M23 2h2v1H23z M4 3h2v1H4z M7 3h1v1H7z M13 3h5v1H13z M19 3h2v1H19z M4 4h1v1H4z M7 4h1v1H7z M9 4h1v1H9z M15 4h6v1H15z M4 5h1v1H4z M6 5h2v1H6z M9 5h3v1H9z M15 5h1v1H15z M19 5h6v1H19z M4 6h1v1H4z M6 6h2v1H6z M9 6h1v1H9z M11 6h2v1H11z M15 6h1v1H15z M19 6h2v1H19z M4 7h2v1H4z M7 7h1v1H7z M9 7h1v1H9z M12 7h2v1H12z M15 7h1v1H15z M19 7h6v1H19z M4 8h1v1H4z M7 8h1v1H7z M9 8h2v1H9z M13 8h1v1H13z M15 8h1v1H15z M19 8h2v1H19z M5 9h3v1H5z M9 9h1v1H9z M11 9h1v1H11z M15 9h1v1H15z M19 9h6v1H19z M5 10h1v1H5z M7 10h1v1H7z M9 10h1v1H9z M12 10h1v1H12z M15 10h1v1H15z M19 10h2v1H19z M24 10h1v1H24z M5 11h1v1H5z M7 11h1v1H7z M9 11h1v1H9z M13 11h1v1H13z M15 11h1v1H15z M19 11h6v1H19z M5 12h1v1H5z M7 12h1v1H7z M9 12h1v1H9z M15 12h1v1H15z M19 12h2v1H19z M24 12h1v1H24z"/>
</svg>
