<svg xmlns="http://www.w3.org/2000/svg" viewBox="0 0 25 25" width="25" height="25" shape-rendering="crispEdges" aria-hidden="true">
  <rect width="25" height="25" fill="#ffffff"/>
  <path fill="#808080" d="M14 0h5v1H14z M20 0h4v1H20z M13 1h5v1H13z M19 1h6v1H19z M12 2h5v1H12z M18 2h2v1H18z M21 2h4v1H21z M11 3h10v1H11z M23 3h2v1H23z M11 4h4v1H11z M16 4h2v1H16z M19 4h3v1H19z M23 4h2v1H23z M11 5h11v1H11z M23 5h2v1H23z M11 6h7v1H11z M19 6h4v1H19z M24 6h1v1H24z M11 7h3v1H11z M21 7h2v1H21z M11 8h3v1H11z M20 8h1v1H20z M22 8h1v1H22z M11 9h2v1H11z M19 9h1v1H19z M21 9h3v1H21z M11 10h3v1H11z M20 10h4v1H20z M11 11h2v1H11z M19 11h1v1H19z M21 11h4v1H21z M11 12h2v1H11z M20 12h5v1H20z"/>
  <path fill="#000000" d="M11 0h3v1H11z M19 0h1v1H19z M24 0h1v1H24z M11 1h2v1H11z M18 1h1v1H18z M11 2h1v1H11z M17 2h1v1H17z M20 2h1v1H20z M21 3h2v1H21z M15 4h1v1H15z M18 4h1v1H18z M22 4h1v1H22z M22 5h1v1H22z M18 6h1v1H18z M23 6h1v1H23z M14 7h7v1H14z M23 7h2v1H23z M14 8h6v1H14z M21 8h1v1H21z M23 8h2v1H23z M13 9h6v1H13z M20 9h1v1H20z M24 9h1v1H24z M14 10h6v1H14z M24 10h1v1H24z M13 11h6v1H13z M20 11h1v1H20z M13 12h7v1H13z"/>
</svg>
