<svg xmlns="http://www.w3.org/2000/svg" viewBox="0 0 25 25" width="25" height="25" shape-rendering="crispEdges" aria-hidden="true">
  <rect width="25" height="25" fill="#ffffff"/>
  <path fill="#808080" d="M1 0h2v1H1z M4 0h3v1H4z M8 0h2v1H8z M11 0h4v1H11z M16 0h2v1H16z M19 0h6v1H19z M1 1h2v1H1z M4 1h3v1H4z M8 1h3v1H8z M12 1h3v1H12z M16 1h1v1H16z M18 1h7v1H18z M1 2h2v1H1z M4 2h3v1H4z M8 2h3v1H8z M12 2h3v1H12z M18 2h1v1H18z M20 2h5v1H20z M1 3h2v1H1z M5 3h2v1H5z M9 3h2v1H9z M15 3h10v1H15z M1 4h3v1H1z M5 4h2v1H5z M12 4h6v1H12z M19 4h6v1H19z M9 5h7v1H9z M17 5h2v1H17z M20 5h5v1H20z M0 6h18v1H0z M19 6h6v1H19z M0 7h6v1H0z M9 7h1v1H9z M11 7h1v1H11z M13 7h1v1H13z M15 7h10v1H15z M0 8h7v1H0z M10 8h1v1H10z M12 8h1v1H12z M14 8h11v1H14z M0 9h6v1H0z M9 9h1v1H9z M11 9h1v1H11z M13 9h1v1H13z M15 9h10v1H15z M0 10h7v1H0z M10 10h1v1H10z M12 10h1v1H12z M14 10h1v1H14z M16 10h9v1H16z M0 11h6v1H0z M9 11h1v1H9z M11 11h1v1H11z M13 11h1v1H13z M15 11h10v1H15z M0 12h7v1H0z M10 12h1v1H10z M12 12h1v1H12z M14 12h11v1H14z"/>
  <path fill="#000000" d="M0 0h1v1H0z M3 0h1v1H3z M7 0h1v1H7z M10 0h1v1H10z M15 0h1v1H15z M18 0h1v1H18z M0 1h1v1H0z M3 1h1v1H3z M7 1h1v1H7z M11 1h1v1H11z M15 1h1v1H15z M17 1h1v1H17z M0 2h1v1H0z M3 2h1v1H3z M7 2h1v1H7z M11 2h1v1H11z M15 2h3v1H15z M19 2h1v1H19z M0 3h1v1H0z M3 3h2v1H3z M7 3h2v1H7z M11 3h4v1H11z M0 4h1v1H0z M4 4h1v1H4z M7 4h5v1H7z M18 4h1v1H18z M0 5h9v1H0z M16 5h1v1H16z M19 5h1v1H19z M18 6h1v1H18z M6 7h3v1H6z M10 7h1v1H10z M12 7h1v1H12z M14 7h1v1H14z M7 8h3v1H7z M11 8h1v1H11z M13 8h1v1H13z M6 9h3v1H6z M10 9h1v1H10z M12 9h1v1H12z M14 9h1v1H14z M7 10h3v1H7z M11 10h1v1H11z M13 10h1v1H13z M15 10h1v1H15z M6 11h3v1H6z M10 11h1v1H10z M12 11h1v1H12z M14 11h1v1H14z M7 12h3v1H7z M11 12h1v1H11z M13 12h1v1H13z"/>
</svg>
