<svg xmlns="http://www.w3.org/2000/svg" viewBox="0 0 25 25" width="25" height="25" shape-rendering="crispEdges" aria-hidden="true">
  <rect width="25" height="25" fill="#ffffff"/>
  <path fill="#808080" d="M2 10h1v1H2z M2 11h2v1H2z M2 12h2v1H2z M5 12h2v1H5z M3 13h2v1H3z M6 13h1v1H6z M8 13h1v1H8z M0 14h1v1H0z M3 14h2v1H3z M7 14h2v1H7z M0 15h2v1H0z M3 15h3v1H3z M7 15h2v1H7z M10 15h1v1H10z M0 16h2v1H0z M4 16h3v1H4z M8 16h1v1H8z M10 16h1v1H10z M12 16h2v1H12z M0 17h3v1H0z M4 17h3v1H4z M10 17h1v1H10z M12 17h3v1H12z M0 18h4v1H0z M5 18h3v1H5z M9 18h2v1H9z M12 18h3v1H12z M16 18h1v1H16z M0 19h4v1H0z M6 19h2v1H6z M9 19h2v1H9z M12 19h3v1H12z M16 19h1v1H16z M18 19h2v1H18z M0 20h3v1H0z M4 20h1v1H4z M7 20h1v1H7z M9 20h2v1H9z M12 20h3v1H12z M17 20h1v1H17z M19 20h2v1H19z M0 21h3v1H0z M4 21h2v1H4z M8 21h8v1H8z M17 21h1v1H17z M20 21h1v1H20z M22 21h2v1H22z M0 22h2v1H0z M3 22h4v1H3z M8 22h2v1H8z M11 22h5v1H11z M17 22h2v1H17z M20 22h2v1H20z M23 22h2v1H23z M0 23h2v1H0z M3 23h3v1H3z M7 23h2v1H7z M12 23h4v1H12z M17 23h3v1H17z M21 23h1v1H21z M23 23h2v1H23z M0 24h2v1H0z M3 24h3v1H3z M7 24h1v1H7z M10 24h1v1H10z M13 24h3v1H13z M17 24h1v1H17z M19 24h1v1H19z M21 24h1v1H21z M23 24h2v1H23z"/>
  <path fill="#000000" d="M0 7h1v1H0z M0 8h1v1H0z M0 9h2v1H0z M0 10h2v1H0z M3 10h3v1H3z M0 11h2v1H0z M4 11h4v1H4z M0 12h2v1H0z M4 12h1v1H4z M7 12h3v1H7z M0 13h3v1H0z M5 13h1v1H5z M7 13h1v1H7z M9 13h2v1H9z M1 14h2v1H1z M5 14h2v1H5z M9 14h4v1H9z M2 15h1v1H2z M6 15h1v1H6z M9 15h1v1H9z M11 15h5v1H11z M2 16h2v1H2z M7 16h1v1H7z M9 16h1v1H9z M11 16h1v1H11z M14 16h4v1H14z M3 17h1v1H3z M7 17h3v1H7z M11 17h1v1H11z M15 17h5v1H15z M4 18h1v1H4z M8 18h1v1H8z M11 18h1v1H11z M15 18h1v1H15z M17 18h5v1H17z M4 19h2v1H4z M8 19h1v1H8z M11 19h1v1H11z M15 19h1v1H15z M17 19h1v1H17z M20 19h4v1H20z M3 20h1v1H3z M5 20h2v1H5z M8 20h1v1H8z M11 20h1v1H11z M15 20h2v1H15z M18 20h1v1H18z M21 20h4v1H21z M3 21h1v1H3z M6 21h2v1H6z M16 21h1v1H16z M18 21h2v1H18z M21 21h1v1H21z M24 21h1v1H24z M2 22h1v1H2z M7 22h1v1H7z M10 22h1v1H10z M16 22h1v1H16z M19 22h1v1H19z M22 22h1v1H22z M2 23h1v1H2z M6 23h1v1H6z M9 23h3v1H9z M16 23h1v1H16z M20 23h1v1H20z M22 23h1v1H22z M2 24h1v1H2z M6 24h1v1H6z M8 24h2v1H8z M11 24h1v1H11z M16 24h1v1H16z M18 24h1v1H18z M20 24h1v1H20z M22 24h1v1H22z"/>
</svg>
