<svg xmlns="http://www.w3.org/2000/svg" viewBox="0 0 25 25" width="25" height="25" shape-rendering="crispEdges" aria-hidden="true">
  <rect width="25" height="25" fill="#ffffff"/>
  <path fill="#808080" d="M0 0h16v1H0z M19 0h1v1H19z M21 0h1v1H21z M23 0h1v1H23z M0 1h17v1H0z M18 1h7v1H18z M0 2h16v1H0z M17 2h8v1H17z M0 3h24v1H0z M0 4h17v1H0z M18 4h6v1H18z M0 5h16v1H0z M17 5h7v1H17z M0 6h23v1H0z M24 6h1v1H24z M0 7h16v1H0z M18 7h1v1H18z M20 7h1v1H20z M22 7h1v1H22z M24 7h1v1H24z M0 8h7v1H0z M8 8h8v1H8z M19 8h1v1H19z M21 8h1v1H21z M24 8h1v1H24z M1 9h15v1H1z M18 9h1v1H18z M20 9h1v1H20z M22 9h1v1H22z M24 9h1v1H24z M0 10h7v1H0z M8 10h8v1H8z M19 10h1v1H19z M21 10h1v1H21z M24 10h1v1H24z M0 11h16v1H0z M18 11h1v1H18z M20 11h1v1H20z M22 11h1v1H22z M24 11h1v1H24z M0 12h16v1H0z M19 12h1v1H19z M21 12h1v1H21z M24 12h1v1H24z"/>
  <path fill="#000000" d="M16 0h3v1H16z M20 0h1v1H20z M22 0h1v1H22z M24 0h1v1H24z M17 1h1v1H17z M16 2h1v1H16z M24 3h1v1H24z M17 4h1v1H17z M24 4h1v1H24z M16 5h1v1H16z M24 5h1v1H24z M23 6h1v1H23z M16 7h2v1H16z M19 7h1v1H19z M21 7h1v1H21z M23 7h1v1H23z M7 8h1v1H7z M16 8h3v1H16z M20 8h1v1H20z M22 8h2v1H22z M0 9h1v1H0z M16 9h2v1H16z M19 9h1v1H19z M21 9h1v1H21z M23 9h1v1H23z M7 10h1v1H7z M16 10h3v1H16z M20 10h1v1H20z M22 10h2v1H22z M16 11h2v1H16z M19 11h1v1H19z M21 11h1v1H21z M23 11h1v1H23z M16 12h3v1H16z M20 12h1v1H20z M22 12h2v1H22z"/>
</svg>
