<svg xmlns="http://www.w3.org/2000/svg" viewBox="0 0 25 25" width="25" height="25" shape-rendering="crispEdges" aria-hidden="true">
  <rect width="25" height="25" fill="#ffffff"/>
  <path fill="#808080" d="M23 17h1v1H23z M21 18h4v1H21z M21 19h3v1H21z M19 20h6v1H19z M18 21h6v1H18z M18 22h7v1H18z M16 23h1v1H16z M19 23h5v1H19z M15 24h3v1H15z M20 24h5v1H20z"/>
  <path fill="#000000" d="M24 14h1v1H24z M22 15h3v1H22z M22 16h3v1H22z M20 17h3v1H20z M24 17h1v1H24z M19 18h2v1H19z M17 19h4v1H17z M24 19h1v1H24z M16 20h3v1H16z M14 21h4v1H14z M24 21h1v1H24z M14 22h4v1H14z M12 23h4v1H12z M17 23h2v1H17z M24 23h1v1H24z M12 24h3v1H12z M18 24h2v1H18z"/>
</svg>
