<svg xmlns="http://www.w3.org/2000/svg" viewBox="0 0 25 25" width="25" height="25" shape-rendering="crispEdges" aria-hidden="true">
  <rect width="25" height="25" fill="#ffffff"/>
  <path fill="#808080" d="M0 0h1v1H0z M2 0h1v1H2z M4 0h1v1H4z M6 0h1v1H6z M8 0h9v1H8z M21 0h1v1H21z M23 0h1v1H23z M0 1h18v1H0z M19 1h6v1H19z M0 2h9v1H0z M10 2h7v1H10z M18 2h1v1H18z M20 2h5v1H20z M0 3h25v1H0z M0 4h18v1H0z M19 4h6v1H19z M0 5h17v1H0z M18 5h1v1H18z M20 5h5v1H20z M0 6h18v1H0z M19 6h6v1H19z M1 7h1v1H1z M3 7h1v1H3z M5 7h1v1H5z M7 7h1v1H7z M9 7h8v1H9z M21 7h1v1H21z M23 7h1v1H23z M0 8h1v1H0z M2 8h1v1H2z M4 8h1v1H4z M6 8h1v1H6z M8 8h9v1H8z M20 8h1v1H20z M22 8h1v1H22z M24 8h1v1H24z M0 9h2v1H0z M3 9h1v1H3z M5 9h1v1H5z M7 9h1v1H7z M9 9h8v1H9z M21 9h1v1H21z M23 9h1v1H23z M2 10h1v1H2z M4 10h1v1H4z M6 10h1v1H6z M8 10h9v1H8z M20 10h1v1H20z M22 10h1v1H22z M24 10h1v1H24z M1 11h1v1H1z M3 11h1v1H3z M5 11h1v1H5z M7 11h1v1H7z M9 11h8v1H9z M21 11h1v1H21z M23 11h1v1H23z M2 12h1v1H2z M4 12h1v1H4z M6 12h1v1H6z M8 12h9v1H8z M20 12h1v1H20z M22 12h1v1H22z M24 12h1v1H24z"/>
  <path fill="#000000" d="M1 0h1v1H1z M3 0h1v1H3z M5 0h1v1H5z M7 0h1v1H7z M17 0h4v1H17z M22 0h1v1H22z M24 0h1v1H24z M18 1h1v1H18z M9 2h1v1H9z M17 2h1v1H17z M19 2h1v1H19z M18 4h1v1H18z M17 5h1v1H17z M19 5h1v1H19z M18 6h1v1H18z M0 7h1v1H0z M2 7h1v1H2z M4 7h1v1H4z M6 7h1v1H6z M8 7h1v1H8z M17 7h4v1H17z M22 7h1v1H22z M24 7h1v1H24z M1 8h1v1H1z M3 8h1v1H3z M5 8h1v1H5z M7 8h1v1H7z M17 8h3v1H17z M21 8h1v1H21z M23 8h1v1H23z M2 9h1v1H2z M4 9h1v1H4z M6 9h1v1H6z M8 9h1v1H8z M17 9h4v1H17z M22 9h1v1H22z M24 9h1v1H24z M0 10h2v1H0z M3 10h1v1H3z M5 10h1v1H5z M7 10h1v1H7z M17 10h3v1H17z M21 10h1v1H21z M23 10h1v1H23z M0 11h1v1H0z M2 11h1v1H2z M4 11h1v1H4z M6 11h1v1H6z M8 11h1v1H8z M17 11h4v1H17z M22 11h1v1H22z M24 11h1v1H24z M0 12h2v1H0z M3 12h1v1H3z M5 12h1v1H5z M7 12h1v1H7z M17 12h3v1H17z M21 12h1v1H21z M23 12h1v1H23z"/>
</svg>
