<svg xmlns="http://www.w3.org/2000/svg" viewBox="0 0 25 25" width="25" height="25" shape-rendering="crispEdges" aria-hidden="true">
  <rect width="25" height="25" fill="#ffffff"/>
  <path fill="#808080" d="M23 18h1v1H23z M20 19h2v1H20z M23 19h2v1H23z M19 20h3v1H19z M23 20h2v1H23z M18 21h4v1H18z M23 21h2v1H23z M16 22h7v1H16z M24 22h1v1H24z M15 23h8v1H15z M24 23h1v1H24z M16 24h7v1H16z M24 24h1v1H24z"/>
  <path fill="#000000" d="M24 15h1v1H24z M22 16h3v1H22z M20 17h5v1H20z M19 18h4v1H19z M24 18h1v1H24z M17 19h3v1H17z M22 19h1v1H22z M16 20h3v1H16z M22 20h1v1H22z M15 21h3v1H15z M22 21h1v1H22z M14 22h2v1H14z M23 22h1v1H23z M13 23h2v1H13z M23 23h1v1H23z M12 24h4v1H12z M23 24h1v1H23z"/>
</svg>
