<svg xmlns="http://www.w3.org/2000/svg" viewBox="0 0 25 25" width="25" height="25" shape-rendering="crispEdges" aria-hidden="true">
  <rect width="25" height="25" fill="#ffffff"/>
  <path fill="#808080" d="M24 5h1v1H24z M22 6h1v1H22z M21 7h1v1H21z M24 7h1v1H24z M22 8h3v1H22z M14 9h1v1H14z M21 9h2v1H21z M13 10h5v1H13z M19 10h1v1H19z M23 10h2v1H23z M12 11h5v1H12z M18 11h1v1H18z M20 11h1v1H20z M22 11h3v1H22z M9 12h9v1H9z M19 12h2v1H19z M22 12h1v1H22z M8 13h9v1H8z M18 13h1v1H18z M20 13h2v1H20z M24 13h1v1H24z M5 14h13v1H5z M19 14h3v1H19z M24 14h1v1H24z M2 15h15v1H2z M18 15h1v1H18z M20 15h3v1H20z M0 16h17v1H0z M19 16h5v1H19z M0 17h1v1H0z M2 17h1v1H2z M4 17h1v1H4z M6 17h1v1H6z M9 17h8v1H9z M21 17h1v1H21z M23 17h1v1H23z M1 18h1v1H1z M3 18h1v1H3z M5 18h1v1H5z M7 18h10v1H7z M20 18h1v1H20z M22 18h1v1H22z M24 18h1v1H24z M0 19h1v1H0z M2 19h1v1H2z M4 19h1v1H4z M6 19h1v1H6z M9 19h8v1H9z M21 19h1v1H21z M23 19h1v1H23z M1 20h1v1H1z M3 20h1v1H3z M5 20h1v1H5z M7 20h1v1H7z M9 20h8v1H9z M20 20h1v1H20z M22 20h1v1H22z M24 20h1v1H24z M0 21h1v1H0z M2 21h1v1H2z M4 21h1v1H4z M6 21h1v1H6z M8 21h9v1H8z M21 21h1v1H21z M23 21h1v1H23z M1 22h1v1H1z M3 22h1v1H3z M5 22h1v1H5z M7 22h1v1H7z M9 22h8v1H9z M20 22h1v1H20z M22 22h1v1H22z M24 22h1v1H24z M0 23h1v1H0z M2 23h1v1H2z M4 23h1v1H4z M6 23h1v1H6z M8 23h9v1H8z M21 23h1v1H21z M23 23h1v1H23z M1 24h1v1H1z M3 24h1v1H3z M5 24h1v1H5z M7 24h1v1H7z M9 24h8v1H9z M20 24h1v1H20z M22 24h1v1H22z M24 24h1v1H24z"/>
  <path fill="#000000" d="M23 4h2v1H23z M21 5h3v1H21z M19 6h3v1H19z M23 6h2v1H23z M18 7h3v1H18z M22 7h2v1H22z M16 8h6v1H16z M15 9h6v1H15z M23 9h2v1H23z M10 10h3v1H10z M18 10h1v1H18z M20 10h3v1H20z M8 11h4v1H8z M17 11h1v1H17z M19 11h1v1H19z M21 11h1v1H21z M6 12h3v1H6z M18 12h1v1H18z M21 12h1v1H21z M23 12h2v1H23z M2 13h6v1H2z M17 13h1v1H17z M19 13h1v1H19z M22 13h2v1H22z M0 14h5v1H0z M18 14h1v1H18z M22 14h2v1H22z M0 15h2v1H0z M17 15h1v1H17z M19 15h1v1H19z M23 15h2v1H23z M17 16h2v1H17z M24 16h1v1H24z M1 17h1v1H1z M3 17h1v1H3z M5 17h1v1H5z M7 17h2v1H7z M17 17h4v1H17z M22 17h1v1H22z M24 17h1v1H24z M0 18h1v1H0z M2 18h1v1H2z M4 18h1v1H4z M6 18h1v1H6z M17 18h3v1H17z M21 18h1v1H21z M23 18h1v1H23z M1 19h1v1H1z M3 19h1v1H3z M5 19h1v1H5z M7 19h2v1H7z M17 19h4v1H17z M22 19h1v1H22z M24 19h1v1H24z M0 20h1v1H0z M2 20h1v1H2z M4 20h1v1H4z M6 20h1v1H6z M8 20h1v1H8z M17 20h3v1H17z M21 20h1v1H21z M23 20h1v1H23z M1 21h1v1H1z M3 21h1v1H3z M5 21h1v1H5z M7 21h1v1H7z M17 21h4v1H17z M22 21h1v1H22z M24 21h1v1H24z M0 22h1v1H0z M2 22h1v1H2z M4 22h1v1H4z M6 22h1v1H6z M8 22h1v1H8z M17 22h3v1H17z M21 22h1v1H21z M23 22h1v1H23z M1 23h1v1H1z M3 23h1v1H3z M5 23h1v1H5z M7 23h1v1H7z M17 23h4v1H17z M22 23h1v1H22z M24 23h1v1H24z M0 24h1v1H0z M2 24h1v1H2z M4 24h1v1H4z M6 24h1v1H6z M8 24h1v1H8z M17 24h3v1H17z M21 24h1v1H21z M23 24h1v1H23z"/>
</svg>
