<svg xmlns="http://www.w3.org/2000/svg" viewBox="0 0 25 25" width="25" height="25" shape-rendering="crispEdges" aria-hidden="true">
  <rect width="25" height="25" fill="#ffffff"/>
  <path fill="#808080" d="M0 12h1v1H0z M0 13h3v1H0z M0 14h5v1H0z M0 15h7v1H0z M0 16h9v1H0z M0 17h11v1H0z M0 18h13v1H0z M0 19h15v1H0z M0 20h15v1H0z M0 21h7v1H0z M8 21h7v1H8z M18 21h2v1H18z M0 22h4v1H0z M5 22h11v1H5z M18 22h1v1H18z M20 22h1v1H20z M0 23h5v1H0z M6 23h1v1H6z M8 23h8v1H8z M19 23h1v1H19z M21 23h1v1H21z M0 24h16v1H0z M18 24h1v1H18z M20 24h1v1H20z M22 24h1v1H22z M24 24h1v1H24z"/>
  <path fill="#000000" d="M0 11h2v1H0z M1 12h3v1H1z M3 13h3v1H3z M5 14h3v1H5z M7 15h3v1H7z M9 16h3v1H9z M11 17h3v1H11z M13 18h4v1H13z M15 19h4v1H15z M15 20h6v1H15z M7 21h1v1H7z M15 21h3v1H15z M20 21h3v1H20z M4 22h1v1H4z M16 22h2v1H16z M19 22h1v1H19z M21 22h3v1H21z M5 23h1v1H5z M7 23h1v1H7z M16 23h3v1H16z M20 23h1v1H20z M22 23h3v1H22z M16 24h2v1H16z M19 24h1v1H19z M21 24h1v1H21z M23 24h1v1H23z"/>
</svg>
