<svg xmlns="http://www.w3.org/2000/svg" viewBox="0 0 25 25" width="25" height="25" shape-rendering="crispEdges" aria-hidden="true">
  <rect width="25" height="25" fill="#ffffff"/>
  <path fill="#808080" d="M0 0h1v1H0z M2 0h6v1H2z M12 0h3v1H12z M16 0h3v1H16z M20 0h3v1H20z M24 0h1v1H24z M0 1h10v1H0z M12 1h2v1H12z M15 1h4v1H15z M20 1h3v1H20z M24 1h1v1H24z M0 2h2v1H0z M3 2h1v1H3z M5 2h2v1H5z M8 2h3v1H8z M15 2h3v1H15z M20 2h3v1H20z M24 2h1v1H24z M0 3h16v1H0z M19 3h4v1H19z M24 3h1v1H24z M0 4h3v1H0z M4 4h6v1H4z M11 4h7v1H11z M24 4h1v1H24z M0 5h7v1H0z M8 5h13v1H8z M0 6h25v1H0z M0 7h1v1H0z M2 7h11v1H2z M14 7h11v1H14z M1 8h11v1H1z M13 8h1v1H13z M15 8h10v1H15z M0 9h1v1H0z M2 9h11v1H2z M14 9h11v1H14z M1 10h11v1H1z M13 10h1v1H13z M15 10h10v1H15z M0 11h13v1H0z M14 11h1v1H14z M16 11h9v1H16z M1 12h13v1H1z M15 12h10v1H15z"/>
  <path fill="#000000" d="M1 0h1v1H1z M8 0h4v1H8z M15 0h1v1H15z M19 0h1v1H19z M23 0h1v1H23z M10 1h2v1H10z M14 1h1v1H14z M19 1h1v1H19z M23 1h1v1H23z M2 2h1v1H2z M4 2h1v1H4z M7 2h1v1H7z M11 2h4v1H11z M18 2h2v1H18z M23 2h1v1H23z M16 3h3v1H16z M23 3h1v1H23z M3 4h1v1H3z M10 4h1v1H10z M18 4h6v1H18z M7 5h1v1H7z M21 5h4v1H21z M1 7h1v1H1z M13 7h1v1H13z M0 8h1v1H0z M12 8h1v1H12z M14 8h1v1H14z M1 9h1v1H1z M13 9h1v1H13z M0 10h1v1H0z M12 10h1v1H12z M14 10h1v1H14z M13 11h1v1H13z M15 11h1v1H15z M0 12h1v1H0z M14 12h1v1H14z"/>
</svg>
