<svg xmlns="http://www.w3.org/2000/svg" viewBox="0 0 25 25" width="25" height="25" shape-rendering="crispEdges" aria-hidden="true">
  <rect width="25" height="25" fill="#ffffff"/>
  <path fill="#808080" d="M4 0h2v1H4z M7 0h1v1H7z M9 0h2v1H9z M12 0h2v1H12z M15 0h1v1H15z M18 0h1v1H18z M21 0h1v1H21z M23 0h2v1H23z M0 1h2v1H0z M4 1h2v1H4z M7 1h1v1H7z M9 1h2v1H9z M12 1h2v1H12z M19 1h3v1H19z M23 1h2v1H23z M0 2h2v1H0z M4 2h2v1H4z M7 2h1v1H7z M9 2h2v1H9z M12 2h1v1H12z M16 2h1v1H16z M19 2h2v1H19z M23 2h2v1H23z M3 3h3v1H3z M7 3h1v1H7z M13 3h4v1H13z M19 3h1v1H19z M21 3h1v1H21z M23 3h2v1H23z M0 4h1v1H0z M2 4h4v1H2z M13 4h2v1H13z M16 4h1v1H16z M18 4h1v1H18z M20 4h2v1H20z M23 4h2v1H23z M8 5h2v1H8z M11 5h4v1H11z M16 5h1v1H16z M18 5h1v1H18z M20 5h2v1H20z M23 5h2v1H23z M0 6h6v1H0z M7 6h3v1H7z M11 6h3v1H11z M15 6h2v1H15z M19 6h2v1H19z M23 6h2v1H23z M7 7h3v1H7z M11 7h2v1H11z M14 7h2v1H14z M19 7h2v1H19z M22 7h3v1H22z M3 8h3v1H3z M7 8h3v1H7z M11 8h1v1H11z M13 8h3v1H13z M17 8h3v1H17z M22 8h3v1H22z M7 9h3v1H7z M11 9h4v1H11z M17 9h3v1H17z M22 9h3v1H22z M0 10h2v1H0z M4 10h2v1H4z M7 10h3v1H7z M11 10h3v1H11z M15 10h1v1H15z M17 10h2v1H17z M20 10h1v1H20z M22 10h3v1H22z M0 11h2v1H0z M7 11h3v1H7z M11 11h2v1H11z M14 11h2v1H14z M17 11h1v1H17z M20 11h1v1H20z M22 11h3v1H22z M4 12h2v1H4z M7 12h3v1H7z M11 12h1v1H11z M13 12h3v1H13z M17 12h1v1H17z M19 12h2v1H19z M22 12h3v1H22z"/>
  <path fill="#000000" d="M0 0h4v1H0z M6 0h1v1H6z M8 0h1v1H8z M11 0h1v1H11z M14 0h1v1H14z M16 0h2v1H16z M19 0h2v1H19z M22 0h1v1H22z M2 1h2v1H2z M6 1h1v1H6z M8 1h1v1H8z M11 1h1v1H11z M14 1h5v1H14z M22 1h1v1H22z M2 2h2v1H2z M6 2h1v1H6z M8 2h1v1H8z M11 2h1v1H11z M13 2h3v1H13z M17 2h2v1H17z M21 2h2v1H21z M0 3h3v1H0z M6 3h1v1H6z M8 3h5v1H8z M17 3h2v1H17z M20 3h1v1H20z M22 3h1v1H22z M6 4h6v1H6z M15 4h1v1H15z M17 4h1v1H17z M19 4h1v1H19z M22 4h1v1H22z M0 5h8v1H0z M10 5h1v1H10z M15 5h1v1H15z M17 5h1v1H17z M19 5h1v1H19z M22 5h1v1H22z M6 6h1v1H6z M10 6h1v1H10z M14 6h1v1H14z M17 6h2v1H17z M21 6h2v1H21z M0 7h7v1H0z M10 7h1v1H10z M13 7h1v1H13z M16 7h3v1H16z M21 7h1v1H21z M0 8h3v1H0z M6 8h1v1H6z M10 8h1v1H10z M12 8h1v1H12z M16 8h1v1H16z M20 8h2v1H20z M0 9h7v1H0z M10 9h1v1H10z M15 9h2v1H15z M20 9h2v1H20z M2 10h2v1H2z M6 10h1v1H6z M10 10h1v1H10z M14 10h1v1H14z M16 10h1v1H16z M19 10h1v1H19z M21 10h1v1H21z M2 11h5v1H2z M10 11h1v1H10z M13 11h1v1H13z M16 11h1v1H16z M18 11h2v1H18z M21 11h1v1H21z M0 12h4v1H0z M6 12h1v1H6z M10 12h1v1H10z M12 12h1v1H12z M16 12h1v1H16z M18 12h1v1H18z M21 12h1v1H21z"/>
</svg>
