<svg version="1.0" xmlns="http://www.w3.org/2000/svg" width="40pt" height="40pt" viewBox="0 0 1024 1024"><rect width="1024" height="1024" fill="#fafff8"/><path fill="#03185d" d="M844 109.4c-1.9.7-11.8 5.7-22 11.1s-26.4 14-36 19c-60.2 31.7-71.9 38.1-75.7 41.1-7 5.7-8.7 10.6-9.1 26.5-.4 12.3-.2 14 1.8 18.8 2.6 5.8 8.7 11.8 15.8 15.3 3.9 1.9 6.3 2.3 13.7 2.3 8.6 0 9.4-.2 17.5-4.2 4.6-2.4 8.8-3.9 9.2-3.5.5.5.7 36.5.6 80.2l-.3 79.4-5.5 3.1c-3 1.8-13.7 7.6-23.7 13-26.4 14.3-28.3 16.6-29.1 35.1-.6 15.3.9 20.5 8.1 27 7.1 6.6 16 9.8 25.5 9.2 7.3-.4 10.8-1.9 41.2-18.3 13.1-7 19.5-10.4 72.9-38.6 29.1-15.3 34.4-19.4 37.7-28.9 2.8-8.2 2.6-22.9-.4-29.2-2.7-5.4-10.1-12.7-16.1-15.7-9-4.6-20.5-4.5-30.2.4-2.6 1.4-5.3 2.5-5.9 2.5-.7 0-1-25.9-1-81v-81l3.8-2.7c2.1-1.6 11.5-6.9 20.7-11.8 25.9-13.8 30.9-20 30.9-38.1 0-7-.4-9-3-14-3.4-6.9-12-14.4-19.2-16.9-5.5-1.8-17.3-1.9-22.2-.1m-597 1.5c-3 .9-10.7 4.5-17 7.8s-20.7 10.9-32 16.8c-53.3 28-56.5 30-61.9 37.8-1.6 2.4-3.9 7.1-5 10.5-2.1 6.1-2.1 7.3-2.1 144v137.8l2.6 5.2c4.6 9.3 14.6 14.2 28.8 14.2 15.3 0 27.2-5.5 31.8-14.8 2.3-4.6 2.3-5.4 2.8-44.7l.5-39.9 20.8-10.7c11.4-6 21.6-11.1 22.6-11.4 1.9-.6 1.9.4 2.3 22.2.3 21.9.4 23 2.7 27 5.2 9.1 16.6 13.9 31.1 13.1 13.8-.8 25.7-7.5 29.1-16.5.6-1.6 1.2-51 1.6-129.7.7-140.1.8-136-5.4-146.3-4.3-7.3-8.3-11.4-15.7-16.4-11.2-7.5-25.7-9.8-37.6-6m-5.2 123.8-.5 47.8-3 2.4c-1.6 1.3-12.2 7-23.4 12.7-17.6 9-20.5 10.1-21.1 8.6-.3-.9-.4-20.8-.2-44.2.5-41.6.5-42.6 2.7-47 1.4-2.6 4.3-6 7-8 5.2-3.9 35.4-20 37.6-20 1.2 0 1.3 7.4.9 47.7M361 117.5c-10.8 3.1-18.8 9.4-22.8 18.3-1.6 3.4-1.7 15.4-1.7 165.2v161.5l2.8 5.6c6.4 13 20.6 21 40.2 22.5 14.8 1.1 18.2-.1 65.1-23.5 37.5-18.7 42.6-21.5 46.1-25.5 5.2-5.9 6.8-11.6 6.8-24.1 0-8.9-.3-10.6-2.8-15.7-3.2-6.6-8.8-11.7-16.6-15.4-4.6-2.2-6.5-2.5-13.1-2.2-7.6.3-8.1.5-29.9 11.6-12.2 6.1-22.9 11.2-23.7 11.2-1.2 0-1.4-17.7-1.4-134.2 0-133.4 0-134.2-2.1-138.4-2.7-5.7-8.7-10.9-16.8-14.7-5.6-2.7-8-3.2-15.6-3.4-5.8-.2-10.9.3-14.5 1.2m183.8-.5c-10.1 2.5-20 9.9-24.5 18.2-1.7 3.1-1.8 11.2-2.1 163.8-.3 184.1-1.1 167.3 9.1 177.4 10.1 10 21.1 14 38.2 14 12.5 0 17.8-1.5 34.9-10.1 27.5-13.7 69.2-35.7 72.5-38.1 5.4-4 7-9 7.3-22.8.2-11.3.1-12.4-2.5-17.6-3-6.2-8.3-11.5-14.9-15-3.6-1.9-5.8-2.3-14-2.3h-9.6l-22.1 11.2c-12.1 6.2-22.7 11.3-23.5 11.3-1.3 0-1.6-1.4-1.6-7.3 0-3.9-.2-64.6-.3-134.7-.2-120.7-.3-127.7-2-130.8-3-5.5-9.5-11.2-16.5-14.5-5.7-2.7-8-3.2-15.7-3.4-4.9-.1-10.7.2-12.7.7m288.5 351.4c-14 3.2-24 10.3-28.7 20.5l-2.1 4.6-.3 124.4c-.2 93.5-.5 124.8-1.4 125.9-1.9 2.2-17 9.4-17.9 8.5-.5-.5-1-42.5-1.1-93.3l-.3-92.5-2.4-5.2c-4.1-9.3-12.4-14.8-32.6-21.8-15.7-5.4-24.5-3.6-49 10-8.2 4.6-23.2 12.1-33.3 16.8-20.8 9.7-26.5 13.1-34.1 20.2-6.4 6-10.6 13.9-12.1 22.6-.7 4.5-1 47.8-.8 143.4l.3 137 2.9 5.3c7.5 13.4 23.9 20.3 40.3 16.9 14.3-3.1 24.2-9.7 28.4-19l2.4-5.2.5-129.8c.5-128.4.5-129.9 2.5-131.4 3.3-2.5 21.8-11.3 22.4-10.7.3.3.8 43.6 1.1 96.2l.5 95.7 2.4 5.2c4.4 9.8 16.9 18.7 30 21.4 3 .6 9.1.9 13.6.7l8-.5 41.5-20.8c22.8-11.4 43.4-22 45.7-23.6 6.1-4.2 10.9-10.4 13.5-17.3l2.3-6.1.3-133.9c.2-87.2-.1-135.8-.8-139.4-3.5-19.2-20.8-29.5-41.7-24.8M518 508.1c-8.6.9-11.4 2.1-44.5 18.7-65 32.4-73.4 37.3-82.3 48.2-5.5 6.7-9.9 15.7-11.1 23-.6 3.2-1.1 61.2-1.3 140.5l-.3 135 2.7 5.7c5.2 11.2 18.5 20.9 32.6 23.9 8.4 1.7 22.5.7 29.2-2.2 8.6-3.6 121-61.8 125.6-65 5.7-3.9 10.1-9.2 11.4-13.6.8-2.7 1-43.6.8-140.3l-.3-136.5-2.2-5.5c-8.2-20.1-35.7-34.7-60.3-31.9m-7.5 285.5c-1.9 1.4-56 29.4-56.9 29.4-.3 0-.6-47.4-.6-105.4V612.1l2.3-2.5c1.2-1.5 14-8.5 29.2-16l27-13.3.3 106.1c.2 92.8 0 106.2-1.3 107.2M275 510.5c-9.2 3.2-93 44.7-101.9 50.5s-15.4 12.9-19.6 21.3c-6.5 13.2-6.6 14.8-6.3 82 .3 59.6.3 60.2 2.5 65 7.8 16.9 38.4 29 58.3 23.1 5.3-1.6 51.5-24.3 61.7-30.4 5.1-3.1 5.2-3.1 6.3-1 .7 1.4 1 12.5.8 35.4l-.3 33.4-2.5 2.8c-1.4 1.5-10.3 6.4-19.7 11-9.5 4.6-20.3 10.1-24 12.3-10.7 6.3-11.2 6.2-14.8-1.2-8.3-17.2-30.6-21.6-53.2-10.6-4.5 2.2-9.3 5.1-10.8 6.5l-2.6 2.4.3 25.8c.3 23.8.5 26.1 2.6 31.2 4.6 11.5 16.6 22.8 29.9 28.1 4.8 1.9 7.7 2.4 16.4 2.4h10.6l13.9-6.8c18.9-9.3 82.2-42 90.9-47 12.5-7.2 23.2-20.1 28-33.8 3.1-8.8 3.5-17.5 3.6-75.2 0-56.1-.1-58.4-2-64.7-2.7-8.3-7.5-14.9-15.2-20.5-16.3-12-33.2-16.1-49.4-12-5.6 1.4-29.8 12.9-50.8 24.1-7.2 3.8-9.1 4.4-9.8 3.3-1-1.6-1.2-47.9-.3-52.8.9-4.5 5.7-8.7 15.4-13.3 4.7-2.3 16.6-8.1 26.5-13l18-8.9.5 11.8c.3 6.5 1 12.7 1.7 13.9 3.6 6.2 21.5 14.3 37.6 16.9 16 2.6 25.1 1.6 26.3-2.9.3-1.1.4-18.5.2-38.6l-.3-36.5-2.8-5.8c-5.3-10.6-18.2-21.4-32.9-27.5-9.5-3.9-22.7-4.2-32.8-.7"/></svg>
