<svg xmlns="http://www.w3.org/2000/svg" xml:space="preserve" viewBox="0 0 522 522"><path fill="#FFF" d="M0 0h522v522H0z"/><path d="M198 47.813q0 2.566-1.81 4.376T191.812 54h-5.625q-2.567 0-4.377-1.81T180 47.812v-5.626q0-2.566 1.81-4.376t4.378-1.81h5.625q2.568 0 4.377 1.81 1.81 1.812 1.81 4.378zm54-5.625q0-2.567-1.81-4.377T245.812 36h-5.625q-2.567 0-4.377 1.81C234 39.622 234 40.478 234 42.188v5.626q0 .14.035.421H234V54h18v-5.766h-.035q.035-.28.035-.422zm54 0q0-2.567-1.81-4.377T299.812 36h-5.625q-2.567 0-4.377 1.81C288 39.622 288 40.478 288 42.188v5.626q0 .14.035.421H288V54h18v-5.766h-.035q.035-.28.035-.422zm36 0q0-2.567-1.81-4.377T335.812 36h-5.625q-2.567 0-4.377 1.81C324 39.622 324 40.478 324 42.188v5.626q0 .14.035.421H324V54h18v-5.766h-.035q.035-.28.035-.422zm-108 18V54h-11.812q-2.567 0-4.377 1.81C216 57.622 216 58.478 216 60.188v5.626q0 2.566 1.81 4.376t4.378 1.81H234zM234 54h18v18h-18zm54 6.188V54h-11.812q-2.567 0-4.377 1.81C270 57.622 270 58.478 270 60.188V72h18zM288 54h18v18h-18zm36 0h18v18h-18zM198 83.813q0 2.566-1.81 4.376T191.812 90h-5.625q-2.567 0-4.377-1.81T180 83.812v-5.626q0-2.566 1.81-4.376t4.378-1.81h5.625q2.568 0 4.377 1.81 1.81 1.812 1.81 4.378zm53.965-6.047H252V72h-18v5.766h.035q-.035.28-.035.421v5.626q0 2.566 1.81 4.376T240.188 90h5.625q2.567 0 4.377-1.81t1.81-4.378v-5.626q0-.14-.035-.421M270 72h18v18h-18zm18 0h18v18h-18zm18 0h18v18h-18zm36 0h-18v18h11.813q2.566 0 4.376-1.81T342 83.812zM216 96.188V90h-11.812q-2.567 0-4.377 1.81C198 93.622 198 94.478 198 96.188v5.626q0 2.566 1.81 4.376t4.377 1.811H216zm18 0q0-2.567-1.81-4.377T227.812 90H216v18h18zm36 0V90h-11.812q-2.567 0-4.377 1.81C252 93.622 252 94.478 252 96.188v5.626q0 2.566 1.81 4.376t4.377 1.811H270zM270 90h18v18h-18zm18 0h18v18h-18zm-72 18h18v18h-18zm72 0h-18v11.813q0 2.566 1.81 4.376t4.377 1.811H288zm0 0h18v18h-18zm-90 24.188q0-2.567-1.81-4.377T191.812 126h-5.625q-2.567 0-4.377 1.81c-1.81 1.811-1.811 2.667-1.811 4.377v5.625q0 .141.035.422H180V144h18v-5.766h-.035q.035-.28.035-.422zM216 126h18v18h-18zm29.813 0H234v18h11.813q2.566 0 4.376-1.81t1.811-4.377v-5.625q0-2.567-1.81-4.377T245.812 126M288 126h18v18h-18zm54 6.188q0-2.567-1.81-4.377T335.812 126h-5.625q-2.567 0-4.377 1.81c-1.81 1.811-1.811 2.667-1.811 4.377v5.625q0 .141.035.422H324V144h18v-5.766h-.035q.035-.28.035-.422zm-144.035 17.578H198V144h-18v5.766h.035q-.035.28-.035.422v5.625q0 2.566 1.81 4.376t4.377 1.811h5.625q2.567 0 4.377-1.81t1.811-4.377v-5.625q0-.141-.035-.422m36 0H234V144h-18v5.766h.035q-.035.28-.035.422v5.625q0 2.566 1.81 4.376t4.377 1.811h5.625q2.567 0 4.377-1.81t1.811-4.377v-5.625q0-.141-.035-.422M270 155.813q0 2.566-1.81 4.376T263.812 162h-5.625q-2.567 0-4.377-1.81-1.811-1.81-1.811-4.377v-5.625q0-2.567 1.81-4.377Q255.62 144 258.186 144h5.625q2.568 0 4.377 1.81 1.81 1.811 1.811 4.377zm35.965-6.047H306V144h-18v5.766h.035q-.035.28-.035.422v5.625q0 2.566 1.81 4.376t4.377 1.811h5.625q2.567 0 4.377-1.81t1.811-4.377v-5.625q0-.141-.035-.422m36 0H342V144h-18v5.766h.035q-.035.28-.035.422v5.625q0 2.566 1.81 4.376t4.377 1.811h5.625q2.567 0 4.377-1.81t1.811-4.377v-5.625q0-.141-.035-.422M216 168.188q0-2.567-1.81-4.377T209.812 162h-5.625q-2.567 0-4.377 1.81c-1.81 1.811-1.811 2.667-1.811 4.377v5.625q0 .141.035.422H198V180h18v-5.766h-.035q.035-.28.035-.422zm36 5.625q0 2.566-1.81 4.376T245.812 180h-5.625q-2.567 0-4.377-1.81-1.811-1.81-1.811-4.377v-5.625q0-2.567 1.81-4.377Q237.62 162 240.186 162h5.625q2.568 0 4.377 1.81 1.81 1.811 1.811 4.377zm-198 18q0 2.566-1.81 4.376T47.812 198h-5.626q-2.566 0-4.376-1.81T36 191.812v-5.625q0-2.567 1.81-4.377 1.812-1.81 4.378-1.81h5.626q2.567 0 4.376 1.81t1.81 4.378zm36-5.625q0-2.567-1.81-4.377T83.812 180h-5.626q-2.566 0-4.376 1.81C72 183.622 72 184.478 72 186.188v5.625q0 .141.035.422H72V198h18v-5.766h-.035q.035-.28.035-.422zm72 0V180h-11.812q-2.567 0-4.377 1.81c-1.81 1.811-1.811 2.667-1.811 4.377v5.625q0 2.567 1.81 4.377t4.377 1.811H162zm18 0q0-2.567-1.81-4.377T173.812 180H162v18h18zM216 180h-18v11.813q0 2.566 1.81 4.376t4.377 1.811H216zm18 6.188q0-2.567-1.81-4.377T227.812 180H216v18h18zm36 0q0-2.567-1.81-4.377T263.812 180h-5.625q-2.567 0-4.377 1.81c-1.81 1.811-1.811 2.667-1.811 4.377v5.625q0 .141.035.422H252V198h18v-5.766h-.035q.035-.28.035-.422zm126 0q0-2.567-1.81-4.377T389.812 180h-5.625q-2.567 0-4.377 1.81c-1.81 1.811-1.811 2.667-1.811 4.377v5.625q0 .141.035.422H378V198h18v-5.766h-.035q.035-.28.035-.422zm54 5.625q0 2.566-1.81 4.376T443.812 198h-5.625q-2.567 0-4.377-1.81-1.811-1.81-1.811-4.377v-5.625q0-2.567 1.81-4.377Q435.62 180 438.186 180h5.625q2.568 0 4.377 1.81 1.81 1.811 1.811 4.377zm36-5.625q0-2.567-1.81-4.377T479.812 180h-5.625q-2.567 0-4.377 1.81c-1.81 1.811-1.811 2.667-1.811 4.377v5.625q0 .141.035.422H468V198h18v-5.766h-.035q.035-.28.035-.422zM89.965 203.766H90V198H72v5.766h.035q-.035.28-.035.422v5.625q0 2.566 1.81 4.376T78.188 216h5.626q2.566 0 4.376-1.81t1.81-4.378v-5.625q0-.141-.035-.422m36.035.423q0-2.567-1.81-4.377T119.812 198h-5.626q-2.566 0-4.376 1.81c-1.81 1.811-1.811 2.667-1.811 4.377v5.625q0 .141.035.422H108V216h18v-5.766h-.035q.035-.28.035-.422zm53.965-.422H180V198h-18v5.766h.035q-.035.28-.035.422v5.625q0 2.566 1.81 4.376t4.377 1.811h5.625q2.567 0 4.377-1.81t1.811-4.377v-5.625q0-.141-.035-.422M216 198h18v18h-18zm36 0h18v18h-18zm72 6.188V198h-11.812q-2.567 0-4.377 1.81c-1.81 1.811-1.811 2.667-1.811 4.377V216h18zM335.813 198H324v18h11.813q2.566 0 4.376-1.81t1.811-4.377v-5.625q0-2.567-1.81-4.377T335.812 198M378 204.188V198h-11.812q-2.567 0-4.377 1.81c-1.81 1.811-1.811 2.667-1.811 4.377v5.625q0 2.567 1.81 4.377t4.377 1.811H378zM396 198h-18v18h11.813q2.566 0 4.376-1.81t1.811-4.377zm36 6.188q0-2.567-1.81-4.377T425.812 198h-5.625q-2.567 0-4.377 1.81c-1.81 1.811-1.811 2.667-1.811 4.377v5.625q0 .141.035.422H414V216h18v-5.766h-.035q.035-.28.035-.422zm36 0V198h-11.812q-2.567 0-4.377 1.81c-1.81 1.811-1.811 2.667-1.811 4.377v5.625q0 2.567 1.81 4.377t4.377 1.811H468zm0-6.188h18v18h-18zM72 222.188q0-2.567-1.81-4.377T65.812 216h-5.626q-2.566 0-4.376 1.81C54 219.622 54 220.478 54 222.188v5.625q0 .141.035.422H54V234h18v-5.766h-.035q.035-.28.035-.422zM108 216h18v18h-18zm54 11.813q0 2.566-1.81 4.376T155.812 234h-5.625q-2.567 0-4.377-1.81-1.811-1.81-1.811-4.377v-5.625q0-2.567 1.81-4.377Q147.62 216 150.186 216h5.625q2.568 0 4.377 1.81 1.81 1.811 1.811 4.377zm54-5.625V216h-11.812q-2.567 0-4.377 1.81c-1.81 1.811-1.811 2.667-1.811 4.377v5.625q0 2.567 1.81 4.377t4.377 1.811H216zm0-6.188h18v18h-18zm54 0h-18v11.813q0 2.566 1.81 4.376t4.377 1.811H270zm11.813 0H270v18h11.813q2.566 0 4.376-1.81t1.811-4.377v-5.625q0-2.567-1.81-4.377T281.812 216M306 216h18v18h-18zm54 6.188q0-2.567-1.81-4.377T353.812 216h-5.625q-2.567 0-4.377 1.81c-1.81 1.811-1.811 2.667-1.811 4.377v5.625q0 .141.035.422H342V234h18v-5.766h-.035q.035-.28.035-.422zM414 216h18v18h-18zm29.813 0H432v18h11.813q2.566 0 4.376-1.81t1.811-4.377v-5.625q0-2.567-1.81-4.377T443.812 216m42.153 5.766H486V216h-18v5.766h.035q-.035.28-.035.422v5.625q0 2.566 1.81 4.376t4.377 1.811h5.625q2.567 0 4.377-1.81t1.811-4.377v-5.625q0-.141-.035-.422M54 240.188V234H42.188q-2.567 0-4.377 1.81C36 237.622 36 238.478 36 240.188v5.625q0 2.567 1.81 4.377t4.378 1.81H54zM54 234h18v18H54zm29.813 0H72v18h11.813q2.566 0 4.376-1.81T90 245.812v-5.625q0-2.567-1.81-4.377T83.812 234m42.153 5.766H126V234h-18v5.766h.035q-.035.28-.035.422v5.625q0 2.566 1.81 4.376t4.377 1.811h5.626q2.566 0 4.376-1.81t1.811-4.377v-5.625q0-.141-.035-.422M180 245.813q0 2.566-1.81 4.376T173.812 252h-5.625q-2.567 0-4.377-1.81-1.811-1.81-1.811-4.377v-5.625q0-2.567 1.81-4.377Q165.62 234 168.186 234h5.625q2.568 0 4.377 1.81 1.81 1.811 1.811 4.377zM216 234h18v18h-18zm29.813 0H234v18h11.813q2.566 0 4.376-1.81t1.811-4.377v-5.625q0-2.567-1.81-4.377T245.812 234M306 240.188V234h-11.812q-2.567 0-4.377 1.81c-1.81 1.811-1.811 2.667-1.811 4.377v5.625q0 2.567 1.81 4.377t4.377 1.811H306zm0-6.188h18v18h-18zm54 0h-18v11.813q0 2.566 1.81 4.376t4.377 1.811H360zm18 6.188q0-2.567-1.81-4.377T371.812 234H360v18h18zm53.965-.422H432V234h-18v5.766h.035q-.035.28-.035.422v5.625q0 2.566 1.81 4.376t4.377 1.811h5.625q2.567 0 4.377-1.81t1.811-4.377v-5.625q0-.141-.035-.422M54 252h18v18H54zm54 11.813q0 2.566-1.81 4.376T101.812 270h-5.626q-2.566 0-4.376-1.81T90 263.812v-5.625q0-2.567 1.81-4.377 1.812-1.81 4.378-1.81h5.626q2.567 0 4.376 1.81t1.811 4.377zm36-5.625V252h-11.812q-2.567 0-4.377 1.81c-1.81 1.811-1.811 2.667-1.811 4.377v5.625q0 2.567 1.81 4.377t4.377 1.811H144zM155.813 252H144v18h11.813q2.566 0 4.376-1.81t1.811-4.377v-5.625q0-2.567-1.81-4.377T155.812 252M216 258.188V252h-11.812q-2.567 0-4.377 1.81c-1.81 1.811-1.811 2.667-1.811 4.377V270h18zM234 252h-18v18h11.813q2.566 0 4.376-1.81t1.811-4.377zm36 6.188q0-2.567-1.81-4.377T263.812 252h-5.625q-2.567 0-4.377 1.81c-1.81 1.811-1.811 2.667-1.811 4.377v5.625q0 .141.035.422H252V270h18v-5.766h-.035q.035-.28.035-.421zM306 252h18v18h-18zm54 0h18v18h-18zm126 6.188q0-2.567-1.81-4.377T479.812 252h-5.625q-2.567 0-4.377 1.81c-1.81 1.811-1.811 2.667-1.811 4.377v5.625q0 .141.035.422H468V270h18v-5.766h-.035q.035-.28.035-.421zM54 270h18v18H54zm29.813 0H72v18h11.813q2.566 0 4.376-1.81T90 281.812v-5.625q0-2.567-1.81-4.377T83.812 270M126 276.188q0-2.567-1.81-4.377T119.812 270h-5.626q-2.566 0-4.376 1.81c-1.81 1.811-1.811 2.667-1.811 4.377v5.625q0 .141.035.422H108V288h18v-5.766h-.035q.035-.28.035-.421zm72 0V270h-11.812q-2.567 0-4.377 1.81c-1.81 1.811-1.811 2.667-1.811 4.377V288h18zM216 270h-18v18h11.813q2.566 0 4.376-1.81t1.811-4.377zm36 0h18v18h-18zm54 6.188V270h-11.812q-2.567 0-4.377 1.81c-1.81 1.811-1.811 2.667-1.811 4.377v5.625q0 2.567 1.81 4.377t4.377 1.811H306zm0-6.188h18v18h-18zm18 0h18v18h-18zm18 0h18v18h-18zm18 0h18v18h-18zm29.813 0H378v18h11.813q2.566 0 4.376-1.81t1.811-4.377v-5.625q0-2.567-1.81-4.377T389.812 270M468 276.188V270h-11.812q-2.567 0-4.377 1.81c-1.81 1.811-1.811 2.667-1.811 4.377v5.625q0 2.567 1.81 4.377t4.377 1.811H468zm0-6.188h18v18h-18zM54 294.188V288H42.188q-2.567 0-4.377 1.81C36 291.622 36 292.478 36 294.188v5.625q0 2.567 1.81 4.377t4.378 1.81H54zM72 288H54v18h11.813q2.566 0 4.376-1.81T72 299.812zm54 0h-18v11.813q0 2.566 1.81 4.376t4.377 1.811H126zm0 0h18v18h-18zm18 0h18v18h-18zm18 0h18v18h-18zm18 0h18v18h-18zm54 6.188q0-2.567-1.81-4.377T227.812 288h-5.625q-2.567 0-4.377 1.81c-1.81 1.811-1.811 2.667-1.811 4.377v5.625q0 .141.035.422H216V306h18v-5.766h-.035q.035-.28.035-.421zM252 288h18v18h-18zm54 0h18v18h-18zm18 0h18v18h-18zm18 0h18v18h-18zm18 0h18v18h-18zm72 6.188V288h-11.812q-2.567 0-4.377 1.81c-1.81 1.811-1.811 2.667-1.811 4.377V306h18zM443.813 288H432v18h11.813q2.566 0 4.376-1.81t1.811-4.377v-5.625q0-2.567-1.81-4.377T443.812 288m42.153 5.766H486V288h-18v5.766h.035q-.035.28-.035.421v5.625q0 2.567 1.81 4.377t4.377 1.811h5.625q2.567 0 4.377-1.81t1.811-4.377v-5.625q0-.141-.035-.422M90 312.188q0-2.567-1.81-4.377T83.812 306h-5.626q-2.566 0-4.376 1.81C72 309.622 72 310.478 72 312.188v5.625q0 .141.035.422H72V324h18v-5.766h-.035q.035-.28.035-.421zm53.965-.422H144V306h-18v5.766h.035q-.035.28-.035.421v5.625q0 2.567 1.81 4.377t4.377 1.811h5.625q2.567 0 4.377-1.81t1.811-4.377v-5.625q0-.141-.035-.422M180 306h-18v11.813q0 2.566 1.81 4.376t4.377 1.811H180zm0 0h18v18h-18zm36 0h18v18h-18zm18 0h18v18h-18zm36 0h-18v18h11.813q2.566 0 4.376-1.81t1.811-4.377zm54 0h-18v11.813q0 2.566 1.81 4.376t4.377 1.811H324zm0 0h18v18h-18zm36 0h18v18h-18zm18 0h18v18h-18zm18 0h18v18h-18zm36 0h-18v18h11.813q2.566 0 4.376-1.81t1.811-4.377zM54 330.188V324H42.188q-2.567 0-4.377 1.81C36 327.622 36 328.478 36 330.188v5.625q0 2.567 1.81 4.377t4.378 1.81H54zM54 324h18v18H54zm18 0h18v18H72zm18 0h18v18H90zm29.813 0H108v18h11.813q2.566 0 4.376-1.81t1.811-4.377v-5.625q0-2.567-1.81-4.377T119.812 324M162 335.813q0 2.566-1.81 4.376T155.812 342h-5.625q-2.567 0-4.377-1.81-1.811-1.81-1.811-4.377v-5.625q0-2.567 1.81-4.377Q147.62 324 150.186 324h5.625q2.568 0 4.377 1.81 1.81 1.811 1.811 4.377zM180 324h18v18h-18zm36 0h18v18h-18zm72 6.188V324h-11.812q-2.567 0-4.377 1.81c-1.81 1.811-1.811 2.667-1.811 4.377V342h18zM299.813 324H288v18h11.813q2.566 0 4.376-1.81t1.811-4.377v-5.625q0-2.567-1.81-4.377T299.812 324M324 324h18v18h-18zm18 0h18v18h-18zm18 0h18v18h-18zm18 0h18v18h-18zm18 0h18v18h-18zm72 11.813q0 2.566-1.81 4.376T461.812 342h-5.625q-2.567 0-4.377-1.81-1.811-1.81-1.811-4.377v-5.625q0-2.567 1.81-4.377Q453.62 324 456.186 324h5.625q2.568 0 4.377 1.81 1.81 1.811 1.811 4.377zM180 342h18v18h-18zm18 0h18v18h-18zm36 0h-18v18h11.813q2.566 0 4.376-1.81t1.811-4.377zm53.965 5.766H288V342h-18v5.766h.035q-.035.28-.035.421v5.625q0 2.567 1.81 4.377t4.377 1.811h5.625q2.567 0 4.377-1.81t1.811-4.377v-5.625q0-.141-.035-.422M324 342h18v18h-18zm72 0h18v18h-18zm90 6.188q0-2.567-1.81-4.377T479.812 342h-5.625q-2.567 0-4.377 1.81c-1.81 1.811-1.811 2.667-1.811 4.377v5.625q0 .141.035.422H468V360h18v-5.766h-.035q.035-.28.035-.421zM198 360h-18v11.813q0 2.566 1.81 4.376t4.377 1.811H198zm18 0h-18v18h11.813q2.566 0 4.376-1.81t1.811-4.377zm36 11.813q0 2.566-1.81 4.376T245.812 378h-5.625q-2.567 0-4.377-1.81-1.811-1.81-1.811-4.377v-5.625q0-2.567 1.81-4.377Q237.62 360 240.186 360h5.625q2.568 0 4.377 1.81 1.81 1.811 1.811 4.377zM324 360h18v18h-18zm54 11.813q0 2.566-1.81 4.376T371.812 378h-5.625q-2.567 0-4.377-1.81-1.811-1.81-1.811-4.377v-5.625q0-2.567 1.81-4.377Q363.62 360 366.186 360h5.625q2.568 0 4.377 1.81 1.81 1.811 1.811 4.377zM396 360h18v18h-18zm89.965 5.766H486V360h-18v5.766h.035q-.035.28-.035.421v5.625q0 2.567 1.81 4.377t4.377 1.811h5.625q2.567 0 4.377-1.81t1.811-4.377v-5.625q0-.141-.035-.422M288 384.188q0-2.567-1.81-4.377T281.812 378h-5.625q-2.567 0-4.377 1.81c-1.81 1.811-1.811 2.667-1.811 4.377v5.625q0 .141.035.422H270V396h18v-5.766h-.035q.035-.28.035-.421zm36 0V378h-11.812q-2.567 0-4.377 1.81c-1.81 1.811-1.811 2.667-1.811 4.377V396h18zm0-6.188h18v18h-18zm72 0h18v18h-18zm72 11.813q0 2.566-1.81 4.376T461.812 396h-5.625q-2.567 0-4.377-1.81-1.811-1.81-1.811-4.377v-5.625q0-2.567 1.81-4.377Q453.62 378 456.186 378h5.625q2.568 0 4.377 1.81 1.81 1.811 1.811 4.377zm-252 12.375q0-2.567-1.81-4.377T209.812 396h-5.625q-2.567 0-4.377 1.81c-1.81 1.811-1.811 2.667-1.811 4.377v5.625q0 .141.035.422H198V414h18v-5.766h-.035q.035-.28.035-.421zm36 0V396h-11.812q-2.567 0-4.377 1.81c-1.81 1.811-1.811 2.667-1.811 4.377v5.625q0 2.567 1.81 4.377t4.377 1.811H252zm0-6.188h18v18h-18zm36 0h-18v18h11.813q2.566 0 4.376-1.81t1.811-4.377zm18 0h18v18h-18zm18 0h18v18h-18zm18 0h18v18h-18zm18 0h18v18h-18zm18 0h18v18h-18zm18 0h18v18h-18zm90 11.813q0 2.566-1.81 4.376T479.812 414h-5.625q-2.567 0-4.377-1.81-1.811-1.81-1.811-4.377v-5.625q0-2.567 1.81-4.377Q471.62 396 474.186 396h5.625q2.568 0 4.377 1.81 1.81 1.811 1.811 4.377zM198 414h18v18h-18zm54 0h18v18h-18zm71.965 5.766H324V414h-18v5.766h.035q-.035.28-.035.421v5.625q0 2.567 1.81 4.377t4.377 1.811h5.625q2.567 0 4.377-1.81t1.811-4.377v-5.625q0-.141-.035-.422m36 0H360V414h-18v5.766h.035q-.035.28-.035.421v5.625q0 2.567 1.81 4.377t4.377 1.811h5.625q2.567 0 4.377-1.81t1.811-4.377v-5.625q0-.141-.035-.422M396 414h18v18h-18zm54 6.188V414h-11.812q-2.567 0-4.377 1.81c-1.81 1.811-1.811 2.667-1.811 4.377v5.625q0 2.567 1.81 4.377t4.377 1.811H450zm18 0q0-2.567-1.81-4.377T461.812 414H450v18h18zm-270 18V432h-11.812q-2.567 0-4.377 1.81c-1.81 1.811-1.811 2.667-1.811 4.377v5.625q0 2.567 1.81 4.377t4.377 1.811H198zm0-6.188h18v18h-18zm54 0h18v18h-18zm18 0h18v18h-18zm36 6.188q0-2.567-1.81-4.377T299.812 432H288v18h18zm36 0q0-2.567-1.81-4.377T335.812 432h-5.625q-2.567 0-4.377 1.81c-1.81 1.811-1.811 2.667-1.811 4.377v5.625q0 .141.035.422H324V450h18v-5.766h-.035q.035-.28.035-.421zm54 0V432h-11.812q-2.567 0-4.377 1.81c-1.81 1.811-1.811 2.667-1.811 4.377V450h18zm0-6.188h18v18h-18zm29.813 0H414v18h11.813q2.566 0 4.376-1.81t1.811-4.377v-5.625q0-2.567-1.81-4.377T425.812 432M468 432h-18v11.813q0 2.566 1.81 4.376t4.377 1.811H468zm11.813 0H468v18h11.813q2.566 0 4.376-1.81t1.811-4.377v-5.625q0-2.567-1.81-4.377T479.812 432m-263.847 23.766H216V450h-18v5.766h.035q-.035.28-.035.421v5.625q0 2.567 1.81 4.377t4.377 1.811h5.625q2.567 0 4.377-1.81t1.811-4.377v-5.625q0-.141-.035-.422m36.035.422V450h-11.812q-2.567 0-4.377 1.81c-1.81 1.811-1.811 2.667-1.811 4.377v5.625q0 2.567 1.81 4.377t4.377 1.811H252zM270 450h-18v18h11.813q2.566 0 4.376-1.81t1.811-4.377zm18 0h18v18h-18zm36 0h18v18h-18zm54 6.188V450h-11.812q-2.567 0-4.377 1.81c-1.81 1.811-1.811 2.667-1.811 4.377V468h18zm0-6.188h18v18h-18zm36 0h-18v18h11.813q2.566 0 4.376-1.81t1.811-4.377zm-216 29.813q0 2.566-1.81 4.376T191.812 486h-5.625q-2.567 0-4.377-1.81-1.811-1.81-1.811-4.377v-5.625q0-2.567 1.81-4.377Q183.62 468 186.186 468h5.625q2.568 0 4.377 1.81 1.81 1.811 1.811 4.377zm90-5.625V468h-11.812q-2.567 0-4.377 1.81c-1.81 1.811-1.811 2.667-1.811 4.377v5.625q0 2.567 1.81 4.377t4.377 1.811H288zM306 468h-18v18h11.813q2.566 0 4.376-1.81t1.811-4.377zm35.965 5.766H342V468h-18v5.766h.035q-.035.28-.035.421v5.625q0 2.567 1.81 4.377t4.377 1.811h5.625q2.567 0 4.377-1.81t1.811-4.377v-5.625q0-.141-.035-.422m36 0H378V468h-18v5.766h.035q-.035.28-.035.421v5.625q0 2.567 1.81 4.377t4.377 1.811h5.625q2.567 0 4.377-1.81t1.811-4.377v-5.625q0-.141-.035-.422M432 479.813q0 2.566-1.81 4.376T425.812 486h-5.625q-2.567 0-4.377-1.81-1.811-1.81-1.811-4.377v-5.625q0-2.567 1.81-4.377Q417.62 468 420.186 468h5.625q2.568 0 4.377 1.81 1.81 1.811 1.811 4.377zm54 0q0 2.566-1.81 4.376T479.812 486h-5.625q-2.567 0-4.377-1.81-1.811-1.81-1.811-4.377v-5.625q0-2.567 1.81-4.377Q471.62 468 474.186 468h5.625q2.568 0 4.377 1.81 1.81 1.811 1.811 4.377z"/><path fill="none" d="M54.9 54.9h88.2v88.2H54.9z"/><path d="M143.1 36H36v126h126V36zm0 107.1H54.9V54.9h88.2z"/><path fill="none" d="M378.9 54.9h88.2v88.2h-88.2z"/><path d="M467.1 36H360v126h126V36zm0 107.1h-88.2V54.9h88.2z"/><path fill="none" d="M54.9 378.9h88.2v88.2H54.9z"/><path d="M143.1 360H36v126h126V360zm0 107.1H54.9v-88.2h88.2zM72 72h54v54H72zm324 0h54v54h-54z"/><path d="M72 396h54v54H72z"/></svg>