<svg xmlns="http://www.w3.org/2000/svg" viewBox="0 0 25 25" width="25" height="25" shape-rendering="crispEdges" aria-hidden="true">
  <rect width="25" height="25" fill="#ffffff"/>
  <path fill="#808080" d="M1 18h2v1H1z M4 18h1v1H4z M6 18h2v1H6z M9 18h4v1H9z M0 19h1v1H0z M10 19h1v1H10z M12 19h1v1H12z M5 20h4v1H5z M15 20h1v1H15z M4 21h2v1H4z M9 21h1v1H9z M15 21h1v1H15z M0 22h1v1H0z M11 22h2v1H11z M3 23h2v1H3z M9 23h1v1H9z M13 23h1v1H13z M2 24h2v1H2z M10 24h1v1H10z M13 24h2v1H13z"/>
  <path fill="#000000" d="M2 16h2v1H2z M1 17h1v1H1z M4 17h4v1H4z M0 18h1v1H0z M3 18h1v1H3z M8 18h1v1H8z M1 19h9v1H1z M11 19h1v1H11z M13 19h1v1H13z M15 19h1v1H15z M0 20h5v1H0z M9 20h6v1H9z M16 20h1v1H16z M0 21h4v1H0z M6 21h3v1H6z M10 21h5v1H10z M16 21h1v1H16z M18 21h2v1H18z M1 22h10v1H1z M13 22h4v1H13z M20 22h1v1H20z M0 23h3v1H0z M5 23h4v1H5z M10 23h3v1H10z M14 23h4v1H14z M20 23h1v1H20z M0 24h2v1H0z M4 24h6v1H4z M11 24h2v1H11z M15 24h3v1H15z M19 24h3v1H19z"/>
</svg>
