<svg xmlns="http://www.w3.org/2000/svg" viewBox="0 0 25 25" width="25" height="25" shape-rendering="crispEdges" aria-hidden="true">
  <rect width="25" height="25" fill="#ffffff"/>
  <path fill="#808080" d="M0 0h1v1H0z M0 1h2v1H0z M0 2h1v1H0z M2 3h2v1H2z M2 4h2v1H2z M6 4h1v1H6z M0 5h3v1H0z M6 5h2v1H6z M0 6h2v1H0z M4 6h1v1H4z M7 6h1v1H7z M3 7h3v1H3z M10 7h1v1H10z M3 8h3v1H3z M10 8h1v1H10z M2 9h2v1H2z M7 9h5v1H7z M0 10h3v1H0z M6 10h5v1H6z M0 11h2v1H0z M5 11h5v1H5z M13 11h2v1H13z M4 12h3v1H4z M9 12h2v1H9z M13 12h2v1H13z M0 13h4v1H0z M7 13h5v1H7z M14 13h2v1H14z M0 14h3v1H0z M6 14h3v1H6z M11 14h2v1H11z M15 14h1v1H15z M0 15h3v1H0z M6 15h3v1H6z M11 15h3v1H11z M16 15h1v1H16z M0 16h2v1H0z M4 16h3v1H4z M12 16h3v1H12z M17 16h1v1H17z M3 17h3v1H3z M9 17h2v1H9z M13 17h3v1H13z M2 18h3v1H2z M7 18h5v1H7z M14 18h3v1H14z M0 19h3v1H0z M6 19h3v1H6z M10 19h3v1H10z M15 19h3v1H15z M0 20h2v1H0z M5 20h2v1H5z M11 20h3v1H11z M17 20h2v1H17z M0 21h2v1H0z M4 21h2v1H4z M9 21h1v1H9z M12 21h4v1H12z M17 21h3v1H17z M0 22h2v1H0z M4 22h2v1H4z M9 22h1v1H9z M12 22h5v1H12z M18 22h3v1H18z M3 23h2v1H3z M7 23h4v1H7z M13 23h4v1H13z M18 23h4v1H18z M2 24h2v1H2z M6 24h3v1H6z M10 24h2v1H10z M14 24h3v1H14z M19 24h3v1H19z"/>
  <path fill="#000000" d="M1 0h2v1H1z M2 1h2v1H2z M1 2h5v1H1z M0 3h2v1H0z M4 3h3v1H4z M0 4h2v1H0z M4 4h2v1H4z M7 4h2v1H7z M3 5h3v1H3z M8 5h2v1H8z M2 6h2v1H2z M5 6h2v1H5z M8 6h3v1H8z M0 7h3v1H0z M6 7h4v1H6z M11 7h1v1H11z M0 8h3v1H0z M6 8h4v1H6z M11 8h1v1H11z M0 9h2v1H0z M4 9h3v1H4z M12 9h2v1H12z M3 10h3v1H3z M11 10h4v1H11z M2 11h3v1H2z M10 11h3v1H10z M15 11h1v1H15z M0 12h4v1H0z M7 12h2v1H7z M11 12h2v1H11z M15 12h2v1H15z M4 13h3v1H4z M12 13h2v1H12z M16 13h1v1H16z M3 14h3v1H3z M9 14h2v1H9z M13 14h2v1H13z M16 14h2v1H16z M3 15h3v1H3z M9 15h2v1H9z M14 15h2v1H14z M17 15h1v1H17z M2 16h2v1H2z M7 16h5v1H7z M15 16h2v1H15z M18 16h1v1H18z M0 17h3v1H0z M6 17h3v1H6z M11 17h2v1H11z M16 17h3v1H16z M0 18h2v1H0z M5 18h2v1H5z M12 18h2v1H12z M17 18h3v1H17z M3 19h3v1H3z M9 19h1v1H9z M13 19h2v1H13z M18 19h3v1H18z M2 20h3v1H2z M7 20h4v1H7z M14 20h3v1H14z M19 20h2v1H19z M2 21h2v1H2z M6 21h3v1H6z M10 21h2v1H10z M16 21h1v1H16z M20 21h2v1H20z M2 22h2v1H2z M6 22h3v1H6z M10 22h2v1H10z M17 22h1v1H17z M21 22h2v1H21z M0 23h3v1H0z M5 23h2v1H5z M11 23h2v1H11z M17 23h1v1H17z M22 23h1v1H22z M0 24h2v1H0z M4 24h2v1H4z M9 24h1v1H9z M12 24h2v1H12z M17 24h2v1H17z M22 24h1v1H22z"/>
</svg>
