<svg xmlns="http://www.w3.org/2000/svg" viewBox="0 0 25 25" width="25" height="25" shape-rendering="crispEdges" aria-hidden="true">
  <rect width="25" height="25" fill="#ffffff"/>
  <path fill="#808080" d="M3 0h2v1H3z M8 0h3v1H8z M15 0h2v1H15z M18 0h2v1H18z M23 0h2v1H23z M0 1h1v1H0z M3 1h1v1H3z M7 1h3v1H7z M11 1h1v1H11z M16 1h3v1H16z M22 1h3v1H22z M0 2h2v1H0z M6 2h3v1H6z M11 2h3v1H11z M17 2h1v1H17z M21 2h3v1H21z M2 3h5v1H2z M10 3h1v1H10z M14 3h3v1H14z M18 3h3v1H18z M24 3h1v1H24z M3 4h3v1H3z M9 4h4v1H9z M15 4h5v1H15z M23 4h2v1H23z M0 5h1v1H0z M4 5h1v1H4z M8 5h6v1H8z M16 5h3v1H16z M21 5h3v1H21z M0 6h2v1H0z M7 6h3v1H7z M12 6h3v1H12z M17 6h1v1H17z M20 6h3v1H20z M0 7h3v1H0z M6 7h3v1H6z M14 7h2v1H14z M19 7h3v1H19z M24 7h1v1H24z M1 8h3v1H1z M5 8h3v1H5z M11 8h1v1H11z M15 8h2v1H15z M18 8h2v1H18z M23 8h2v1H23z M2 9h5v1H2z M10 9h4v1H10z M16 9h3v1H16z M22 9h2v1H22z M3 10h3v1H3z M9 10h2v1H9z M12 10h3v1H12z M17 10h2v1H17z M21 10h2v1H21z M0 11h2v1H0z M4 11h1v1H4z M8 11h3v1H8z M14 11h2v1H14z M20 11h2v1H20z M24 11h1v1H24z M0 12h3v1H0z M7 12h3v1H7z M11 12h1v1H11z M15 12h2v1H15z M19 12h2v1H19z M23 12h2v1H23z"/>
  <path fill="#000000" d="M0 0h3v1H0z M5 0h3v1H5z M11 0h4v1H11z M17 0h1v1H17z M20 0h3v1H20z M1 1h2v1H1z M4 1h3v1H4z M10 1h1v1H10z M12 1h4v1H12z M19 1h3v1H19z M2 2h4v1H2z M9 2h2v1H9z M14 2h3v1H14z M18 2h3v1H18z M24 2h1v1H24z M0 3h2v1H0z M7 3h3v1H7z M11 3h3v1H11z M17 3h1v1H17z M21 3h3v1H21z M0 4h3v1H0z M6 4h3v1H6z M13 4h2v1H13z M20 4h3v1H20z M1 5h3v1H1z M5 5h3v1H5z M14 5h2v1H14z M19 5h2v1H19z M24 5h1v1H24z M2 6h5v1H2z M10 6h2v1H10z M15 6h2v1H15z M18 6h2v1H18z M23 6h2v1H23z M3 7h3v1H3z M9 7h5v1H9z M16 7h3v1H16z M22 7h2v1H22z M0 8h1v1H0z M4 8h1v1H4z M8 8h3v1H8z M12 8h3v1H12z M17 8h1v1H17z M20 8h3v1H20z M0 9h2v1H0z M7 9h3v1H7z M14 9h2v1H14z M19 9h3v1H19z M24 9h1v1H24z M0 10h3v1H0z M6 10h3v1H6z M11 10h1v1H11z M15 10h2v1H15z M19 10h2v1H19z M23 10h2v1H23z M2 11h2v1H2z M5 11h3v1H5z M11 11h3v1H11z M16 11h4v1H16z M22 11h2v1H22z M3 12h4v1H3z M10 12h1v1H10z M12 12h3v1H12z M17 12h2v1H17z M21 12h2v1H21z"/>
</svg>
