<svg xmlns="http://www.w3.org/2000/svg" viewBox="0 0 25 25" width="25" height="25" shape-rendering="crispEdges" aria-hidden="true">
  <rect width="25" height="25" fill="#ffffff"/>
  <path fill="#808080" d="M0 3h1v1H0z M0 5h1v1H0z M1 6h1v1H1z M1 7h1v1H1z M1 11h1v1H1z M6 11h1v1H6z M0 12h1v1H0z M3 12h1v1H3z M6 12h1v1H6z M3 13h1v1H3z M2 14h1v1H2z M1 15h1v1H1z M7 15h1v1H7z M6 16h2v1H6z M5 17h1v1H5z M0 18h1v1H0z M2 18h1v1H2z M0 19h1v1H0z M3 19h1v1H3z M6 19h1v1H6z M0 20h1v1H0z M3 20h1v1H3z M6 20h1v1H6z M0 21h1v1H0z M3 21h1v1H3z M3 22h1v1H3z M2 23h1v1H2z M1 24h1v1H1z"/>
  <path fill="#000000" d="M0 1h1v1H0z M0 2h2v1H0z M1 3h1v1H1z M0 4h1v1H0z M1 5h1v1H1z M0 6h1v1H0z M2 6h1v1H2z M0 7h1v1H0z M2 7h1v1H2z M4 7h1v1H4z M0 8h5v1H0z M0 9h5v1H0z M0 10h7v1H0z M0 11h1v1H0z M2 11h4v1H2z M7 11h1v1H7z M1 12h2v1H1z M4 12h2v1H4z M7 12h1v1H7z M0 13h3v1H0z M4 13h3v1H4z M0 14h2v1H0z M3 14h5v1H3z M0 15h1v1H0z M2 15h5v1H2z M8 15h1v1H8z M0 16h6v1H0z M8 16h1v1H8z M0 17h5v1H0z M6 17h2v1H6z M1 18h1v1H1z M3 18h4v1H3z M1 19h2v1H1z M4 19h2v1H4z M7 19h1v1H7z M1 20h2v1H1z M4 20h2v1H4z M7 20h1v1H7z M1 21h2v1H1z M4 21h3v1H4z M0 22h3v1H0z M4 22h2v1H4z M0 23h2v1H0z M3 23h4v1H3z M0 24h1v1H0z M2 24h6v1H2z"/>
</svg>
