<svg xmlns="http://www.w3.org/2000/svg" viewBox="0 0 25 25" width="25" height="25" shape-rendering="crispEdges" aria-hidden="true">
  <rect width="25" height="25" fill="#ffffff"/>
  <path fill="#808080" d="M10 18h2v1H10z M15 18h1v1H15z M17 18h1v1H17z M21 18h1v1H21z M23 18h2v1H23z M12 19h3v1H12z M17 19h1v1H17z M11 20h1v1H11z M15 20h1v1H15z M13 21h2v1H13z M19 22h3v1H19z M6 23h3v1H6z M15 23h1v1H15z M18 23h1v1H18z M22 23h1v1H22z M9 24h1v1H9z M14 24h1v1H14z M18 24h1v1H18z M23 24h1v1H23z"/>
  <path fill="#000000" d="M23 17h2v1H23z M12 18h3v1H12z M18 18h3v1H18z M22 18h1v1H22z M6 19h2v1H6z M9 19h3v1H9z M15 19h2v1H15z M18 19h7v1H18z M8 20h3v1H8z M12 20h3v1H12z M16 20h9v1H16z M5 21h8v1H5z M15 21h10v1H15z M4 22h15v1H4z M22 22h3v1H22z M1 23h5v1H1z M9 23h6v1H9z M16 23h2v1H16z M19 23h3v1H19z M23 23h2v1H23z M0 24h1v1H0z M2 24h7v1H2z M10 24h4v1H10z M15 24h3v1H15z M19 24h4v1H19z M24 24h1v1H24z"/>
</svg>
