<svg xmlns="http://www.w3.org/2000/svg" viewBox="0 0 25 25" width="25" height="25" shape-rendering="crispEdges" aria-hidden="true">
  <rect width="25" height="25" fill="#ffffff"/>
  <path fill="#808080" d="M2 0h1v1H2z M6 0h1v1H6z M10 0h1v1H10z M14 0h1v1H14z M2 1h1v1H2z M7 1h1v1H7z M10 1h1v1H10z M14 1h1v1H14z M17 1h1v1H17z M2 2h1v1H2z M8 2h2v1H8z M14 2h1v1H14z M18 2h1v1H18z M3 3h1v1H3z M13 3h2v1H13z M19 3h1v1H19z M4 4h1v1H4z M12 4h2v1H12z M18 4h1v1H18z M7 5h1v1H7z M19 5h2v1H19z M0 6h1v1H0z M4 6h1v1H4z M14 6h1v1H14z M20 6h1v1H20z M22 6h1v1H22z M0 7h1v1H0z M5 7h1v1H5z M8 7h3v1H8z M15 7h1v1H15z M17 7h1v1H17z M20 7h1v1H20z M23 7h1v1H23z M0 8h1v1H0z M5 8h1v1H5z M7 8h1v1H7z M11 8h1v1H11z M15 8h1v1H15z M17 8h1v1H17z M19 8h1v1H19z M23 8h1v1H23z M5 9h1v1H5z M12 9h1v1H12z M15 9h1v1H15z M17 9h1v1H17z M23 9h1v1H23z M4 10h1v1H4z M9 10h1v1H9z M12 10h1v1H12z M18 10h3v1H18z M22 10h1v1H22z M2 11h2v1H2z M8 11h1v1H8z M12 11h1v1H12z M21 11h1v1H21z M10 12h1v1H10z M22 12h1v1H22z M6 13h1v1H6z M18 13h1v1H18z M22 13h1v1H22z M2 14h2v1H2z M5 14h1v1H5z M7 14h1v1H7z M14 14h1v1H14z M18 14h1v1H18z M20 14h2v1H20z M1 15h6v1H1z M10 15h2v1H10z M14 15h1v1H14z M18 15h1v1H18z M1 16h1v1H1z M3 16h5v1H3z M10 16h1v1H10z M12 16h1v1H12z M15 16h1v1H15z M18 16h1v1H18z M22 16h2v1H22z M0 17h1v1H0z M2 17h1v1H2z M4 17h4v1H4z M10 17h2v1H10z M16 17h2v1H16z M24 17h1v1H24z M0 18h2v1H0z M4 18h5v1H4z M13 18h1v1H13z M21 18h1v1H21z M3 19h7v1H3z M12 19h1v1H12z M14 19h1v1H14z M20 19h1v1H20z M23 19h1v1H23z M0 20h14v1H0z M20 20h1v1H20z M22 20h1v1H22z M0 21h14v1H0z M15 21h1v1H15z M17 21h1v1H17z M20 21h2v1H20z M24 21h1v1H24z M0 22h15v1H0z M17 22h1v1H17z M21 22h4v1H21z M0 23h16v1H0z M0 24h17v1H0z M19 24h1v1H19z"/>
  <path fill="#000000" d="M0 0h2v1H0z M3 0h3v1H3z M7 0h3v1H7z M11 0h3v1H11z M15 0h5v1H15z M22 0h1v1H22z M0 1h2v1H0z M3 1h4v1H3z M8 1h2v1H8z M11 1h3v1H11z M15 1h2v1H15z M18 1h3v1H18z M22 1h1v1H22z M24 1h1v1H24z M0 2h2v1H0z M3 2h5v1H3z M10 2h4v1H10z M15 2h3v1H15z M19 2h4v1H19z M0 3h3v1H0z M4 3h9v1H4z M15 3h4v1H15z M20 3h5v1H20z M0 4h4v1H0z M5 4h7v1H5z M14 4h4v1H14z M19 4h6v1H19z M0 5h7v1H0z M8 5h11v1H8z M21 5h4v1H21z M1 6h3v1H1z M5 6h9v1H5z M15 6h5v1H15z M21 6h1v1H21z M23 6h2v1H23z M1 7h4v1H1z M6 7h2v1H6z M11 7h4v1H11z M16 7h1v1H16z M18 7h2v1H18z M21 7h2v1H21z M24 7h1v1H24z M1 8h4v1H1z M6 8h1v1H6z M8 8h3v1H8z M12 8h3v1H12z M16 8h1v1H16z M18 8h1v1H18z M20 8h3v1H20z M24 8h1v1H24z M0 9h5v1H0z M6 9h6v1H6z M13 9h2v1H13z M16 9h1v1H16z M18 9h5v1H18z M24 9h1v1H24z M0 10h4v1H0z M5 10h4v1H5z M10 10h2v1H10z M13 10h5v1H13z M21 10h1v1H21z M23 10h2v1H23z M0 11h2v1H0z M4 11h4v1H4z M9 11h3v1H9z M13 11h8v1H13z M22 11h3v1H22z M0 12h10v1H0z M11 12h11v1H11z M23 12h2v1H23z M0 13h6v1H0z M7 13h11v1H7z M19 13h3v1H19z M23 13h2v1H23z M0 14h2v1H0z M4 14h1v1H4z M6 14h1v1H6z M8 14h6v1H8z M15 14h3v1H15z M19 14h1v1H19z M22 14h3v1H22z M0 15h1v1H0z M7 15h3v1H7z M12 15h2v1H12z M15 15h3v1H15z M19 15h6v1H19z M0 16h1v1H0z M2 16h1v1H2z M8 16h2v1H8z M11 16h1v1H11z M13 16h2v1H13z M16 16h2v1H16z M19 16h3v1H19z M24 16h1v1H24z M1 17h1v1H1z M3 17h1v1H3z M8 17h2v1H8z M12 17h4v1H12z M18 17h6v1H18z M2 18h2v1H2z M9 18h4v1H9z M14 18h7v1H14z M22 18h3v1H22z M0 19h3v1H0z M10 19h2v1H10z M13 19h1v1H13z M15 19h5v1H15z M21 19h2v1H21z M24 19h1v1H24z M14 20h6v1H14z M21 20h1v1H21z M23 20h2v1H23z M14 21h1v1H14z M16 21h1v1H16z M18 21h2v1H18z M22 21h2v1H22z M15 22h2v1H15z M18 22h3v1H18z M16 23h9v1H16z M17 24h2v1H17z M20 24h5v1H20z"/>
</svg>
