<svg xmlns="http://www.w3.org/2000/svg" viewBox="0 0 25 25" width="25" height="25" shape-rendering="crispEdges" aria-hidden="true">
  <rect width="25" height="25" fill="#ffffff"/>
  <path fill="#808080" d="M22 17h2v1H22z M21 18h4v1H21z M23 19h2v1H23z M19 20h2v1H19z M19 21h5v1H19z M18 22h1v1H18z M21 22h4v1H21z M17 23h2v1H17z M23 23h2v1H23z M15 24h6v1H15z M24 24h1v1H24z"/>
  <path fill="#000000" d="M24 14h1v1H24z M22 15h3v1H22z M22 16h3v1H22z M20 17h2v1H20z M24 17h1v1H24z M19 18h2v1H19z M17 19h6v1H17z M16 20h3v1H16z M21 20h4v1H21z M14 21h5v1H14z M24 21h1v1H24z M14 22h4v1H14z M19 22h2v1H19z M12 23h5v1H12z M19 23h4v1H19z M12 24h3v1H12z M21 24h3v1H21z"/>
</svg>
