<svg xmlns="http://www.w3.org/2000/svg" viewBox="0 0 25 25" width="25" height="25" shape-rendering="crispEdges" aria-hidden="true">
  <rect width="25" height="25" fill="#ffffff"/>
  <path fill="#808080" d="M1 0h2v1H1z M4 0h3v1H4z M8 0h2v1H8z M11 0h4v1H11z M16 0h2v1H16z M19 0h2v1H19z M22 0h3v1H22z M1 1h2v1H1z M4 1h3v1H4z M8 1h3v1H8z M12 1h3v1H12z M16 1h1v1H16z M18 1h2v1H18z M23 1h2v1H23z M1 2h2v1H1z M4 2h3v1H4z M8 2h3v1H8z M12 2h3v1H12z M18 2h1v1H18z M24 2h1v1H24z M1 3h3v1H1z M5 3h2v1H5z M9 3h2v1H9z M15 3h2v1H15z M20 3h4v1H20z M1 4h3v1H1z M5 4h2v1H5z M12 4h4v1H12z M18 4h3v1H18z M22 4h3v1H22z M9 5h6v1H9z M18 5h2v1H18z M23 5h2v1H23z M2 6h4v1H2z M10 6h3v1H10z M17 6h2v1H17z M24 6h1v1H24z M4 7h3v1H4z M10 7h2v1H10z M15 7h3v1H15z M21 7h1v1H21z M0 8h2v1H0z M5 8h4v1H5z M14 8h3v1H14z M20 8h3v1H20z M0 9h3v1H0z M6 9h4v1H6z M13 9h3v1H13z M19 9h2v1H19z M22 9h2v1H22z M0 10h1v1H0z M2 10h2v1H2z M8 10h7v1H8z M18 10h2v1H18z M23 10h2v1H23z M3 11h3v1H3z M9 11h5v1H9z M17 11h2v1H17z M24 11h1v1H24z M4 12h3v1H4z M11 12h2v1H11z M16 12h3v1H16z M21 12h1v1H21z"/>
  <path fill="#000000" d="M0 0h1v1H0z M3 0h1v1H3z M7 0h1v1H7z M10 0h1v1H10z M15 0h1v1H15z M18 0h1v1H18z M21 0h1v1H21z M0 1h1v1H0z M3 1h1v1H3z M7 1h1v1H7z M11 1h1v1H11z M15 1h1v1H15z M17 1h1v1H17z M20 1h3v1H20z M0 2h1v1H0z M3 2h1v1H3z M7 2h1v1H7z M11 2h1v1H11z M15 2h3v1H15z M19 2h5v1H19z M0 3h1v1H0z M4 3h1v1H4z M7 3h2v1H7z M11 3h4v1H11z M17 3h3v1H17z M24 3h1v1H24z M0 4h1v1H0z M4 4h1v1H4z M7 4h5v1H7z M16 4h2v1H16z M21 4h1v1H21z M0 5h9v1H0z M15 5h3v1H15z M20 5h3v1H20z M0 6h2v1H0z M6 6h4v1H6z M13 6h4v1H13z M19 6h5v1H19z M0 7h4v1H0z M7 7h3v1H7z M12 7h3v1H12z M18 7h3v1H18z M22 7h3v1H22z M2 8h3v1H2z M9 8h5v1H9z M17 8h3v1H17z M23 8h2v1H23z M3 9h3v1H3z M10 9h3v1H10z M16 9h3v1H16z M21 9h1v1H21z M24 9h1v1H24z M1 10h1v1H1z M4 10h4v1H4z M15 10h3v1H15z M20 10h3v1H20z M0 11h3v1H0z M6 11h3v1H6z M14 11h3v1H14z M19 11h5v1H19z M0 12h4v1H0z M7 12h4v1H7z M13 12h3v1H13z M19 12h2v1H19z M22 12h3v1H22z"/>
</svg>
