<svg xmlns="http://www.w3.org/2000/svg" viewBox="0 0 25 25" width="25" height="25" shape-rendering="crispEdges" aria-hidden="true">
  <rect width="25" height="25" fill="#ffffff"/>
  <path fill="#808080" d="M21 5h1v1H21z M24 5h1v1H24z M21 6h1v1H21z M24 6h1v1H24z M21 7h1v1H21z M24 7h1v1H24z M23 10h2v1H23z M22 11h1v1H22z M20 12h1v1H20z M20 13h1v1H20z M20 14h1v1H20z M24 14h1v1H24z M20 15h1v1H20z M24 15h1v1H24z M21 16h1v1H21z M20 19h3v1H20z M19 20h1v1H19z M23 20h1v1H23z M16 21h1v1H16z M18 21h1v1H18z M24 21h1v1H24z M16 22h1v1H16z M21 22h1v1H21z M24 22h1v1H24z M20 23h1v1H20z M24 23h1v1H24z M20 24h1v1H20z M23 24h1v1H23z"/>
  <path fill="#000000" d="M24 0h1v1H24z M24 1h1v1H24z M24 3h1v1H24z M21 4h1v1H21z M23 4h2v1H23z M20 5h1v1H20z M22 5h2v1H22z M20 6h1v1H20z M22 6h2v1H22z M20 7h1v1H20z M22 7h2v1H22z M18 8h1v1H18z M21 8h4v1H21z M19 9h6v1H19z M17 10h1v1H17z M20 10h3v1H20z M16 11h2v1H16z M19 11h3v1H19z M23 11h2v1H23z M16 12h4v1H16z M21 12h4v1H21z M17 13h3v1H17z M21 13h4v1H21z M15 14h1v1H15z M17 14h3v1H17z M21 14h3v1H21z M15 15h1v1H15z M17 15h3v1H17z M21 15h3v1H21z M16 16h5v1H16z M22 16h3v1H22z M14 17h1v1H14z M18 17h7v1H18z M15 18h1v1H15z M17 18h8v1H17z M16 19h4v1H16z M23 19h2v1H23z M15 20h4v1H15z M20 20h3v1H20z M24 20h1v1H24z M15 21h1v1H15z M17 21h1v1H17z M19 21h5v1H19z M15 22h1v1H15z M17 22h4v1H17z M22 22h2v1H22z M16 23h4v1H16z M21 23h3v1H21z M17 24h3v1H17z M21 24h2v1H21z M24 24h1v1H24z"/>
</svg>
