<svg xmlns="http://www.w3.org/2000/svg" viewBox="0 0 25 25" width="25" height="25" shape-rendering="crispEdges" aria-hidden="true">
  <rect width="25" height="25" fill="#ffffff"/>
  <path fill="#808080" d="M15 0h1v1H15z M17 0h1v1H17z M19 0h6v1H19z M6 1h1v1H6z M13 1h1v1H13z M16 1h1v1H16z M18 1h1v1H18z M20 1h1v1H20z M22 1h2v1H22z M7 2h2v1H7z M15 2h1v1H15z M17 2h1v1H17z M19 2h1v1H19z M22 2h1v1H22z M7 3h1v1H7z M9 3h1v1H9z M21 3h1v1H21z M23 3h1v1H23z M5 4h2v1H5z M8 4h1v1H8z M10 4h1v1H10z M17 4h1v1H17z M20 4h1v1H20z M0 5h1v1H0z M4 5h1v1H4z M7 5h1v1H7z M9 5h1v1H9z M11 5h1v1H11z M19 5h1v1H19z M22 5h1v1H22z M3 6h1v1H3z M5 6h2v1H5z M8 6h1v1H8z M10 6h1v1H10z M12 6h1v1H12z M23 6h1v1H23z M0 7h1v1H0z M2 7h1v1H2z M4 7h1v1H4z M7 7h1v1H7z M9 7h1v1H9z M11 7h1v1H11z M13 7h1v1H13z M3 8h1v1H3z M5 8h2v1H5z M8 8h1v1H8z M10 8h1v1H10z M12 8h1v1H12z M14 8h1v1H14z M0 9h2v1H0z M4 9h1v1H4z M7 9h1v1H7z M9 9h1v1H9z M11 9h1v1H11z M13 9h1v1H13z M15 9h1v1H15z M0 10h1v1H0z M2 10h2v1H2z M7 10h1v1H7z M9 10h1v1H9z M11 10h1v1H11z M13 10h1v1H13z M15 10h1v1H15z M18 10h1v1H18z M20 10h1v1H20z M22 10h1v1H22z M1 11h2v1H1z M6 11h1v1H6z M8 11h1v1H8z M10 11h1v1H10z M12 11h1v1H12z M14 11h1v1H14z M16 11h2v1H16z M19 11h1v1H19z M21 11h1v1H21z M23 11h2v1H23z M0 12h2v1H0z M4 12h1v1H4z M7 12h1v1H7z M9 12h1v1H9z M11 12h1v1H11z M13 12h1v1H13z M15 12h2v1H15z M18 12h1v1H18z M20 12h1v1H20z M22 12h1v1H22z M0 13h1v1H0z M3 13h2v1H3z M8 13h1v1H8z M10 13h1v1H10z M12 13h1v1H12z M14 13h1v1H14z M16 13h2v1H16z M19 13h1v1H19z M21 13h1v1H21z M23 13h1v1H23z M2 14h2v1H2z M5 14h1v1H5z M9 14h1v1H9z M11 14h1v1H11z M13 14h1v1H13z M15 14h1v1H15z M17 14h4v1H17z M22 14h1v1H22z M24 14h1v1H24z M1 15h2v1H1z M4 15h2v1H4z M9 15h4v1H9z M14 15h1v1H14z M16 15h1v1H16z M18 15h1v1H18z M20 15h5v1H20z M1 16h1v1H1z M4 16h2v1H4z M7 16h1v1H7z M11 16h3v1H11z M15 16h1v1H15z M17 16h1v1H17z M19 16h1v1H19z M21 16h4v1H21z M3 17h2v1H3z M6 17h2v1H6z M9 17h1v1H9z M12 17h5v1H12z M18 17h7v1H18z M2 18h2v1H2z M5 18h2v1H5z M8 18h3v1H8z M13 18h12v1H13z M5 19h1v1H5z M7 19h3v1H7z M11 19h2v1H11z M15 19h10v1H15z M0 20h3v1H0z M5 20h1v1H5z M7 20h3v1H7z M11 20h3v1H11z M16 20h9v1H16z M0 21h2v1H0z M6 21h3v1H6z M10 21h3v1H10z M14 21h2v1H14z M18 21h7v1H18z M0 22h1v1H0z M4 22h1v1H4z M6 22h2v1H6z M10 22h2v1H10z M13 22h3v1H13z M17 22h1v1H17z M21 22h4v1H21z M3 23h3v1H3z M7 23h1v1H7z M9 23h3v1H9z M13 23h3v1H13z M17 23h3v1H17z M24 23h1v1H24z M2 24h3v1H2z M9 24h2v1H9z M12 24h3v1H12z M16 24h4v1H16z M21 24h2v1H21z"/>
  <path fill="#000000" d="M5 0h10v1H5z M16 0h1v1H16z M18 0h1v1H18z M4 1h2v1H4z M7 1h6v1H7z M14 1h2v1H14z M17 1h1v1H17z M19 1h1v1H19z M21 1h1v1H21z M24 1h1v1H24z M4 2h3v1H4z M9 2h6v1H9z M16 2h1v1H16z M18 2h1v1H18z M20 2h2v1H20z M23 2h2v1H23z M0 3h7v1H0z M8 3h1v1H8z M10 3h11v1H10z M22 3h1v1H22z M24 3h1v1H24z M0 4h5v1H0z M7 4h1v1H7z M9 4h1v1H9z M11 4h6v1H11z M18 4h2v1H18z M21 4h4v1H21z M1 5h3v1H1z M5 5h2v1H5z M8 5h1v1H8z M10 5h1v1H10z M12 5h7v1H12z M20 5h2v1H20z M23 5h2v1H23z M0 6h3v1H0z M4 6h1v1H4z M7 6h1v1H7z M9 6h1v1H9z M11 6h1v1H11z M13 6h10v1H13z M24 6h1v1H24z M1 7h1v1H1z M3 7h1v1H3z M5 7h2v1H5z M8 7h1v1H8z M10 7h1v1H10z M12 7h1v1H12z M14 7h11v1H14z M0 8h3v1H0z M4 8h1v1H4z M7 8h1v1H7z M9 8h1v1H9z M11 8h1v1H11z M13 8h1v1H13z M15 8h10v1H15z M2 9h2v1H2z M5 9h2v1H5z M8 9h1v1H8z M10 9h1v1H10z M12 9h1v1H12z M14 9h1v1H14z M16 9h9v1H16z M1 10h1v1H1z M4 10h3v1H4z M8 10h1v1H8z M10 10h1v1H10z M12 10h1v1H12z M14 10h1v1H14z M16 10h2v1H16z M19 10h1v1H19z M21 10h1v1H21z M23 10h2v1H23z M0 11h1v1H0z M3 11h3v1H3z M7 11h1v1H7z M9 11h1v1H9z M11 11h1v1H11z M13 11h1v1H13z M15 11h1v1H15z M18 11h1v1H18z M20 11h1v1H20z M22 11h1v1H22z M2 12h2v1H2z M5 12h2v1H5z M8 12h1v1H8z M10 12h1v1H10z M12 12h1v1H12z M14 12h1v1H14z M17 12h1v1H17z M19 12h1v1H19z M21 12h1v1H21z M23 12h2v1H23z M1 13h2v1H1z M5 13h3v1H5z M9 13h1v1H9z M11 13h1v1H11z M13 13h1v1H13z M15 13h1v1H15z M18 13h1v1H18z M20 13h1v1H20z M22 13h1v1H22z M24 13h1v1H24z M0 14h2v1H0z M4 14h1v1H4z M6 14h3v1H6z M10 14h1v1H10z M12 14h1v1H12z M14 14h1v1H14z M16 14h1v1H16z M21 14h1v1H21z M23 14h1v1H23z M0 15h1v1H0z M3 15h1v1H3z M6 15h3v1H6z M13 15h1v1H13z M15 15h1v1H15z M17 15h1v1H17z M19 15h1v1H19z M0 16h1v1H0z M2 16h2v1H2z M6 16h1v1H6z M8 16h3v1H8z M14 16h1v1H14z M16 16h1v1H16z M18 16h1v1H18z M20 16h1v1H20z M0 17h3v1H0z M5 17h1v1H5z M8 17h1v1H8z M10 17h2v1H10z M17 17h1v1H17z M0 18h2v1H0z M4 18h1v1H4z M7 18h1v1H7z M11 18h2v1H11z M0 19h5v1H0z M6 19h1v1H6z M10 19h1v1H10z M13 19h2v1H13z M3 20h2v1H3z M6 20h1v1H6z M10 20h1v1H10z M14 20h2v1H14z M2 21h4v1H2z M9 21h1v1H9z M13 21h1v1H13z M16 21h2v1H16z M1 22h3v1H1z M5 22h1v1H5z M8 22h2v1H8z M12 22h1v1H12z M16 22h1v1H16z M18 22h3v1H18z M0 23h3v1H0z M6 23h1v1H6z M8 23h1v1H8z M12 23h1v1H12z M16 23h1v1H16z M20 23h4v1H20z M0 24h2v1H0z M5 24h4v1H5z M11 24h1v1H11z M15 24h1v1H15z M20 24h1v1H20z M23 24h2v1H23z"/>
</svg>
