<svg xmlns="http://www.w3.org/2000/svg" viewBox="0 0 25 25" width="25" height="25" shape-rendering="crispEdges" aria-hidden="true">
  <rect width="25" height="25" fill="#ffffff"/>
  <path fill="#808080" d="M1 13h2v1H1z M2 14h3v1H2z M0 15h1v1H0z M3 15h1v1H3z M6 15h2v1H6z M0 16h2v1H0z M5 16h3v1H5z M1 17h2v1H1z M4 17h3v1H4z M10 17h1v1H10z M1 18h5v1H1z M9 18h1v1H9z M11 18h2v1H11z M2 19h3v1H2z M8 19h2v1H8z M12 19h2v1H12z M0 20h1v1H0z M3 20h1v1H3z M7 20h4v1H7z M13 20h3v1H13z M0 21h2v1H0z M6 21h3v1H6z M10 21h2v1H10z M15 21h2v1H15z M18 21h2v1H18z M0 22h3v1H0z M5 22h3v1H5z M11 22h2v1H11z M16 22h3v1H16z M21 22h1v1H21z M1 23h2v1H1z M4 23h3v1H4z M12 23h3v1H12z M17 23h1v1H17z M20 23h3v1H20z M2 24h4v1H2z M9 24h2v1H9z M13 24h3v1H13z M19 24h2v1H19z M24 24h1v1H24z"/>
  <path fill="#000000" d="M0 11h2v1H0z M0 12h4v1H0z M0 13h1v1H0z M3 13h3v1H3z M0 14h2v1H0z M5 14h3v1H5z M1 15h2v1H1z M4 15h2v1H4z M8 15h2v1H8z M2 16h3v1H2z M8 16h4v1H8z M0 17h1v1H0z M3 17h1v1H3z M7 17h3v1H7z M11 17h3v1H11z M0 18h1v1H0z M6 18h3v1H6z M10 18h1v1H10z M13 18h4v1H13z M0 19h2v1H0z M5 19h3v1H5z M10 19h2v1H10z M14 19h5v1H14z M1 20h2v1H1z M4 20h3v1H4z M11 20h2v1H11z M16 20h5v1H16z M2 21h4v1H2z M9 21h1v1H9z M12 21h3v1H12z M17 21h1v1H17z M20 21h3v1H20z M3 22h2v1H3z M8 22h3v1H8z M13 22h3v1H13z M19 22h2v1H19z M22 22h2v1H22z M0 23h1v1H0z M3 23h1v1H3z M7 23h5v1H7z M15 23h2v1H15z M18 23h2v1H18z M23 23h2v1H23z M0 24h2v1H0z M6 24h3v1H6z M11 24h2v1H11z M16 24h3v1H16z M21 24h3v1H21z"/>
</svg>
