<svg xmlns="http://www.w3.org/2000/svg" viewBox="0 0 25 25" width="25" height="25" shape-rendering="crispEdges" aria-hidden="true">
  <rect width="25" height="25" fill="#ffffff"/>
  <path fill="#808080" d="M21 0h2v1H21z M18 1h1v1H18z M19 2h2v1H19z M24 2h1v1H24z M20 3h3v1H20z M22 6h1v1H22z M20 13h2v1H20z M19 14h1v1H19z M21 14h2v1H21z M22 15h1v1H22z M19 16h1v1H19z M24 16h1v1H24z M21 17h1v1H21z M19 18h1v1H19z M22 18h1v1H22z M24 18h1v1H24z M19 19h3v1H19z M20 20h1v1H20z M24 20h1v1H24z M20 21h2v1H20z M21 22h1v1H21z M23 22h1v1H23z M23 23h1v1H23z M21 24h2v1H21z"/>
  <path fill="#000000" d="M15 0h1v1H15z M17 0h4v1H17z M23 0h2v1H23z M16 1h2v1H16z M19 1h6v1H19z M16 2h3v1H16z M21 2h3v1H21z M17 3h3v1H17z M23 3h2v1H23z M18 4h7v1H18z M17 5h8v1H17z M18 6h4v1H18z M23 6h2v1H23z M19 7h6v1H19z M19 8h6v1H19z M19 9h6v1H19z M20 10h5v1H20z M21 11h4v1H21z M19 12h6v1H19z M18 13h2v1H18z M22 13h3v1H22z M18 14h1v1H18z M20 14h1v1H20z M23 14h2v1H23z M18 15h4v1H18z M23 15h2v1H23z M18 16h1v1H18z M20 16h4v1H20z M18 17h3v1H18z M22 17h3v1H22z M18 18h1v1H18z M20 18h2v1H20z M23 18h1v1H23z M18 19h1v1H18z M22 19h3v1H22z M19 20h1v1H19z M21 20h3v1H21z M19 21h1v1H19z M22 21h3v1H22z M20 22h1v1H20z M22 22h1v1H22z M24 22h1v1H24z M20 23h3v1H20z M24 23h1v1H24z M20 24h1v1H20z M23 24h2v1H23z"/>
</svg>
