<svg xmlns="http://www.w3.org/2000/svg" viewBox="0 0 25 25" width="25" height="25" shape-rendering="crispEdges" aria-hidden="true">
  <rect width="25" height="25" fill="#ffffff"/>
  <path fill="#808080" d="M1 0h3v1H1z M7 0h1v1H7z M12 0h3v1H12z M16 0h3v1H16z M20 0h3v1H20z M24 0h1v1H24z M0 1h3v1H0z M6 1h4v1H6z M12 1h2v1H12z M15 1h4v1H15z M20 1h3v1H20z M24 1h1v1H24z M0 2h2v1H0z M5 2h1v1H5z M9 2h3v1H9z M15 2h3v1H15z M20 2h3v1H20z M24 2h1v1H24z M3 3h6v1H3z M12 3h4v1H12z M19 3h4v1H19z M24 3h1v1H24z M2 4h3v1H2z M7 4h3v1H7z M14 4h4v1H14z M24 4h1v1H24z M1 5h3v1H1z M8 5h4v1H8z M15 5h6v1H15z M0 6h3v1H0z M10 6h3v1H10z M16 6h4v1H16z M23 6h2v1H23z M0 7h2v1H0z M5 7h2v1H5z M11 7h3v1H11z M17 7h2v1H17z M22 7h2v1H22z M0 8h1v1H0z M4 8h5v1H4z M12 8h4v1H12z M20 8h3v1H20z M3 9h2v1H3z M7 9h3v1H7z M14 9h3v1H14z M19 9h3v1H19z M1 10h3v1H1z M8 10h4v1H8z M15 10h6v1H15z M24 10h1v1H24z M0 11h3v1H0z M6 11h2v1H6z M10 11h3v1H10z M16 11h4v1H16z M23 11h2v1H23z M0 12h2v1H0z M5 12h2v1H5z M11 12h3v1H11z M18 12h1v1H18z M22 12h3v1H22z"/>
  <path fill="#000000" d="M0 0h1v1H0z M4 0h3v1H4z M8 0h4v1H8z M15 0h1v1H15z M19 0h1v1H19z M23 0h1v1H23z M3 1h3v1H3z M10 1h2v1H10z M14 1h1v1H14z M19 1h1v1H19z M23 1h1v1H23z M2 2h3v1H2z M6 2h3v1H6z M12 2h3v1H12z M18 2h2v1H18z M23 2h1v1H23z M0 3h3v1H0z M9 3h3v1H9z M16 3h3v1H16z M23 3h1v1H23z M0 4h2v1H0z M5 4h2v1H5z M10 4h4v1H10z M18 4h6v1H18z M0 5h1v1H0z M4 5h4v1H4z M12 5h3v1H12z M21 5h4v1H21z M3 6h7v1H3z M13 6h3v1H13z M20 6h3v1H20z M2 7h3v1H2z M7 7h4v1H7z M14 7h3v1H14z M19 7h3v1H19z M24 7h1v1H24z M1 8h3v1H1z M9 8h3v1H9z M16 8h4v1H16z M23 8h2v1H23z M0 9h3v1H0z M5 9h2v1H5z M10 9h4v1H10z M17 9h2v1H17z M22 9h3v1H22z M0 10h1v1H0z M4 10h4v1H4z M12 10h3v1H12z M21 10h3v1H21z M3 11h3v1H3z M8 11h2v1H8z M13 11h3v1H13z M20 11h3v1H20z M2 12h3v1H2z M7 12h4v1H7z M14 12h4v1H14z M19 12h3v1H19z"/>
</svg>
