<svg xmlns="http://www.w3.org/2000/svg" viewBox="0 0 25 25" width="25" height="25" shape-rendering="crispEdges" aria-hidden="true">
  <rect width="25" height="25" fill="#ffffff"/>
  <path fill="#808080" d="M0 0h9v1H0z M10 0h1v1H10z M0 1h1v1H0z M2 1h1v1H2z M4 1h2v1H4z M7 1h1v1H7z M11 1h1v1H11z M0 2h2v1H0z M3 2h1v1H3z M5 2h1v1H5z M9 2h1v1H9z M15 2h1v1H15z M1 3h1v1H1z M3 3h1v1H3z M15 3h1v1H15z M2 4h1v1H2z M4 4h1v1H4z M7 4h1v1H7z M14 4h2v1H14z M4 5h1v1H4z M13 5h3v1H13z M1 6h1v1H1z M12 6h4v1H12z M11 7h5v1H11z M9 8h7v1H9z M17 8h1v1H17z M8 9h8v1H8z M18 9h1v1H18z M0 10h1v1H0z M2 10h1v1H2z M4 10h1v1H4z M6 10h11v1H6z M18 10h3v1H18z M1 11h1v1H1z M3 11h14v1H3z M19 11h2v1H19z M23 11h1v1H23z M0 12h1v1H0z M2 12h1v1H2z M4 12h13v1H4z M18 12h1v1H18z M21 12h1v1H21z M23 12h1v1H23z M0 13h17v1H0z M18 13h2v1H18z M23 13h1v1H23z M0 14h16v1H0z M19 14h3v1H19z M23 14h2v1H23z M0 15h16v1H0z M17 15h1v1H17z M20 15h2v1H20z M24 15h1v1H24z M0 16h16v1H0z M17 16h2v1H17z M0 17h15v1H0z M18 17h3v1H18z M0 18h15v1H0z M16 18h2v1H16z M19 18h2v1H19z M22 18h2v1H22z M0 19h14v1H0z M17 19h1v1H17z M20 19h1v1H20z M22 19h3v1H22z M0 20h13v1H0z M15 20h1v1H15z M17 20h2v1H17z M23 20h2v1H23z M0 21h12v1H0z M14 21h2v1H14z M18 21h2v1H18z M24 21h1v1H24z M0 22h10v1H0z M14 22h3v1H14z M18 22h1v1H18z M21 22h1v1H21z M0 23h7v1H0z M11 23h2v1H11z M14 23h5v1H14z M20 23h3v1H20z M7 24h3v1H7z M11 24h3v1H11z M15 24h3v1H15z M20 24h4v1H20z"/>
  <path fill="#000000" d="M9 0h1v1H9z M11 0h6v1H11z M1 1h1v1H1z M3 1h1v1H3z M6 1h1v1H6z M8 1h3v1H8z M12 1h5v1H12z M2 2h1v1H2z M4 2h1v1H4z M6 2h3v1H6z M10 2h5v1H10z M16 2h1v1H16z M0 3h1v1H0z M2 3h1v1H2z M4 3h11v1H4z M16 3h1v1H16z M0 4h2v1H0z M3 4h1v1H3z M5 4h2v1H5z M8 4h6v1H8z M16 4h1v1H16z M0 5h4v1H0z M5 5h8v1H5z M16 5h1v1H16z M0 6h1v1H0z M2 6h10v1H2z M16 6h2v1H16z M0 7h11v1H0z M16 7h2v1H16z M0 8h9v1H0z M16 8h1v1H16z M18 8h2v1H18z M0 9h8v1H0z M16 9h2v1H16z M19 9h2v1H19z M1 10h1v1H1z M3 10h1v1H3z M5 10h1v1H5z M17 10h1v1H17z M21 10h4v1H21z M0 11h1v1H0z M2 11h1v1H2z M17 11h2v1H17z M21 11h2v1H21z M24 11h1v1H24z M1 12h1v1H1z M3 12h1v1H3z M17 12h1v1H17z M19 12h2v1H19z M22 12h1v1H22z M24 12h1v1H24z M17 13h1v1H17z M20 13h3v1H20z M24 13h1v1H24z M16 14h3v1H16z M22 14h1v1H22z M16 15h1v1H16z M18 15h2v1H18z M22 15h2v1H22z M16 16h1v1H16z M19 16h6v1H19z M15 17h3v1H15z M21 17h4v1H21z M15 18h1v1H15z M18 18h1v1H18z M21 18h1v1H21z M24 18h1v1H24z M14 19h3v1H14z M18 19h2v1H18z M21 19h1v1H21z M13 20h2v1H13z M16 20h1v1H16z M19 20h4v1H19z M12 21h2v1H12z M16 21h2v1H16z M20 21h4v1H20z M10 22h4v1H10z M17 22h1v1H17z M19 22h2v1H19z M22 22h3v1H22z M7 23h4v1H7z M13 23h1v1H13z M19 23h1v1H19z M23 23h2v1H23z M0 24h7v1H0z M10 24h1v1H10z M14 24h1v1H14z M18 24h2v1H18z M24 24h1v1H24z"/>
</svg>
