<svg xmlns="http://www.w3.org/2000/svg" viewBox="0 0 25 25" width="25" height="25" shape-rendering="crispEdges" aria-hidden="true">
  <rect width="25" height="25" fill="#ffffff"/>
  <path fill="#808080" d="M22 0h1v1H22z M23 1h1v1H23z M22 2h1v1H22z M23 3h1v1H23z M22 4h1v1H22z M23 5h1v1H23z"/>
  <path fill="#000000" d="M20 0h2v1H20z M23 0h2v1H23z M21 1h2v1H21z M24 1h1v1H24z M21 2h1v1H21z M23 2h2v1H23z M21 3h2v1H21z M24 3h1v1H24z M21 4h1v1H21z M23 4h2v1H23z M22 5h1v1H22z M24 5h1v1H24z M23 6h2v1H23z"/>
</svg>
