<svg xmlns="http://www.w3.org/2000/svg" viewBox="0 0 25 25" width="25" height="25" shape-rendering="crispEdges" aria-hidden="true">
  <rect width="25" height="25" fill="#ffffff"/>
  <path fill="#808080" d="M4 0h1v1H4z M2 1h2v1H2z M1 3h1v1H1z M3 4h1v1H3z M3 13h2v1H3z M2 14h4v1H2z M0 15h1v1H0z M2 15h1v1H2z M5 15h1v1H5z M0 16h1v1H0z M5 16h1v1H5z M0 17h1v1H0z M3 17h1v1H3z M5 17h1v1H5z M0 18h1v1H0z M2 18h2v1H2z M5 18h1v1H5z M0 19h1v1H0z M3 19h3v1H3z M0 20h1v1H0z M3 20h2v1H3z M0 21h1v1H0z M3 21h2v1H3z M1 22h1v1H1z M3 22h1v1H3z M1 23h1v1H1z M3 23h1v1H3z M2 24h2v1H2z"/>
  <path fill="#000000" d="M0 0h4v1H0z M5 0h3v1H5z M0 1h2v1H0z M4 1h3v1H4z M0 2h6v1H0z M0 3h1v1H0z M2 3h4v1H2z M0 4h3v1H0z M4 4h2v1H4z M0 5h5v1H0z M0 6h5v1H0z M0 7h5v1H0z M0 8h5v1H0z M0 9h4v1H0z M0 10h4v1H0z M0 11h4v1H0z M0 12h6v1H0z M0 13h3v1H0z M5 13h2v1H5z M0 14h2v1H0z M6 14h1v1H6z M1 15h1v1H1z M3 15h2v1H3z M6 15h1v1H6z M1 16h4v1H1z M6 16h1v1H6z M1 17h2v1H1z M4 17h1v1H4z M6 17h1v1H6z M1 18h1v1H1z M4 18h1v1H4z M6 18h1v1H6z M1 19h2v1H1z M6 19h1v1H6z M1 20h2v1H1z M5 20h1v1H5z M1 21h2v1H1z M5 21h1v1H5z M0 22h1v1H0z M2 22h1v1H2z M4 22h1v1H4z M0 23h1v1H0z M2 23h1v1H2z M4 23h1v1H4z M0 24h2v1H0z M4 24h1v1H4z"/>
</svg>
