<svg xmlns="http://www.w3.org/2000/svg" viewBox="0 0 25 25" width="25" height="25" shape-rendering="crispEdges" aria-hidden="true">
  <rect width="25" height="25" fill="#ffffff"/>
  <path fill="#808080" d="M24 5h1v1H24z M22 6h1v1H22z M21 7h1v1H21z M24 7h1v1H24z M18 8h1v1H18z M22 8h3v1H22z M17 9h2v1H17z M21 9h2v1H21z M13 10h2v1H13z M18 10h2v1H18z M23 10h2v1H23z M14 11h2v1H14z M19 11h2v1H19z M22 11h3v1H22z M10 12h3v1H10z M14 12h3v1H14z M20 12h1v1H20z M22 12h1v1H22z M9 13h3v1H9z M16 13h3v1H16z M24 13h1v1H24z M3 14h2v1H3z M8 14h3v1H8z M17 14h3v1H17z M24 14h1v1H24z M0 15h4v1H0z M6 15h3v1H6z M13 15h3v1H13z M18 15h5v1H18z M1 16h2v1H1z M5 16h3v1H5z M11 16h2v1H11z M16 16h2v1H16z M20 16h2v1H20z M4 17h3v1H4z M10 17h3v1H10z M17 17h2v1H17z M24 17h1v1H24z M0 18h1v1H0z M3 18h3v1H3z M9 18h3v1H9z M13 18h3v1H13z M19 18h2v1H19z M22 18h3v1H22z M0 19h2v1H0z M3 19h2v1H3z M8 19h3v1H8z M14 19h3v1H14z M20 19h4v1H20z M0 20h4v1H0z M7 20h3v1H7z M13 20h1v1H13z M16 20h2v1H16z M21 20h2v1H21z M2 21h1v1H2z M6 21h3v1H6z M12 21h2v1H12z M17 21h2v1H17z M24 21h1v1H24z M5 22h3v1H5z M11 22h4v1H11z M18 22h2v1H18z M23 22h2v1H23z M0 23h1v1H0z M4 23h3v1H4z M10 23h3v1H10z M14 23h2v1H14z M19 23h2v1H19z M22 23h3v1H22z M0 24h2v1H0z M3 24h3v1H3z M9 24h3v1H9z M15 24h2v1H15z M20 24h4v1H20z"/>
  <path fill="#000000" d="M23 4h2v1H23z M21 5h3v1H21z M19 6h3v1H19z M23 6h2v1H23z M18 7h3v1H18z M22 7h2v1H22z M16 8h2v1H16z M19 8h3v1H19z M14 9h3v1H14z M19 9h2v1H19z M23 9h2v1H23z M10 10h3v1H10z M15 10h3v1H15z M20 10h3v1H20z M8 11h6v1H8z M16 11h3v1H16z M21 11h1v1H21z M6 12h4v1H6z M13 12h1v1H13z M17 12h3v1H17z M21 12h1v1H21z M23 12h2v1H23z M2 13h7v1H2z M12 13h4v1H12z M19 13h5v1H19z M0 14h3v1H0z M5 14h3v1H5z M11 14h6v1H11z M20 14h4v1H20z M4 15h2v1H4z M9 15h4v1H9z M16 15h2v1H16z M23 15h2v1H23z M0 16h1v1H0z M3 16h2v1H3z M8 16h3v1H8z M13 16h3v1H13z M18 16h2v1H18z M22 16h3v1H22z M0 17h4v1H0z M7 17h3v1H7z M13 17h4v1H13z M19 17h5v1H19z M1 18h2v1H1z M6 18h3v1H6z M12 18h1v1H12z M16 18h3v1H16z M21 18h1v1H21z M2 19h1v1H2z M5 19h3v1H5z M11 19h3v1H11z M17 19h3v1H17z M24 19h1v1H24z M4 20h3v1H4z M10 20h3v1H10z M14 20h2v1H14z M18 20h3v1H18z M23 20h2v1H23z M0 21h2v1H0z M3 21h3v1H3z M9 21h3v1H9z M14 21h3v1H14z M19 21h5v1H19z M0 22h5v1H0z M8 22h3v1H8z M15 22h3v1H15z M20 22h3v1H20z M1 23h3v1H1z M7 23h3v1H7z M13 23h1v1H13z M16 23h3v1H16z M21 23h1v1H21z M2 24h1v1H2z M6 24h3v1H6z M12 24h3v1H12z M17 24h3v1H17z M24 24h1v1H24z"/>
</svg>
