<svg xmlns="http://www.w3.org/2000/svg" viewBox="0 0 25 25" width="25" height="25" shape-rendering="crispEdges" aria-hidden="true">
  <rect width="25" height="25" fill="#ffffff"/>
  <path fill="#808080" d="M0 0h5v1H0z M8 0h3v1H8z M13 0h1v1H13z M16 0h1v1H16z M21 0h2v1H21z M1 1h3v1H1z M7 1h3v1H7z M12 1h6v1H12z M21 1h1v1H21z M2 2h1v1H2z M6 2h3v1H6z M11 2h3v1H11z M16 2h3v1H16z M24 2h1v1H24z M0 3h2v1H0z M4 3h3v1H4z M9 3h3v1H9z M13 3h2v1H13z M18 3h7v1H18z M1 4h5v1H1z M8 4h3v1H8z M13 4h3v1H13z M20 4h4v1H20z M2 5h3v1H2z M7 5h3v1H7z M15 5h3v1H15z M22 5h1v1H22z M3 6h1v1H3z M6 6h3v1H6z M12 6h2v1H12z M16 6h3v1H16z M0 7h1v1H0z M5 7h3v1H5z M11 7h3v1H11z M17 7h4v1H17z M24 7h1v1H24z M0 8h3v1H0z M4 8h3v1H4z M10 8h5v1H10z M19 8h3v1H19z M23 8h2v1H23z M0 9h6v1H0z M9 9h3v1H9z M14 9h2v1H14z M20 9h5v1H20z M1 10h4v1H1z M8 10h3v1H8z M15 10h3v1H15z M21 10h3v1H21z M2 11h2v1H2z M7 11h3v1H7z M13 11h1v1H13z M16 11h3v1H16z M22 11h1v1H22z M0 12h1v1H0z M6 12h3v1H6z M12 12h2v1H12z M17 12h3v1H17z M24 12h1v1H24z"/>
  <path fill="#000000" d="M5 0h3v1H5z M11 0h2v1H11z M14 0h2v1H14z M17 0h4v1H17z M23 0h2v1H23z M0 1h1v1H0z M4 1h3v1H4z M10 1h2v1H10z M18 1h3v1H18z M22 1h3v1H22z M0 2h2v1H0z M3 2h3v1H3z M9 2h2v1H9z M14 2h2v1H14z M19 2h5v1H19z M2 3h2v1H2z M7 3h2v1H7z M12 3h1v1H12z M15 3h3v1H15z M0 4h1v1H0z M6 4h2v1H6z M11 4h2v1H11z M16 4h4v1H16z M24 4h1v1H24z M0 5h2v1H0z M5 5h2v1H5z M10 5h5v1H10z M18 5h4v1H18z M23 5h2v1H23z M0 6h3v1H0z M4 6h2v1H4z M9 6h3v1H9z M14 6h2v1H14z M19 6h6v1H19z M1 7h4v1H1z M8 7h3v1H8z M14 7h3v1H14z M21 7h3v1H21z M3 8h1v1H3z M7 8h3v1H7z M15 8h4v1H15z M22 8h1v1H22z M6 9h3v1H6z M12 9h2v1H12z M16 9h4v1H16z M0 10h1v1H0z M5 10h3v1H5z M11 10h4v1H11z M18 10h3v1H18z M24 10h1v1H24z M0 11h2v1H0z M4 11h3v1H4z M10 11h3v1H10z M14 11h2v1H14z M19 11h3v1H19z M23 11h2v1H23z M1 12h5v1H1z M9 12h3v1H9z M14 12h3v1H14z M20 12h4v1H20z"/>
</svg>
