<svg xmlns="http://www.w3.org/2000/svg" viewBox="0 0 25 25" width="25" height="25" shape-rendering="crispEdges" aria-hidden="true">
  <rect width="25" height="25" fill="#ffffff"/>
  <path fill="#808080" d="M14 0h3v1H14z M19 0h3v1H19z M13 1h3v1H13z M20 1h3v1H20z M12 2h2v1H12z M18 2h1v1H18z M21 2h4v1H21z M11 3h1v1H11z M14 3h7v1H14z M24 3h1v1H24z M13 4h3v1H13z M19 4h3v1H19z M12 5h2v1H12z M21 5h3v1H21z M11 6h2v1H11z M16 6h3v1H16z M22 6h3v1H22z M11 7h1v1H11z M14 7h6v1H14z M23 7h2v1H23z M13 8h4v1H13z M19 8h2v1H19z M24 8h1v1H24z M12 9h3v1H12z M19 9h3v1H19z M11 10h2v1H11z M17 10h1v1H17z M20 10h4v1H20z M11 11h1v1H11z M16 11h3v1H16z M21 11h4v1H21z M14 12h5v1H14z M22 12h3v1H22z"/>
  <path fill="#000000" d="M11 0h3v1H11z M17 0h2v1H17z M22 0h3v1H22z M11 1h2v1H11z M16 1h4v1H16z M23 1h2v1H23z M11 2h1v1H11z M14 2h4v1H14z M19 2h2v1H19z M12 3h2v1H12z M21 3h3v1H21z M11 4h2v1H11z M16 4h3v1H16z M22 4h3v1H22z M11 5h1v1H11z M14 5h7v1H14z M24 5h1v1H24z M13 6h3v1H13z M19 6h3v1H19z M12 7h2v1H12z M20 7h3v1H20z M11 8h2v1H11z M17 8h2v1H17z M21 8h3v1H21z M11 9h1v1H11z M15 9h4v1H15z M22 9h3v1H22z M13 10h4v1H13z M18 10h2v1H18z M24 10h1v1H24z M12 11h4v1H12z M19 11h2v1H19z M11 12h3v1H11z M19 12h3v1H19z"/>
</svg>
