<svg xmlns="http://www.w3.org/2000/svg" viewBox="0 0 25 25" width="25" height="25" shape-rendering="crispEdges" aria-hidden="true">
  <rect width="25" height="25" fill="#ffffff"/>
  <path fill="#808080" d="M5 0h1v1H5z M13 0h1v1H13z M17 0h1v1H17z M21 0h1v1H21z M23 0h1v1H23z M3 1h1v1H3z M9 1h3v1H9z M17 1h1v1H17z M22 1h1v1H22z M8 2h1v1H8z M12 2h2v1H12z M17 2h1v1H17z M7 3h1v1H7z M9 3h1v1H9z M13 3h1v1H13z M0 4h2v1H0z M5 4h1v1H5z M8 4h1v1H8z M14 4h1v1H14z M18 4h1v1H18z M22 4h2v1H22z M4 5h1v1H4z M8 5h1v1H8z M11 5h1v1H11z M14 5h1v1H14z M18 5h1v1H18z M21 5h1v1H21z M24 5h1v1H24z M3 6h1v1H3z M8 6h1v1H8z M11 6h1v1H11z M20 6h1v1H20z M3 7h1v1H3z M11 7h1v1H11z M17 7h1v1H17z M0 8h1v1H0z M4 8h1v1H4z M12 8h1v1H12z M16 8h1v1H16z M16 9h1v1H16z M20 9h2v1H20z M0 10h1v1H0z M5 10h1v1H5z M15 10h1v1H15z M19 10h1v1H19z M21 10h2v1H21z M1 11h1v1H1z M5 11h1v1H5z M9 11h1v1H9z M13 11h2v1H13z M18 11h1v1H18z M22 11h2v1H22z M2 12h1v1H2z M10 12h1v1H10z M19 12h1v1H19z M23 12h1v1H23z M0 13h1v1H0z M2 13h1v1H2z M9 13h1v1H9z M22 13h1v1H22z M2 14h1v1H2z M7 14h2v1H7z M17 14h1v1H17z M2 15h2v1H2z M13 15h1v1H13z M16 15h1v1H16z M18 15h4v1H18z M0 16h1v1H0z M3 16h1v1H3z M12 16h1v1H12z M14 16h1v1H14z M16 16h2v1H16z M19 16h4v1H19z M1 17h1v1H1z M4 17h1v1H4z M11 17h1v1H11z M13 17h2v1H13z M17 17h2v1H17z M20 17h3v1H20z M10 18h1v1H10z M12 18h4v1H12z M19 18h5v1H19z M7 19h1v1H7z M9 19h1v1H9z M12 19h13v1H12z M1 20h1v1H1z M5 20h1v1H5z M8 20h1v1H8z M10 20h1v1H10z M12 20h13v1H12z M2 21h1v1H2z M5 21h1v1H5z M7 21h1v1H7z M9 21h1v1H9z M12 21h13v1H12z M3 22h1v1H3z M8 22h1v1H8z M11 22h14v1H11z M5 23h1v1H5z M7 23h1v1H7z M9 23h16v1H9z M4 24h1v1H4z M8 24h17v1H8z"/>
  <path fill="#000000" d="M1 0h4v1H1z M6 0h7v1H6z M14 0h3v1H14z M18 0h3v1H18z M22 0h1v1H22z M24 0h1v1H24z M1 1h2v1H1z M4 1h5v1H4z M12 1h5v1H12z M18 1h4v1H18z M23 1h2v1H23z M0 2h8v1H0z M9 2h3v1H9z M14 2h3v1H14z M18 2h7v1H18z M0 3h7v1H0z M8 3h1v1H8z M10 3h3v1H10z M14 3h11v1H14z M2 4h3v1H2z M6 4h2v1H6z M9 4h5v1H9z M15 4h3v1H15z M19 4h3v1H19z M24 4h1v1H24z M0 5h4v1H0z M5 5h3v1H5z M9 5h2v1H9z M12 5h2v1H12z M15 5h3v1H15z M19 5h2v1H19z M22 5h2v1H22z M0 6h3v1H0z M4 6h4v1H4z M9 6h2v1H9z M12 6h8v1H12z M21 6h4v1H21z M0 7h3v1H0z M4 7h7v1H4z M12 7h5v1H12z M18 7h7v1H18z M1 8h3v1H1z M5 8h7v1H5z M13 8h3v1H13z M17 8h8v1H17z M0 9h16v1H0z M17 9h3v1H17z M22 9h3v1H22z M1 10h4v1H1z M6 10h9v1H6z M16 10h3v1H16z M20 10h1v1H20z M23 10h2v1H23z M0 11h1v1H0z M2 11h3v1H2z M6 11h3v1H6z M10 11h3v1H10z M15 11h3v1H15z M19 11h3v1H19z M24 11h1v1H24z M0 12h2v1H0z M3 12h7v1H3z M11 12h8v1H11z M20 12h3v1H20z M24 12h1v1H24z M1 13h1v1H1z M3 13h6v1H3z M10 13h12v1H10z M23 13h2v1H23z M0 14h2v1H0z M3 14h4v1H3z M9 14h8v1H9z M18 14h7v1H18z M0 15h2v1H0z M4 15h9v1H4z M14 15h2v1H14z M17 15h1v1H17z M22 15h3v1H22z M1 16h2v1H1z M4 16h8v1H4z M13 16h1v1H13z M15 16h1v1H15z M18 16h1v1H18z M23 16h2v1H23z M0 17h1v1H0z M2 17h2v1H2z M5 17h6v1H5z M12 17h1v1H12z M15 17h2v1H15z M19 17h1v1H19z M23 17h2v1H23z M0 18h10v1H0z M11 18h1v1H11z M16 18h3v1H16z M24 18h1v1H24z M0 19h7v1H0z M8 19h1v1H8z M10 19h2v1H10z M0 20h1v1H0z M2 20h3v1H2z M6 20h2v1H6z M9 20h1v1H9z M11 20h1v1H11z M0 21h2v1H0z M3 21h2v1H3z M6 21h1v1H6z M8 21h1v1H8z M10 21h2v1H10z M0 22h3v1H0z M4 22h4v1H4z M9 22h2v1H9z M0 23h5v1H0z M6 23h1v1H6z M8 23h1v1H8z M0 24h4v1H0z M5 24h3v1H5z"/>
</svg>
