<svg xmlns="http://www.w3.org/2000/svg" viewBox="0 0 25 25" width="25" height="25" shape-rendering="crispEdges" aria-hidden="true">
  <rect width="25" height="25" fill="#ffffff"/>
  <path fill="#fefefe" d="M1 18h1v1H1z M1 19h1v1H1z"/>
  <path fill="#808080" d="M0 0h6v1H0z M7 0h3v1H7z M18 0h7v1H18z M0 1h7v1H0z M8 1h17v1H8z M0 2h7v1H0z M8 2h17v1H8z M0 3h3v1H0z M5 3h2v1H5z M8 3h16v1H8z M0 4h2v1H0z M5 4h1v1H5z M7 4h17v1H7z M0 5h1v1H0z M3 5h2v1H3z M6 5h18v1H6z M1 6h23v1H1z M0 7h3v1H0z M4 7h1v1H4z M6 7h18v1H6z M0 8h1v1H0z M5 8h1v1H5z M7 8h1v1H7z M9 8h1v1H9z M11 8h12v1H11z M1 9h1v1H1z M13 9h10v1H13z M0 10h1v1H0z M2 10h1v1H2z M4 10h1v1H4z M6 10h1v1H6z M14 10h8v1H14z M0 11h12v1H0z M15 11h8v1H15z M11 12h2v1H11z M15 12h6v1H15z M22 12h1v1H22z M0 13h10v1H0z M12 13h2v1H12z M15 13h5v1H15z M21 13h1v1H21z M0 14h8v1H0z M13 14h1v1H13z M15 14h5v1H15z M21 14h1v1H21z M13 15h1v1H13z M15 15h3v1H15z M19 15h2v1H19z M13 16h1v1H13z M15 16h4v1H15z M12 17h6v1H12z M2 18h3v1H2z M11 18h6v1H11z M2 19h4v1H2z M10 19h4v1H10z M15 19h2v1H15z M0 20h7v1H0z M9 20h6v1H9z M16 20h1v1H16z M0 21h5v1H0z M8 21h6v1H8z M17 21h1v1H17z M6 22h7v1H6z M0 23h13v1H0z M14 23h1v1H14z M18 23h1v1H18z M0 24h12v1H0z M13 24h1v1H13z"/>
  <path fill="#000000" d="M6 0h1v1H6z M10 0h8v1H10z M7 1h1v1H7z M7 2h1v1H7z M3 3h2v1H3z M7 3h1v1H7z M24 3h1v1H24z M2 4h3v1H2z M6 4h1v1H6z M24 4h1v1H24z M1 5h2v1H1z M5 5h1v1H5z M24 5h1v1H24z M0 6h1v1H0z M24 6h1v1H24z M3 7h1v1H3z M5 7h1v1H5z M24 7h1v1H24z M1 8h4v1H1z M6 8h1v1H6z M8 8h1v1H8z M10 8h1v1H10z M23 8h2v1H23z M0 9h1v1H0z M2 9h11v1H2z M23 9h2v1H23z M1 10h1v1H1z M3 10h1v1H3z M5 10h1v1H5z M7 10h7v1H7z M22 10h3v1H22z M12 11h3v1H12z M23 11h1v1H23z M0 12h11v1H0z M13 12h2v1H13z M21 12h1v1H21z M23 12h1v1H23z M10 13h2v1H10z M14 13h1v1H14z M20 13h1v1H20z M22 13h2v1H22z M8 14h5v1H8z M14 14h1v1H14z M20 14h1v1H20z M22 14h2v1H22z M0 15h13v1H0z M14 15h1v1H14z M18 15h1v1H18z M21 15h2v1H21z M0 16h13v1H0z M14 16h1v1H14z M19 16h4v1H19z M0 17h12v1H0z M18 17h4v1H18z M0 18h1v1H0z M5 18h6v1H5z M17 18h4v1H17z M0 19h1v1H0z M6 19h4v1H6z M14 19h1v1H14z M17 19h4v1H17z M7 20h2v1H7z M15 20h1v1H15z M17 20h3v1H17z M5 21h3v1H5z M14 21h3v1H14z M18 21h2v1H18z M0 22h6v1H0z M13 22h6v1H13z M13 23h1v1H13z M15 23h3v1H15z M12 24h1v1H12z M14 24h4v1H14z"/>
</svg>
