<svg xmlns="http://www.w3.org/2000/svg" viewBox="0 0 25 25" width="25" height="25" shape-rendering="crispEdges" aria-hidden="true">
  <rect width="25" height="25" fill="#ffffff"/>
  <path fill="#fefefe" d="M19 14h6v1H19z"/>
  <path fill="#808080" d="M1 0h1v1H1z M3 0h4v1H3z M15 0h3v1H15z M19 0h1v1H19z M22 0h3v1H22z M0 1h1v1H0z M2 1h1v1H2z M4 1h13v1H4z M18 1h1v1H18z M20 1h5v1H20z M1 2h1v1H1z M3 2h14v1H3z M19 2h1v1H19z M21 2h4v1H21z M2 3h1v1H2z M4 3h13v1H4z M18 3h1v1H18z M22 3h3v1H22z M1 4h1v1H1z M3 4h15v1H3z M19 4h1v1H19z M23 4h2v1H23z M2 5h1v1H2z M4 5h15v1H4z M20 5h1v1H20z M22 5h1v1H22z M24 5h1v1H24z M1 6h1v1H1z M3 6h1v1H3z M5 6h19v1H5z M2 7h1v1H2z M4 7h1v1H4z M6 7h15v1H6z M22 7h1v1H22z M24 7h1v1H24z M3 8h1v1H3z M5 8h15v1H5z M2 9h1v1H2z M4 9h1v1H4z M6 9h12v1H6z M3 10h1v1H3z M5 10h10v1H5z M2 11h1v1H2z M4 11h1v1H4z M7 11h7v1H7z M20 11h1v1H20z M22 11h3v1H22z M5 12h1v1H5z M7 12h5v1H7z M18 12h7v1H18z M3 13h2v1H3z M7 13h5v1H7z M16 13h3v1H16z M3 14h1v1H3z M5 14h2v1H5z M8 14h3v1H8z M14 14h3v1H14z M5 15h3v1H5z M9 15h2v1H9z M13 15h2v1H13z M2 16h1v1H2z M4 16h1v1H4z M7 16h5v1H7z M13 16h3v1H13z M7 17h1v1H7z M9 17h8v1H9z M22 17h1v1H22z M24 17h1v1H24z M8 18h1v1H8z M10 18h2v1H10z M13 18h5v1H13z M21 18h1v1H21z M23 18h1v1H23z M7 19h1v1H7z M9 19h2v1H9z M12 19h8v1H12z M7 20h1v1H7z M11 20h1v1H11z M14 20h11v1H14z M9 21h1v1H9z M13 21h1v1H13z M15 21h10v1H15z M8 22h1v1H8z M14 22h1v1H14z M16 22h4v1H16z M21 22h4v1H21z M13 23h1v1H13z M15 23h6v1H15z M12 24h1v1H12z M14 24h1v1H14z M16 24h6v1H16z"/>
  <path fill="#000000" d="M0 0h1v1H0z M2 0h1v1H2z M7 0h8v1H7z M18 0h1v1H18z M20 0h2v1H20z M1 1h1v1H1z M3 1h1v1H3z M17 1h1v1H17z M19 1h1v1H19z M0 2h1v1H0z M2 2h1v1H2z M17 2h2v1H17z M20 2h1v1H20z M0 3h2v1H0z M3 3h1v1H3z M17 3h1v1H17z M19 3h3v1H19z M0 4h1v1H0z M2 4h1v1H2z M18 4h1v1H18z M20 4h3v1H20z M0 5h2v1H0z M3 5h1v1H3z M19 5h1v1H19z M21 5h1v1H21z M23 5h1v1H23z M0 6h1v1H0z M2 6h1v1H2z M4 6h1v1H4z M24 6h1v1H24z M0 7h2v1H0z M3 7h1v1H3z M5 7h1v1H5z M21 7h1v1H21z M23 7h1v1H23z M0 8h3v1H0z M4 8h1v1H4z M20 8h5v1H20z M0 9h2v1H0z M3 9h1v1H3z M5 9h1v1H5z M18 9h7v1H18z M0 10h3v1H0z M4 10h1v1H4z M15 10h10v1H15z M1 11h1v1H1z M3 11h1v1H3z M5 11h2v1H5z M14 11h6v1H14z M21 11h1v1H21z M1 12h4v1H1z M6 12h1v1H6z M12 12h6v1H12z M1 13h2v1H1z M5 13h2v1H5z M12 13h4v1H12z M19 13h6v1H19z M1 14h2v1H1z M4 14h1v1H4z M7 14h1v1H7z M11 14h3v1H11z M17 14h2v1H17z M2 15h3v1H2z M8 15h1v1H8z M11 15h2v1H11z M15 15h10v1H15z M3 16h1v1H3z M5 16h2v1H5z M12 16h1v1H12z M16 16h9v1H16z M3 17h4v1H3z M8 17h1v1H8z M17 17h5v1H17z M23 17h1v1H23z M3 18h5v1H3z M9 18h1v1H9z M12 18h1v1H12z M18 18h3v1H18z M22 18h1v1H22z M24 18h1v1H24z M4 19h3v1H4z M8 19h1v1H8z M11 19h1v1H11z M20 19h5v1H20z M5 20h2v1H5z M8 20h3v1H8z M12 20h2v1H12z M5 21h4v1H5z M10 21h3v1H10z M14 21h1v1H14z M5 22h3v1H5z M9 22h5v1H9z M15 22h1v1H15z M20 22h1v1H20z M5 23h8v1H5z M14 23h1v1H14z M21 23h4v1H21z M5 24h7v1H5z M13 24h1v1H13z M15 24h1v1H15z M22 24h3v1H22z"/>
</svg>
