<svg xmlns="http://www.w3.org/2000/svg" viewBox="0 0 25 25" width="25" height="25" shape-rendering="crispEdges" aria-hidden="true">
  <rect width="25" height="25" fill="#ffffff"/>
  <path fill="#808080" d="M0 0h6v1H0z M7 0h3v1H7z M18 0h7v1H18z M0 1h7v1H0z M8 1h17v1H8z M0 2h7v1H0z M8 2h17v1H8z M0 3h3v1H0z M5 3h2v1H5z M8 3h16v1H8z M0 4h2v1H0z M5 4h1v1H5z M7 4h17v1H7z M0 5h1v1H0z M3 5h2v1H3z M6 5h18v1H6z M1 6h23v1H1z M0 7h3v1H0z M4 7h1v1H4z M6 7h18v1H6z M0 8h1v1H0z M5 8h1v1H5z M7 8h1v1H7z M9 8h1v1H9z M11 8h12v1H11z M13 9h10v1H13z M0 10h2v1H0z M4 10h1v1H4z M6 10h1v1H6z M15 10h7v1H15z M2 11h4v1H2z M7 11h1v1H7z M11 11h1v1H11z M16 11h7v1H16z M0 12h12v1H0z M16 12h5v1H16z M22 12h1v1H22z M13 13h1v1H13z M16 13h4v1H16z M21 13h1v1H21z M0 14h9v1H0z M12 14h2v1H12z M15 14h5v1H15z M21 14h1v1H21z M0 15h8v1H0z M10 15h4v1H10z M15 15h3v1H15z M19 15h2v1H19z M0 16h7v1H0z M9 16h10v1H9z M22 16h1v1H22z M0 17h19v1H0z M0 18h13v1H0z M14 18h3v1H14z M0 19h5v1H0z M6 19h7v1H6z M15 19h2v1H15z M5 20h7v1H5z M13 20h1v1H13z M16 20h1v1H16z M2 21h1v1H2z M4 21h9v1H4z M17 21h1v1H17z M2 22h9v1H2z M12 22h1v1H12z M1 23h11v1H1z M13 23h1v1H13z M0 24h10v1H0z M11 24h1v1H11z"/>
  <path fill="#000000" d="M6 0h1v1H6z M10 0h8v1H10z M7 1h1v1H7z M7 2h1v1H7z M3 3h2v1H3z M7 3h1v1H7z M24 3h1v1H24z M2 4h3v1H2z M6 4h1v1H6z M24 4h1v1H24z M1 5h2v1H1z M5 5h1v1H5z M24 5h1v1H24z M0 6h1v1H0z M24 6h1v1H24z M3 7h1v1H3z M5 7h1v1H5z M24 7h1v1H24z M1 8h4v1H1z M6 8h1v1H6z M8 8h1v1H8z M10 8h1v1H10z M23 8h2v1H23z M0 9h13v1H0z M23 9h2v1H23z M2 10h2v1H2z M5 10h1v1H5z M7 10h8v1H7z M22 10h3v1H22z M0 11h2v1H0z M6 11h1v1H6z M8 11h3v1H8z M12 11h4v1H12z M23 11h1v1H23z M12 12h4v1H12z M21 12h1v1H21z M23 12h1v1H23z M0 13h13v1H0z M14 13h2v1H14z M20 13h1v1H20z M22 13h2v1H22z M9 14h3v1H9z M14 14h1v1H14z M20 14h1v1H20z M22 14h2v1H22z M8 15h2v1H8z M14 15h1v1H14z M18 15h1v1H18z M21 15h2v1H21z M7 16h2v1H7z M19 16h3v1H19z M19 17h3v1H19z M13 18h1v1H13z M17 18h4v1H17z M5 19h1v1H5z M13 19h2v1H13z M17 19h4v1H17z M0 20h5v1H0z M12 20h1v1H12z M14 20h2v1H14z M17 20h3v1H17z M0 21h2v1H0z M3 21h1v1H3z M13 21h4v1H13z M18 21h2v1H18z M0 22h2v1H0z M11 22h1v1H11z M13 22h6v1H13z M0 23h1v1H0z M12 23h1v1H12z M14 23h4v1H14z M10 24h1v1H10z M12 24h6v1H12z"/>
</svg>
