<svg xmlns="http://www.w3.org/2000/svg" viewBox="0 0 25 25" width="25" height="25" shape-rendering="crispEdges" aria-hidden="true">
  <rect width="25" height="25" fill="#ffffff"/>
  <path fill="#808080" d="M0 0h6v1H0z M7 0h3v1H7z M18 0h7v1H18z M0 1h7v1H0z M8 1h17v1H8z M0 2h7v1H0z M8 2h17v1H8z M0 3h3v1H0z M5 3h2v1H5z M8 3h16v1H8z M0 4h2v1H0z M5 4h1v1H5z M7 4h4v1H7z M12 4h12v1H12z M0 5h1v1H0z M3 5h2v1H3z M6 5h6v1H6z M13 5h11v1H13z M1 6h12v1H1z M14 6h10v1H14z M0 7h3v1H0z M4 7h1v1H4z M6 7h8v1H6z M15 7h9v1H15z M0 8h1v1H0z M5 8h1v1H5z M9 8h1v1H9z M11 8h4v1H11z M16 8h7v1H16z M0 9h1v1H0z M14 9h1v1H14z M16 9h7v1H16z M1 10h1v1H1z M4 10h1v1H4z M6 10h1v1H6z M8 10h1v1H8z M16 10h6v1H16z M0 11h10v1H0z M11 11h1v1H11z M16 11h7v1H16z M0 12h11v1H0z M13 12h1v1H13z M16 12h5v1H16z M22 12h1v1H22z M0 13h1v1H0z M12 13h2v1H12z M16 13h4v1H16z M21 13h1v1H21z M6 14h2v1H6z M11 14h3v1H11z M15 14h5v1H15z M21 14h1v1H21z M6 15h1v1H6z M10 15h11v1H10z M0 16h4v1H0z M8 16h12v1H8z M22 16h1v1H22z M0 17h19v1H0z M0 18h7v1H0z M8 18h5v1H8z M14 18h3v1H14z M18 18h1v1H18z M0 19h5v1H0z M7 19h6v1H7z M15 19h2v1H15z M6 20h6v1H6z M13 20h1v1H13z M16 20h1v1H16z M4 21h9v1H4z M17 21h1v1H17z M2 22h1v1H2z M4 22h7v1H4z M12 22h1v1H12z M1 23h11v1H1z M13 23h1v1H13z M18 23h1v1H18z M0 24h10v1H0z M11 24h1v1H11z"/>
  <path fill="#000000" d="M6 0h1v1H6z M10 0h8v1H10z M7 1h1v1H7z M7 2h1v1H7z M3 3h2v1H3z M7 3h1v1H7z M24 3h1v1H24z M2 4h3v1H2z M6 4h1v1H6z M11 4h1v1H11z M24 4h1v1H24z M1 5h2v1H1z M5 5h1v1H5z M12 5h1v1H12z M24 5h1v1H24z M0 6h1v1H0z M13 6h1v1H13z M24 6h1v1H24z M3 7h1v1H3z M5 7h1v1H5z M14 7h1v1H14z M24 7h1v1H24z M1 8h4v1H1z M6 8h3v1H6z M10 8h1v1H10z M15 8h1v1H15z M23 8h2v1H23z M1 9h13v1H1z M15 9h1v1H15z M23 9h2v1H23z M0 10h1v1H0z M2 10h2v1H2z M5 10h1v1H5z M7 10h1v1H7z M9 10h7v1H9z M22 10h3v1H22z M10 11h1v1H10z M12 11h4v1H12z M23 11h1v1H23z M11 12h2v1H11z M14 12h2v1H14z M21 12h1v1H21z M23 12h1v1H23z M1 13h11v1H1z M14 13h2v1H14z M20 13h1v1H20z M22 13h2v1H22z M0 14h1v1H0z M8 14h3v1H8z M14 14h1v1H14z M20 14h1v1H20z M22 14h2v1H22z M7 15h3v1H7z M21 15h2v1H21z M4 16h4v1H4z M20 16h2v1H20z M19 17h3v1H19z M7 18h1v1H7z M13 18h1v1H13z M17 18h1v1H17z M19 18h2v1H19z M5 19h2v1H5z M13 19h2v1H13z M17 19h4v1H17z M0 20h6v1H0z M12 20h1v1H12z M14 20h2v1H14z M17 20h3v1H17z M0 21h4v1H0z M13 21h4v1H13z M18 21h2v1H18z M0 22h2v1H0z M3 22h1v1H3z M11 22h1v1H11z M13 22h6v1H13z M0 23h1v1H0z M12 23h1v1H12z M14 23h4v1H14z M10 24h1v1H10z M12 24h6v1H12z"/>
</svg>
