<svg xmlns="http://www.w3.org/2000/svg" viewBox="0 0 25 25" width="25" height="25" shape-rendering="crispEdges" aria-hidden="true">
  <rect width="25" height="25" fill="#ffffff"/>
  <path fill="#808080" d="M1 0h1v1H1z M3 0h4v1H3z M15 0h3v1H15z M19 0h1v1H19z M22 0h3v1H22z M0 1h1v1H0z M2 1h1v1H2z M4 1h13v1H4z M18 1h1v1H18z M20 1h5v1H20z M1 2h1v1H1z M3 2h14v1H3z M19 2h1v1H19z M21 2h4v1H21z M2 3h1v1H2z M4 3h13v1H4z M18 3h1v1H18z M22 3h3v1H22z M1 4h1v1H1z M3 4h10v1H3z M14 4h4v1H14z M19 4h1v1H19z M23 4h2v1H23z M2 5h1v1H2z M4 5h8v1H4z M13 5h6v1H13z M20 5h1v1H20z M22 5h1v1H22z M24 5h1v1H24z M1 6h1v1H1z M3 6h1v1H3z M5 6h6v1H5z M12 6h12v1H12z M2 7h1v1H2z M4 7h1v1H4z M6 7h4v1H6z M11 7h8v1H11z M20 7h1v1H20z M22 7h1v1H22z M24 7h1v1H24z M3 8h1v1H3z M5 8h4v1H5z M10 8h7v1H10z M19 8h1v1H19z M24 8h1v1H24z M2 9h1v1H2z M4 9h1v1H4z M6 9h3v1H6z M10 9h2v1H10z M18 9h1v1H18z M24 9h1v1H24z M3 10h1v1H3z M5 10h4v1H5z M10 10h1v1H10z M19 10h1v1H19z M2 11h1v1H2z M4 11h1v1H4z M6 11h3v1H6z M13 11h1v1H13z M17 11h8v1H17z M5 12h4v1H5z M13 12h12v1H13z M3 13h2v1H3z M6 13h3v1H6z M11 13h1v1H11z M24 13h1v1H24z M3 14h1v1H3z M5 14h5v1H5z M11 14h3v1H11z M17 14h3v1H17z M24 14h1v1H24z M5 15h10v1H5z M18 15h2v1H18z M21 15h1v1H21z M4 16h1v1H4z M7 16h10v1H7z M22 16h3v1H22z M9 17h16v1H9z M8 18h1v1H8z M10 18h2v1H10z M13 18h4v1H13z M18 18h7v1H18z M7 19h1v1H7z M9 19h2v1H9z M12 19h7v1H12z M20 19h5v1H20z M7 20h1v1H7z M11 20h1v1H11z M14 20h6v1H14z M9 21h1v1H9z M13 21h1v1H13z M15 21h7v1H15z M8 22h1v1H8z M14 22h1v1H14z M16 22h6v1H16z M23 22h1v1H23z M6 23h1v1H6z M13 23h1v1H13z M15 23h10v1H15z M6 24h1v1H6z M12 24h1v1H12z M14 24h1v1H14z M16 24h9v1H16z"/>
  <path fill="#000000" d="M0 0h1v1H0z M2 0h1v1H2z M7 0h8v1H7z M18 0h1v1H18z M20 0h2v1H20z M1 1h1v1H1z M3 1h1v1H3z M17 1h1v1H17z M19 1h1v1H19z M0 2h1v1H0z M2 2h1v1H2z M17 2h2v1H17z M20 2h1v1H20z M0 3h2v1H0z M3 3h1v1H3z M17 3h1v1H17z M19 3h3v1H19z M0 4h1v1H0z M2 4h1v1H2z M13 4h1v1H13z M18 4h1v1H18z M20 4h3v1H20z M0 5h2v1H0z M3 5h1v1H3z M12 5h1v1H12z M19 5h1v1H19z M21 5h1v1H21z M23 5h1v1H23z M0 6h1v1H0z M2 6h1v1H2z M4 6h1v1H4z M11 6h1v1H11z M24 6h1v1H24z M0 7h2v1H0z M3 7h1v1H3z M5 7h1v1H5z M10 7h1v1H10z M19 7h1v1H19z M21 7h1v1H21z M23 7h1v1H23z M0 8h3v1H0z M4 8h1v1H4z M9 8h1v1H9z M17 8h2v1H17z M20 8h4v1H20z M0 9h2v1H0z M3 9h1v1H3z M5 9h1v1H5z M9 9h1v1H9z M12 9h6v1H12z M19 9h5v1H19z M0 10h3v1H0z M4 10h1v1H4z M9 10h1v1H9z M11 10h8v1H11z M20 10h5v1H20z M1 11h1v1H1z M3 11h1v1H3z M5 11h1v1H5z M9 11h4v1H9z M14 11h3v1H14z M1 12h4v1H1z M9 12h4v1H9z M1 13h2v1H1z M5 13h1v1H5z M9 13h2v1H9z M12 13h12v1H12z M1 14h2v1H1z M4 14h1v1H4z M10 14h1v1H10z M14 14h3v1H14z M2 15h3v1H2z M15 15h3v1H15z M2 16h2v1H2z M5 16h2v1H5z M17 16h5v1H17z M3 17h6v1H3z M3 18h5v1H3z M9 18h1v1H9z M12 18h1v1H12z M17 18h1v1H17z M4 19h3v1H4z M8 19h1v1H8z M11 19h1v1H11z M19 19h1v1H19z M5 20h2v1H5z M8 20h3v1H8z M12 20h2v1H12z M20 20h5v1H20z M5 21h4v1H5z M10 21h3v1H10z M14 21h1v1H14z M22 21h3v1H22z M5 22h3v1H5z M9 22h5v1H9z M15 22h1v1H15z M22 22h1v1H22z M24 22h1v1H24z M5 23h1v1H5z M7 23h6v1H7z M14 23h1v1H14z M5 24h1v1H5z M7 24h5v1H7z M13 24h1v1H13z M15 24h1v1H15z"/>
</svg>
