<svg xmlns="http://www.w3.org/2000/svg" viewBox="0 0 25 25" width="25" height="25" shape-rendering="crispEdges" aria-hidden="true">
  <rect width="25" height="25" fill="#ffffff"/>
  <path fill="#808080" d="M20 0h1v1H20z M22 0h2v1H22z M19 1h1v1H19z M22 1h3v1H22z M20 2h1v1H20z M22 2h3v1H22z M1 3h1v1H1z M3 3h1v1H3z M5 3h1v1H5z M19 3h1v1H19z M22 3h3v1H22z M0 4h1v1H0z M2 4h1v1H2z M4 4h1v1H4z M6 4h1v1H6z M8 4h2v1H8z M18 4h1v1H18z M20 4h1v1H20z M22 4h3v1H22z M1 5h1v1H1z M3 5h1v1H3z M5 5h1v1H5z M7 5h1v1H7z M10 5h1v1H10z M12 5h1v1H12z M19 5h1v1H19z M22 5h3v1H22z M0 6h10v1H0z M11 6h1v1H11z M13 6h1v1H13z M15 6h1v1H15z M22 6h3v1H22z M0 7h13v1H0z M14 7h1v1H14z M16 7h2v1H16z M22 7h3v1H22z M0 8h16v1H0z M17 8h1v1H17z M22 8h3v1H22z M0 9h17v1H0z M18 9h1v1H18z M21 9h4v1H21z M0 10h19v1H0z M22 10h3v1H22z M0 11h18v1H0z M19 11h1v1H19z M24 11h1v1H24z M0 12h17v1H0z M19 12h1v1H19z M21 12h2v1H21z M24 12h1v1H24z M0 13h20v1H0z M21 13h2v1H21z M0 14h17v1H0z M19 14h1v1H19z M21 14h3v1H21z M0 15h20v1H0z M21 15h4v1H21z M0 16h17v1H0z M19 16h1v1H19z M21 16h4v1H21z M0 17h20v1H0z M21 17h4v1H21z M0 18h17v1H0z M19 18h1v1H19z M21 18h4v1H21z M0 19h16v1H0z M17 19h3v1H17z M21 19h4v1H21z M0 20h17v1H0z M19 20h1v1H19z M21 20h4v1H21z M0 21h16v1H0z M18 21h1v1H18z M21 21h4v1H21z M0 22h17v1H0z M18 22h1v1H18z M21 22h4v1H21z M0 23h16v1H0z M17 23h2v1H17z M20 23h5v1H20z M0 24h15v1H0z M16 24h1v1H16z M20 24h5v1H20z"/>
  <path fill="#000000" d="M18 0h2v1H18z M21 0h1v1H21z M24 0h1v1H24z M18 1h1v1H18z M20 1h2v1H20z M0 2h8v1H0z M18 2h2v1H18z M21 2h1v1H21z M0 3h1v1H0z M2 3h1v1H2z M4 3h1v1H4z M6 3h6v1H6z M18 3h1v1H18z M20 3h2v1H20z M1 4h1v1H1z M3 4h1v1H3z M5 4h1v1H5z M7 4h1v1H7z M10 4h5v1H10z M17 4h1v1H17z M19 4h1v1H19z M21 4h1v1H21z M0 5h1v1H0z M2 5h1v1H2z M4 5h1v1H4z M6 5h1v1H6z M8 5h2v1H8z M11 5h1v1H11z M13 5h6v1H13z M20 5h2v1H20z M10 6h1v1H10z M12 6h1v1H12z M14 6h1v1H14z M16 6h6v1H16z M13 7h1v1H13z M15 7h1v1H15z M18 7h4v1H18z M16 8h1v1H16z M18 8h4v1H18z M17 9h1v1H17z M19 9h2v1H19z M19 10h3v1H19z M18 11h1v1H18z M20 11h4v1H20z M17 12h2v1H17z M20 12h1v1H20z M23 12h1v1H23z M20 13h1v1H20z M24 13h1v1H24z M17 14h2v1H17z M20 14h1v1H20z M24 14h1v1H24z M20 15h1v1H20z M17 16h2v1H17z M20 16h1v1H20z M20 17h1v1H20z M17 18h2v1H17z M20 18h1v1H20z M16 19h1v1H16z M20 19h1v1H20z M17 20h2v1H17z M20 20h1v1H20z M16 21h2v1H16z M19 21h2v1H19z M17 22h1v1H17z M19 22h2v1H19z M16 23h1v1H16z M19 23h1v1H19z M15 24h1v1H15z M17 24h3v1H17z"/>
</svg>
