<svg xmlns="http://www.w3.org/2000/svg" viewBox="0 0 25 25" width="25" height="25" shape-rendering="crispEdges" aria-hidden="true">
  <path fill="#ffffff" fill-rule="evenodd" d="M0 0h25v25H0z M0 9h18v16H0z"/>
  <path fill="#808080" d="M0 0h7v1H0z M8 0h4v1H8z M18 0h4v1H18z M23 0h2v1H23z M0 1h7v1H0z M12 1h10v1H12z M23 1h2v1H23z M0 2h5v1H0z M8 2h14v1H8z M23 2h2v1H23z M0 3h3v1H0z M5 3h2v1H5z M8 3h13v1H8z M22 3h3v1H22z M5 4h1v1H5z M7 4h14v1H7z M22 4h3v1H22z M0 5h1v1H0z M3 5h2v1H3z M6 5h15v1H6z M22 5h2v1H22z M1 6h20v1H1z M22 6h2v1H22z M0 7h21v1H0z M22 7h2v1H22z M0 8h1v1H0z M2 8h1v1H2z M4 8h1v1H4z M6 8h14v1H6z M22 8h2v1H22z M18 9h2v1H18z M22 9h1v1H22z M18 10h2v1H18z M21 10h1v1H21z M18 11h2v1H18z M22 11h1v1H22z M18 12h1v1H18z M22 12h1v1H22z M18 13h1v1H18z M21 13h1v1H21z M18 14h1v1H18z M21 14h1v1H21z M20 15h1v1H20z M18 16h1v1H18z M22 18h1v1H22z M22 19h1v1H22z M21 20h2v1H21z M20 21h2v1H20z M23 21h1v1H23z M19 22h2v1H19z M22 22h2v1H22z M18 23h2v1H18z M21 23h3v1H21z M18 24h1v1H18z M20 24h4v1H20z"/>
  <path fill="#000000" d="M7 0h1v1H7z M12 0h6v1H12z M22 0h1v1H22z M7 1h5v1H7z M22 1h1v1H22z M5 2h3v1H5z M22 2h1v1H22z M3 3h2v1H3z M7 3h1v1H7z M21 3h1v1H21z M0 4h5v1H0z M6 4h1v1H6z M21 4h1v1H21z M1 5h2v1H1z M5 5h1v1H5z M21 5h1v1H21z M24 5h1v1H24z M0 6h1v1H0z M21 6h1v1H21z M24 6h1v1H24z M21 7h1v1H21z M24 7h1v1H24z M1 8h1v1H1z M3 8h1v1H3z M5 8h1v1H5z M20 8h2v1H20z M24 8h1v1H24z M20 9h2v1H20z M23 9h2v1H23z M20 10h1v1H20z M22 10h3v1H22z M20 11h2v1H20z M23 11h1v1H23z M19 12h3v1H19z M23 12h1v1H23z M19 13h2v1H19z M22 13h2v1H22z M19 14h2v1H19z M22 14h2v1H22z M18 15h2v1H18z M21 15h2v1H21z M19 16h4v1H19z M18 17h6v1H18z M18 18h4v1H18z M23 18h2v1H23z M18 19h4v1H18z M23 19h2v1H23z M18 20h3v1H18z M23 20h2v1H23z M18 21h2v1H18z M22 21h1v1H22z M24 21h1v1H24z M18 22h1v1H18z M21 22h1v1H21z M24 22h1v1H24z M20 23h1v1H20z M24 23h1v1H24z M19 24h1v1H19z M24 24h1v1H24z"/>
</svg>
