<svg xmlns="http://www.w3.org/2000/svg" viewBox="0 0 25 25" width="25" height="25" shape-rendering="crispEdges" aria-hidden="true">
  <rect width="25" height="25" fill="#ffffff"/>
  <path fill="#808080" d="M0 5h1v1H0z M0 6h1v1H0z M0 7h1v1H0z M0 8h1v1H0z M0 9h1v1H0z M0 10h1v1H0z M0 11h1v1H0z M0 12h2v1H0z M0 13h2v1H0z M1 14h1v1H1z M1 15h1v1H1z M0 16h1v1H0z M0 17h1v1H0z M0 18h2v1H0z M0 19h2v1H0z M0 20h2v1H0z M0 21h2v1H0z M0 22h2v1H0z M0 23h3v1H0z M0 24h3v1H0z"/>
  <path fill="#000000" d="M0 0h1v1H0z M0 1h1v1H0z M0 2h1v1H0z M0 3h1v1H0z M0 4h2v1H0z M1 5h1v1H1z M1 6h1v1H1z M1 7h1v1H1z M1 8h1v1H1z M1 9h1v1H1z M1 10h1v1H1z M1 11h2v1H1z M2 12h1v1H2z M2 13h1v1H2z M0 14h1v1H0z M2 14h1v1H2z M0 15h1v1H0z M2 15h1v1H2z M1 16h2v1H1z M1 17h2v1H1z M2 18h1v1H2z M2 19h1v1H2z M2 20h2v1H2z M2 21h2v1H2z M2 22h2v1H2z M3 23h1v1H3z M3 24h1v1H3z"/>
</svg>
