<svg xmlns="http://www.w3.org/2000/svg" viewBox="0 0 25 25" width="25" height="25" shape-rendering="crispEdges" aria-hidden="true">
  <rect width="25" height="25" fill="#ffffff"/>
  <path fill="#808080" d="M22 0h1v1H22z M24 0h1v1H24z M23 1h1v1H23z M22 2h1v1H22z M24 2h1v1H24z M22 3h2v1H22z M22 4h1v1H22z M24 4h1v1H24z M22 5h1v1H22z M24 5h1v1H24z M22 6h2v1H22z M22 7h1v1H22z M24 7h1v1H24z M22 8h2v1H22z M22 9h1v1H22z M24 9h1v1H24z M22 10h2v1H22z M22 11h1v1H22z M24 11h1v1H24z M22 12h2v1H22z M22 13h1v1H22z M24 13h1v1H24z M22 14h3v1H22z M22 15h2v1H22z M22 16h3v1H22z M22 17h2v1H22z M22 18h3v1H22z M22 19h2v1H22z M23 20h2v1H23z M23 21h1v1H23z M23 22h2v1H23z M24 23h1v1H24z M24 24h1v1H24z"/>
  <path fill="#000000" d="M21 0h1v1H21z M23 0h1v1H23z M21 1h2v1H21z M24 1h1v1H24z M21 2h1v1H21z M23 2h1v1H23z M21 3h1v1H21z M24 3h1v1H24z M21 4h1v1H21z M23 4h1v1H23z M21 5h1v1H21z M23 5h1v1H23z M21 6h1v1H21z M24 6h1v1H24z M21 7h1v1H21z M23 7h1v1H23z M21 8h1v1H21z M24 8h1v1H24z M21 9h1v1H21z M23 9h1v1H23z M21 10h1v1H21z M24 10h1v1H24z M21 11h1v1H21z M23 11h1v1H23z M21 12h1v1H21z M24 12h1v1H24z M21 13h1v1H21z M23 13h1v1H23z M21 14h1v1H21z M21 15h1v1H21z M24 15h1v1H24z M21 16h1v1H21z M21 17h1v1H21z M24 17h1v1H24z M21 18h1v1H21z M21 19h1v1H21z M24 19h1v1H24z M21 20h2v1H21z M21 21h2v1H21z M24 21h1v1H24z M22 22h1v1H22z M22 23h2v1H22z M22 24h2v1H22z"/>
</svg>
