<svg xmlns="http://www.w3.org/2000/svg" viewBox="0 0 25 25" width="25" height="25" shape-rendering="crispEdges" aria-hidden="true">
  <rect width="25" height="25" fill="#ffffff"/>
  <path fill="#808080" d="M1 0h2v1H1z M4 0h2v1H4z M0 1h1v1H0z M2 1h1v1H2z M4 1h2v1H4z M1 2h2v1H1z M4 2h2v1H4z M0 3h1v1H0z M2 3h1v1H2z M4 3h2v1H4z M18 3h1v1H18z M20 3h1v1H20z M22 3h1v1H22z M1 4h2v1H1z M4 4h2v1H4z M15 4h1v1H15z M17 4h1v1H17z M19 4h1v1H19z M21 4h1v1H21z M23 4h2v1H23z M0 5h1v1H0z M2 5h1v1H2z M4 5h3v1H4z M12 5h1v1H12z M14 5h1v1H14z M16 5h1v1H16z M18 5h1v1H18z M20 5h1v1H20z M22 5h3v1H22z M1 6h2v1H1z M4 6h2v1H4z M9 6h1v1H9z M11 6h1v1H11z M13 6h1v1H13z M15 6h1v1H15z M17 6h1v1H17z M19 6h1v1H19z M21 6h4v1H21z M0 7h1v1H0z M2 7h1v1H2z M4 7h2v1H4z M8 7h1v1H8z M10 7h1v1H10z M12 7h1v1H12z M14 7h1v1H14z M16 7h1v1H16z M18 7h7v1H18z M1 8h1v1H1z M3 8h1v1H3z M7 8h1v1H7z M9 8h1v1H9z M11 8h1v1H11z M13 8h1v1H13z M15 8h1v1H15z M17 8h8v1H17z M0 9h1v1H0z M2 9h1v1H2z M6 9h1v1H6z M8 9h1v1H8z M10 9h1v1H10z M12 9h1v1H12z M14 9h1v1H14z M16 9h9v1H16z M1 10h1v1H1z M7 10h1v1H7z M9 10h1v1H9z M11 10h1v1H11z M13 10h1v1H13z M15 10h10v1H15z M14 11h11v1H14z M5 12h1v1H5z M8 12h1v1H8z M10 12h1v1H10z M12 12h1v1H12z M14 12h11v1H14z M7 13h1v1H7z M9 13h1v1H9z M11 13h1v1H11z M13 13h12v1H13z M2 14h1v1H2z M5 14h2v1H5z M8 14h1v1H8z M10 14h1v1H10z M12 14h1v1H12z M14 14h11v1H14z M1 15h1v1H1z M3 15h1v1H3z M7 15h1v1H7z M9 15h1v1H9z M11 15h14v1H11z M0 16h1v1H0z M2 16h1v1H2z M5 16h2v1H5z M8 16h1v1H8z M10 16h1v1H10z M12 16h13v1H12z M1 17h1v1H1z M3 17h1v1H3z M7 17h1v1H7z M9 17h1v1H9z M11 17h14v1H11z M0 18h1v1H0z M2 18h1v1H2z M6 18h1v1H6z M8 18h1v1H8z M10 18h15v1H10z M1 19h1v1H1z M3 19h1v1H3z M7 19h1v1H7z M9 19h1v1H9z M11 19h14v1H11z M0 20h1v1H0z M2 20h1v1H2z M6 20h1v1H6z M8 20h1v1H8z M10 20h15v1H10z M1 21h1v1H1z M3 21h1v1H3z M7 21h1v1H7z M9 21h1v1H9z M12 21h13v1H12z M0 22h1v1H0z M2 22h1v1H2z M4 22h1v1H4z M6 22h1v1H6z M8 22h1v1H8z M11 22h1v1H11z M13 22h12v1H13z M1 23h1v1H1z M3 23h1v1H3z M7 23h1v1H7z M9 23h2v1H9z M12 23h1v1H12z M14 23h11v1H14z M0 24h1v1H0z M2 24h1v1H2z M4 24h1v1H4z M8 24h1v1H8z M11 24h1v1H11z M13 24h12v1H13z"/>
  <path fill="#000000" d="M0 0h1v1H0z M3 0h1v1H3z M1 1h1v1H1z M3 1h1v1H3z M6 1h1v1H6z M0 2h1v1H0z M3 2h1v1H3z M6 2h1v1H6z M17 2h8v1H17z M1 3h1v1H1z M3 3h1v1H3z M6 3h1v1H6z M13 3h5v1H13z M19 3h1v1H19z M21 3h1v1H21z M23 3h2v1H23z M0 4h1v1H0z M3 4h1v1H3z M6 4h2v1H6z M10 4h5v1H10z M16 4h1v1H16z M18 4h1v1H18z M20 4h1v1H20z M22 4h1v1H22z M1 5h1v1H1z M3 5h1v1H3z M7 5h5v1H7z M13 5h1v1H13z M15 5h1v1H15z M17 5h1v1H17z M19 5h1v1H19z M21 5h1v1H21z M0 6h1v1H0z M3 6h1v1H3z M6 6h3v1H6z M10 6h1v1H10z M12 6h1v1H12z M14 6h1v1H14z M16 6h1v1H16z M18 6h1v1H18z M20 6h1v1H20z M1 7h1v1H1z M3 7h1v1H3z M6 7h2v1H6z M9 7h1v1H9z M11 7h1v1H11z M13 7h1v1H13z M15 7h1v1H15z M17 7h1v1H17z M0 8h1v1H0z M2 8h1v1H2z M4 8h3v1H4z M8 8h1v1H8z M10 8h1v1H10z M12 8h1v1H12z M14 8h1v1H14z M16 8h1v1H16z M1 9h1v1H1z M3 9h3v1H3z M7 9h1v1H7z M9 9h1v1H9z M11 9h1v1H11z M13 9h1v1H13z M15 9h1v1H15z M0 10h1v1H0z M2 10h5v1H2z M8 10h1v1H8z M10 10h1v1H10z M12 10h1v1H12z M14 10h1v1H14z M0 11h14v1H0z M0 12h5v1H0z M6 12h2v1H6z M9 12h1v1H9z M11 12h1v1H11z M13 12h1v1H13z M0 13h7v1H0z M8 13h1v1H8z M10 13h1v1H10z M12 13h1v1H12z M0 14h2v1H0z M3 14h2v1H3z M7 14h1v1H7z M9 14h1v1H9z M11 14h1v1H11z M13 14h1v1H13z M0 15h1v1H0z M2 15h1v1H2z M4 15h3v1H4z M8 15h1v1H8z M10 15h1v1H10z M1 16h1v1H1z M3 16h2v1H3z M7 16h1v1H7z M9 16h1v1H9z M11 16h1v1H11z M0 17h1v1H0z M2 17h1v1H2z M4 17h3v1H4z M8 17h1v1H8z M10 17h1v1H10z M1 18h1v1H1z M3 18h3v1H3z M7 18h1v1H7z M9 18h1v1H9z M0 19h1v1H0z M2 19h1v1H2z M4 19h3v1H4z M8 19h1v1H8z M10 19h1v1H10z M1 20h1v1H1z M3 20h3v1H3z M7 20h1v1H7z M9 20h1v1H9z M0 21h1v1H0z M2 21h1v1H2z M4 21h3v1H4z M8 21h1v1H8z M10 21h2v1H10z M1 22h1v1H1z M3 22h1v1H3z M5 22h1v1H5z M7 22h1v1H7z M9 22h2v1H9z M12 22h1v1H12z M0 23h1v1H0z M2 23h1v1H2z M4 23h3v1H4z M8 23h1v1H8z M11 23h1v1H11z M13 23h1v1H13z M1 24h1v1H1z M3 24h1v1H3z M5 24h3v1H5z M9 24h2v1H9z M12 24h1v1H12z"/>
</svg>
