<svg xmlns="http://www.w3.org/2000/svg" viewBox="0 0 25 25" width="25" height="25" shape-rendering="crispEdges" aria-hidden="true">
  <rect width="25" height="25" fill="#ffffff"/>
  <path fill="#808080" d="M22 18h1v1H22z M22 19h1v1H22z M22 20h1v1H22z M20 21h1v1H20z M22 21h1v1H22z M22 22h2v1H22z M20 23h1v1H20z M22 23h2v1H22z M19 24h1v1H19z M22 24h2v1H22z"/>
  <path fill="#000000" d="M21 12h1v1H21z M20 13h2v1H20z M20 14h3v1H20z M20 15h3v1H20z M20 16h3v1H20z M20 17h3v1H20z M19 18h3v1H19z M23 18h1v1H23z M19 19h3v1H19z M23 19h1v1H23z M19 20h3v1H19z M23 20h1v1H23z M19 21h1v1H19z M21 21h1v1H21z M23 21h2v1H23z M19 22h3v1H19z M24 22h1v1H24z M18 23h2v1H18z M21 23h1v1H21z M24 23h1v1H24z M18 24h1v1H18z M20 24h2v1H20z M24 24h1v1H24z"/>
</svg>
