<svg xmlns="http://www.w3.org/2000/svg" viewBox="0 0 25 25" width="25" height="25" shape-rendering="crispEdges" aria-hidden="true">
  <path fill="#ffffff" fill-rule="evenodd" d="M0 0h25v25H0z M7 9h18v16H7z"/>
  <path fill="#808080" d="M1 0h1v1H1z M3 0h4v1H3z M15 0h1v1H15z M19 0h1v1H19z M21 0h1v1H21z M24 0h1v1H24z M0 1h1v1H0z M3 1h10v1H3z M18 1h1v1H18z M20 1h1v1H20z M22 1h1v1H22z M24 1h1v1H24z M1 2h1v1H1z M4 2h13v1H4z M21 2h1v1H21z M24 2h1v1H24z M0 3h1v1H0z M2 3h1v1H2z M4 3h13v1H4z M18 3h1v1H18z M24 3h1v1H24z M1 4h1v1H1z M4 4h14v1H4z M19 4h1v1H19z M2 5h1v1H2z M4 5h15v1H4z M20 5h1v1H20z M22 5h1v1H22z M24 5h1v1H24z M1 6h1v1H1z M5 6h18v1H5z M2 7h1v1H2z M4 7h1v1H4z M6 7h19v1H6z M1 8h1v1H1z M5 8h16v1H5z M22 8h1v1H22z M24 8h1v1H24z M2 9h1v1H2z M6 9h1v1H6z M3 10h1v1H3z M5 10h2v1H5z M2 11h1v1H2z M3 12h1v1H3z M6 12h1v1H6z M4 13h1v1H4z M3 14h1v1H3z M6 15h1v1H6z M6 18h1v1H6z M2 19h1v1H2z M2 20h2v1H2z M3 21h2v1H3z M2 22h1v1H2z M4 22h2v1H4z M1 23h1v1H1z M3 23h1v1H3z M5 23h1v1H5z M2 24h1v1H2z M4 24h1v1H4z M6 24h1v1H6z"/>
  <path fill="#000000" d="M0 0h1v1H0z M2 0h1v1H2z M7 0h8v1H7z M16 0h3v1H16z M20 0h1v1H20z M22 0h2v1H22z M1 1h2v1H1z M13 1h5v1H13z M19 1h1v1H19z M21 1h1v1H21z M23 1h1v1H23z M0 2h1v1H0z M2 2h2v1H2z M17 2h4v1H17z M22 2h2v1H22z M1 3h1v1H1z M3 3h1v1H3z M17 3h1v1H17z M19 3h5v1H19z M0 4h1v1H0z M2 4h2v1H2z M18 4h1v1H18z M20 4h5v1H20z M0 5h2v1H0z M3 5h1v1H3z M19 5h1v1H19z M21 5h1v1H21z M23 5h1v1H23z M0 6h1v1H0z M2 6h3v1H2z M24 6h1v1H24z M0 7h2v1H0z M3 7h1v1H3z M5 7h1v1H5z M0 8h1v1H0z M2 8h3v1H2z M21 8h1v1H21z M23 8h1v1H23z M0 9h2v1H0z M3 9h3v1H3z M0 10h3v1H0z M4 10h1v1H4z M1 11h1v1H1z M3 11h4v1H3z M1 12h2v1H1z M4 12h2v1H4z M1 13h3v1H1z M5 13h2v1H5z M1 14h2v1H1z M4 14h3v1H4z M2 15h4v1H2z M2 16h5v1H2z M1 17h6v1H1z M0 18h6v1H0z M0 19h2v1H0z M3 19h4v1H3z M0 20h2v1H0z M4 20h3v1H4z M0 21h3v1H0z M5 21h2v1H5z M0 22h2v1H0z M3 22h1v1H3z M6 22h1v1H6z M0 23h1v1H0z M2 23h1v1H2z M4 23h1v1H4z M6 23h1v1H6z M0 24h2v1H0z M3 24h1v1H3z M5 24h1v1H5z"/>
</svg>
