<svg xmlns="http://www.w3.org/2000/svg" viewBox="0 0 25 25" width="25" height="25" shape-rendering="crispEdges" aria-hidden="true">
  <path fill="#ffffff" fill-rule="evenodd" d="M0 0h25v25H0z M4 18h15v1H4z M5 20h13v1H5z M3 17h17v1H3z M7 13h15v1H7z M9 12h13v1H9z M4 19h14v1H4z M5 14h17v1H5z M14 10h6v1H14z M3 15h18v1H3z M12 11h9v1H12z M3 16h17v1H3z M6 21h9v1H6z M17 9h2v1H17z"/>
  <path fill="#808080" d="M0 0h14v1H0z M15 0h1v1H15z M20 0h5v1H20z M0 1h15v1H0z M20 1h5v1H20z M0 2h13v1H0z M17 2h2v1H17z M21 2h4v1H21z M0 3h11v1H0z M14 3h6v1H14z M21 3h4v1H21z M0 4h10v1H0z M12 4h8v1H12z M22 4h3v1H22z M0 5h6v1H0z M8 5h13v1H8z M23 5h2v1H23z M0 6h5v1H0z M6 6h1v1H6z M8 6h14v1H8z M23 6h2v1H23z M0 7h4v1H0z M5 7h17v1H5z M23 7h2v1H23z M0 8h3v1H0z M4 8h4v1H4z M9 8h8v1H9z M20 8h3v1H20z M24 8h1v1H24z M0 9h2v1H0z M3 9h4v1H3z M8 9h6v1H8z M21 9h2v1H21z M24 9h1v1H24z M0 10h1v1H0z M3 10h3v1H3z M7 10h5v1H7z M22 10h1v1H22z M24 10h1v1H24z M0 11h1v1H0z M2 11h1v1H2z M4 11h1v1H4z M6 11h3v1H6z M22 11h2v1H22z M0 12h1v1H0z M2 12h2v1H2z M5 12h2v1H5z M23 12h1v1H23z M3 13h2v1H3z M23 13h1v1H23z M0 14h1v1H0z M23 14h2v1H23z M23 15h2v1H23z M0 16h1v1H0z M22 16h3v1H22z M0 17h2v1H0z M21 17h4v1H21z M0 18h2v1H0z M21 18h3v1H21z M0 19h3v1H0z M20 19h4v1H20z M0 20h3v1H0z M19 20h4v1H19z M0 21h4v1H0z M18 21h4v1H18z M0 22h5v1H0z M16 22h5v1H16z M24 22h1v1H24z M0 23h5v1H0z M7 23h11v1H7z M24 23h1v1H24z M0 24h6v1H0z M7 24h9v1H7z M20 24h1v1H20z M24 24h1v1H24z"/>
  <path fill="#000000" d="M14 0h1v1H14z M16 0h4v1H16z M15 1h5v1H15z M13 2h4v1H13z M19 2h2v1H19z M11 3h3v1H11z M20 3h1v1H20z M10 4h2v1H10z M20 4h2v1H20z M6 5h2v1H6z M21 5h2v1H21z M5 6h1v1H5z M22 6h1v1H22z M4 7h1v1H4z M22 7h1v1H22z M3 8h1v1H3z M8 8h1v1H8z M17 8h3v1H17z M23 8h1v1H23z M2 9h1v1H2z M7 9h1v1H7z M14 9h3v1H14z M19 9h2v1H19z M23 9h1v1H23z M1 10h2v1H1z M6 10h1v1H6z M12 10h2v1H12z M20 10h2v1H20z M23 10h1v1H23z M1 11h1v1H1z M3 11h1v1H3z M5 11h1v1H5z M9 11h3v1H9z M21 11h1v1H21z M24 11h1v1H24z M1 12h1v1H1z M4 12h1v1H4z M7 12h2v1H7z M22 12h1v1H22z M24 12h1v1H24z M0 13h3v1H0z M5 13h2v1H5z M22 13h1v1H22z M24 13h1v1H24z M1 14h4v1H1z M22 14h1v1H22z M0 15h3v1H0z M21 15h2v1H21z M1 16h2v1H1z M20 16h2v1H20z M2 17h1v1H2z M20 17h1v1H20z M2 18h2v1H2z M19 18h2v1H19z M24 18h1v1H24z M3 19h1v1H3z M18 19h2v1H18z M24 19h1v1H24z M3 20h2v1H3z M18 20h1v1H18z M23 20h2v1H23z M4 21h2v1H4z M15 21h3v1H15z M22 21h3v1H22z M5 22h11v1H5z M21 22h3v1H21z M5 23h2v1H5z M18 23h6v1H18z M6 24h1v1H6z M16 24h4v1H16z M22 24h2v1H22z"/>
</svg>
