<svg xmlns="http://www.w3.org/2000/svg" viewBox="0 0 25 25" width="25" height="25" shape-rendering="crispEdges" aria-hidden="true">
  <rect width="25" height="25" fill="#ffffff"/>
  <path fill="#808080" d="M3 16h1v1H3z M3 17h1v1H3z M3 18h1v1H3z M2 19h2v1H2z M2 20h1v1H2z M5 20h1v1H5z M2 21h1v1H2z M5 21h1v1H5z M2 22h1v1H2z M2 23h1v1H2z M2 24h1v1H2z M4 24h2v1H4z"/>
  <path fill="#000000" d="M3 12h1v1H3z M3 13h2v1H3z M2 14h3v1H2z M2 15h3v1H2z M2 16h1v1H2z M4 16h1v1H4z M2 17h1v1H2z M4 17h1v1H4z M1 18h2v1H1z M4 18h2v1H4z M1 19h1v1H1z M5 19h1v1H5z M1 20h1v1H1z M3 20h1v1H3z M0 21h2v1H0z M3 21h1v1H3z M0 22h2v1H0z M3 22h1v1H3z M5 22h1v1H5z M0 23h2v1H0z M3 23h1v1H3z M5 23h1v1H5z M0 24h2v1H0z M3 24h1v1H3z"/>
</svg>
