<svg xmlns="http://www.w3.org/2000/svg" viewBox="0 0 25 25" width="25" height="25" shape-rendering="crispEdges" aria-hidden="true">
  <rect width="25" height="25" fill="#ffffff"/>
  <path fill="#808080" d="M24 6h1v1H24z M24 8h1v1H24z M24 10h1v1H24z M23 12h1v1H23z M24 13h1v1H24z M23 15h1v1H23z M24 17h1v1H24z M23 18h1v1H23z M24 19h1v1H24z M23 20h1v1H23z M24 21h1v1H24z M23 22h1v1H23z M22 23h1v1H22z M24 23h1v1H24z M23 24h1v1H23z"/>
  <path fill="#000000" d="M24 0h1v1H24z M24 1h1v1H24z M24 2h1v1H24z M24 3h1v1H24z M23 4h2v1H23z M23 5h2v1H23z M23 6h1v1H23z M23 7h2v1H23z M23 8h1v1H23z M23 9h2v1H23z M23 10h1v1H23z M22 11h3v1H22z M22 12h1v1H22z M24 12h1v1H24z M22 13h2v1H22z M22 14h3v1H22z M22 15h1v1H22z M24 15h1v1H24z M22 16h3v1H22z M22 17h2v1H22z M22 18h1v1H22z M24 18h1v1H24z M22 19h2v1H22z M21 20h2v1H21z M24 20h1v1H24z M21 21h3v1H21z M21 22h2v1H21z M24 22h1v1H24z M21 23h1v1H21z M23 23h1v1H23z M21 24h2v1H21z M24 24h1v1H24z"/>
</svg>
