<svg xmlns="http://www.w3.org/2000/svg" viewBox="0 0 25 25" width="25" height="25" shape-rendering="crispEdges" aria-hidden="true">
  <path fill="#ffffff" fill-rule="evenodd" d="M0 0h25v25H0z M10 21h9v1H10z M6 18h15v1H6z M7 20h13v1H7z M5 17h17v1H5z M5 16h17v1H5z M4 13h14v1H4z M5 10h6v1H5z M4 14h16v1H4z M4 11h9v1H4z M6 19h15v1H6z M4 15h18v1H4z M4 12h12v1H4z M6 9h2v1H6z"/>
  <path fill="#808080" d="M1 0h1v1H1z M3 0h1v1H3z M9 0h2v1H9z M12 0h1v1H12z M14 0h11v1H14z M0 1h1v1H0z M2 1h1v1H2z M4 1h1v1H4z M11 1h1v1H11z M13 1h1v1H13z M15 1h10v1H15z M1 2h1v1H1z M3 2h1v1H3z M6 2h3v1H6z M12 2h1v1H12z M14 2h1v1H14z M16 2h9v1H16z M0 3h1v1H0z M2 3h1v1H2z M7 3h4v1H7z M13 3h1v1H13z M15 3h1v1H15z M17 3h8v1H17z M1 4h1v1H1z M3 4h1v1H3z M5 4h1v1H5z M7 4h6v1H7z M16 4h9v1H16z M1 5h1v1H1z M5 5h1v1H5z M8 5h9v1H8z M18 5h7v1H18z M0 6h1v1H0z M4 6h1v1H4z M7 6h1v1H7z M9 6h8v1H9z M19 6h6v1H19z M1 7h1v1H1z M3 7h1v1H3z M5 7h4v1H5z M10 7h10v1H10z M21 7h4v1H21z M0 8h1v1H0z M4 8h1v1H4z M8 8h13v1H8z M22 8h3v1H22z M3 9h1v1H3z M11 9h11v1H11z M23 9h2v1H23z M0 10h1v1H0z M2 10h1v1H2z M13 10h10v1H13z M24 10h1v1H24z M2 11h1v1H2z M16 11h3v1H16z M20 11h3v1H20z M24 11h1v1H24z M1 12h1v1H1z M18 12h5v1H18z M24 12h1v1H24z M1 13h1v1H1z M20 13h2v1H20z M1 14h1v1H1z M0 15h1v1H0z M23 15h1v1H23z M1 16h1v1H1z M24 16h1v1H24z M0 17h1v1H0z M2 17h1v1H2z M24 17h1v1H24z M1 18h1v1H1z M3 18h1v1H3z M24 18h1v1H24z M2 19h1v1H2z M4 19h1v1H4z M24 19h1v1H24z M3 20h1v1H3z M22 20h1v1H22z M24 20h1v1H24z M0 21h1v1H0z M4 21h1v1H4z M24 21h1v1H24z M5 22h4v1H5z M21 22h1v1H21z M24 22h1v1H24z M7 23h1v1H7z M9 23h1v1H9z M24 23h1v1H24z M0 24h1v1H0z M10 24h1v1H10z M12 24h1v1H12z M14 24h1v1H14z M16 24h1v1H16z M20 24h1v1H20z M22 24h1v1H22z M24 24h1v1H24z"/>
  <path fill="#000000" d="M0 0h1v1H0z M2 0h1v1H2z M4 0h5v1H4z M11 0h1v1H11z M13 0h1v1H13z M1 1h1v1H1z M3 1h1v1H3z M5 1h6v1H5z M12 1h1v1H12z M14 1h1v1H14z M0 2h1v1H0z M2 2h1v1H2z M4 2h2v1H4z M9 2h3v1H9z M13 2h1v1H13z M15 2h1v1H15z M1 3h1v1H1z M3 3h4v1H3z M11 3h2v1H11z M14 3h1v1H14z M16 3h1v1H16z M0 4h1v1H0z M2 4h1v1H2z M4 4h1v1H4z M6 4h1v1H6z M13 4h3v1H13z M0 5h1v1H0z M2 5h3v1H2z M6 5h2v1H6z M17 5h1v1H17z M1 6h3v1H1z M5 6h2v1H5z M8 6h1v1H8z M18 6h1v1H18z M0 7h1v1H0z M2 7h1v1H2z M4 7h1v1H4z M9 7h1v1H9z M20 7h1v1H20z M1 8h3v1H1z M5 8h3v1H5z M21 8h1v1H21z M0 9h3v1H0z M4 9h2v1H4z M8 9h3v1H8z M22 9h1v1H22z M1 10h1v1H1z M3 10h2v1H3z M11 10h2v1H11z M23 10h1v1H23z M0 11h2v1H0z M3 11h1v1H3z M13 11h3v1H13z M19 11h1v1H19z M23 11h1v1H23z M0 12h1v1H0z M2 12h2v1H2z M16 12h2v1H16z M23 12h1v1H23z M0 13h1v1H0z M2 13h2v1H2z M18 13h2v1H18z M22 13h3v1H22z M0 14h1v1H0z M2 14h2v1H2z M20 14h5v1H20z M1 15h3v1H1z M22 15h1v1H22z M24 15h1v1H24z M0 16h1v1H0z M2 16h3v1H2z M22 16h2v1H22z M1 17h1v1H1z M3 17h2v1H3z M22 17h2v1H22z M0 18h1v1H0z M2 18h1v1H2z M4 18h2v1H4z M21 18h3v1H21z M0 19h2v1H0z M3 19h1v1H3z M5 19h1v1H5z M21 19h3v1H21z M0 20h3v1H0z M4 20h3v1H4z M20 20h2v1H20z M23 20h1v1H23z M1 21h3v1H1z M5 21h5v1H5z M19 21h5v1H19z M0 22h5v1H0z M9 22h12v1H9z M22 22h2v1H22z M0 23h7v1H0z M8 23h1v1H8z M10 23h14v1H10z M1 24h2v1H1z M5 24h5v1H5z M11 24h1v1H11z M13 24h1v1H13z M15 24h1v1H15z M17 24h3v1H17z M21 24h1v1H21z M23 24h1v1H23z"/>
</svg>
