<svg xmlns="http://www.w3.org/2000/svg" viewBox="0 0 25 25" width="25" height="25" shape-rendering="crispEdges" aria-hidden="true">
  <rect width="25" height="25" fill="#ffffff"/>
  <path fill="#808080" d="M0 0h3v1H0z M0 1h3v1H0z M0 2h3v1H0z M0 3h3v1H0z M0 4h3v1H0z M0 5h3v1H0z M0 6h3v1H0z M0 7h3v1H0z M0 8h3v1H0z M0 9h3v1H0z M0 10h3v1H0z M0 11h3v1H0z M0 12h3v1H0z M0 13h3v1H0z M0 14h3v1H0z M0 15h3v1H0z M0 16h3v1H0z M1 17h2v1H1z M0 18h3v1H0z M0 19h2v1H0z M0 20h2v1H0z M0 21h2v1H0z M0 22h2v1H0z M0 23h2v1H0z M0 24h1v1H0z"/>
  <path fill="#000000" d="M3 0h1v1H3z M3 1h1v1H3z M3 2h1v1H3z M3 3h1v1H3z M3 4h1v1H3z M3 5h1v1H3z M3 6h1v1H3z M3 7h1v1H3z M3 8h1v1H3z M3 9h1v1H3z M3 10h1v1H3z M3 11h1v1H3z M3 12h1v1H3z M3 13h1v1H3z M3 14h1v1H3z M3 15h1v1H3z M3 16h1v1H3z M0 17h1v1H0z M3 17h1v1H3z M3 18h1v1H3z M2 19h2v1H2z M2 20h2v1H2z M2 21h2v1H2z M2 22h1v1H2z M2 23h1v1H2z M1 24h2v1H1z"/>
</svg>
