<svg xmlns="http://www.w3.org/2000/svg" viewBox="0 0 25 25" width="25" height="25" shape-rendering="crispEdges" aria-hidden="true">
  <path fill="#ffffff" d="M0 0h17v1H0z M0 1h15v1H0z M0 2h16v1H0z M17 2h2v1H17z M0 3h19v1H0z M0 4h17v1H0z M18 4h1v1H18z M20 4h1v1H20z M0 5h18v1H0z M19 5h2v1H19z M0 6h20v1H0z M0 7h22v1H0z M0 8h20v1H0z M21 8h1v1H21z M0 9h25v1H0z M0 10h25v1H0z M0 11h25v1H0z M0 12h25v1H0z M0 13h25v1H0z M0 14h25v1H0z M0 15h25v1H0z M0 16h25v1H0z M0 17h25v1H0z M0 18h25v1H0z M0 19h25v1H0z M0 20h25v1H0z M0 21h25v1H0z M0 22h25v1H0z M0 23h25v1H0z M0 24h25v1H0z"/>
  <path fill="#808080" d="M22 0h1v1H22z M23 1h1v1H23z M22 2h1v1H22z M23 3h1v1H23z M22 4h1v1H22z M23 5h1v1H23z"/>
  <path fill="#000000" d="M17 0h5v1H17z M23 0h2v1H23z M15 1h8v1H15z M24 1h1v1H24z M16 2h1v1H16z M19 2h3v1H19z M23 2h2v1H23z M19 3h4v1H19z M24 3h1v1H24z M17 4h1v1H17z M19 4h1v1H19z M21 4h1v1H21z M23 4h2v1H23z M18 5h1v1H18z M21 5h2v1H21z M24 5h1v1H24z M20 6h5v1H20z M22 7h3v1H22z M20 8h1v1H20z M22 8h3v1H22z"/>
</svg>
