<svg xmlns="http://www.w3.org/2000/svg" viewBox="0 0 25 25" width="25" height="25" shape-rendering="crispEdges" aria-hidden="true">
  <path fill="#ffffff" d="M0 0h25v1H0z M0 1h25v1H0z M0 2h25v1H0z M0 3h25v1H0z M0 4h25v1H0z M0 5h25v1H0z M0 6h25v1H0z M0 7h25v1H0z M0 8h25v1H0z M0 9h25v1H0z M0 10h25v1H0z M0 11h25v1H0z M0 12h25v1H0z M0 13h25v1H0z M0 14h25v1H0z M0 15h23v1H0z M0 16h22v1H0z M0 17h17v1H0z M0 18h10v1H0z M0 19h8v1H0z M0 20h6v1H0z M0 21h5v1H0z M0 22h4v1H0z M21 22h2v1H21z M0 23h3v1H0z M21 23h1v1H21z M0 24h2v1H0z M20 24h2v1H20z"/>
  <path fill="#808080" d="M23 16h2v1H23z M12 18h1v1H12z M17 18h7v1H17z M10 19h14v1H10z M6 20h1v1H6z M9 20h3v1H9z M13 20h11v1H13z M6 21h1v1H6z M8 21h1v1H8z M10 21h1v1H10z M14 21h3v1H14z M7 22h1v1H7z M9 22h2v1H9z M13 22h4v1H13z M18 22h3v1H18z M5 23h2v1H5z M8 23h9v1H8z M20 23h1v1H20z M4 24h1v1H4z M6 24h13v1H6z M23 24h1v1H23z"/>
  <path fill="#000000" d="M23 15h2v1H23z M22 16h1v1H22z M17 17h8v1H17z M10 18h2v1H10z M13 18h4v1H13z M24 18h1v1H24z M8 19h2v1H8z M24 19h1v1H24z M7 20h2v1H7z M12 20h1v1H12z M24 20h1v1H24z M5 21h1v1H5z M7 21h1v1H7z M9 21h1v1H9z M11 21h3v1H11z M17 21h8v1H17z M4 22h3v1H4z M8 22h1v1H8z M11 22h2v1H11z M17 22h1v1H17z M23 22h2v1H23z M3 23h2v1H3z M7 23h1v1H7z M17 23h3v1H17z M22 23h3v1H22z M2 24h2v1H2z M5 24h1v1H5z M19 24h1v1H19z M22 24h1v1H22z M24 24h1v1H24z"/>
</svg>
