<svg xmlns="http://www.w3.org/2000/svg" viewBox="0 0 25 25" width="25" height="25" shape-rendering="crispEdges" aria-hidden="true">
  <path fill="#ffffff" d="M17 24h1v1H17z"/>
  <path fill="#808080" d="M1 0h1v1H1z M3 0h1v1H3z M5 0h5v1H5z M16 0h1v1H16z M18 0h1v1H18z M20 0h1v1H20z M22 0h1v1H22z M0 1h1v1H0z M2 1h1v1H2z M4 1h4v1H4z M11 1h1v1H11z M13 1h1v1H13z M15 1h1v1H15z M17 1h1v1H17z M19 1h1v1H19z M21 1h1v1H21z M23 1h1v1H23z M1 2h1v1H1z M3 2h3v1H3z M10 2h1v1H10z M12 2h1v1H12z M14 2h1v1H14z M16 2h1v1H16z M18 2h1v1H18z M20 2h1v1H20z M22 2h1v1H22z M0 3h1v1H0z M2 3h1v1H2z M4 3h1v1H4z M7 3h1v1H7z M9 3h1v1H9z M11 3h1v1H11z M13 3h1v1H13z M15 3h1v1H15z M17 3h1v1H17z M19 3h1v1H19z M21 3h1v1H21z M23 3h2v1H23z M1 4h3v1H1z M8 4h1v1H8z M10 4h1v1H10z M12 4h13v1H12z M0 5h1v1H0z M3 5h1v1H3z M5 5h1v1H5z M19 5h6v1H19z M2 6h1v1H2z M4 6h1v1H4z M20 6h5v1H20z M1 7h1v1H1z M3 7h1v1H3z M8 7h1v1H8z M10 7h1v1H10z M12 7h1v1H12z M21 7h4v1H21z"/>
  <path fill="#000000" d="M0 0h1v1H0z M2 0h1v1H2z M4 0h1v1H4z M10 0h6v1H10z M17 0h1v1H17z M19 0h1v1H19z M21 0h1v1H21z M23 0h2v1H23z M1 1h1v1H1z M3 1h1v1H3z M8 1h3v1H8z M12 1h1v1H12z M14 1h1v1H14z M16 1h1v1H16z M18 1h1v1H18z M20 1h1v1H20z M22 1h1v1H22z M24 1h1v1H24z M0 2h1v1H0z M2 2h1v1H2z M6 2h4v1H6z M11 2h1v1H11z M13 2h1v1H13z M15 2h1v1H15z M17 2h1v1H17z M19 2h1v1H19z M21 2h1v1H21z M23 2h2v1H23z M1 3h1v1H1z M3 3h1v1H3z M5 3h2v1H5z M8 3h1v1H8z M10 3h1v1H10z M12 3h1v1H12z M14 3h1v1H14z M16 3h1v1H16z M18 3h1v1H18z M20 3h1v1H20z M22 3h1v1H22z M0 4h1v1H0z M4 4h4v1H4z M9 4h1v1H9z M11 4h1v1H11z M1 5h2v1H1z M4 5h1v1H4z M6 5h13v1H6z M0 6h2v1H0z M3 6h1v1H3z M5 6h15v1H5z M0 7h1v1H0z M2 7h1v1H2z M4 7h4v1H4z M9 7h1v1H9z M11 7h1v1H11z M13 7h8v1H13z"/>
</svg>
