<svg xmlns="http://www.w3.org/2000/svg" viewBox="0 0 25 25" width="25" height="25" shape-rendering="crispEdges" aria-hidden="true">
  <path fill="#ffffff" d="M0 0h1v1H0z M20 0h2v1H20z M20 1h2v1H20z M24 2h1v1H24z M20 5h2v1H20z M20 6h2v1H20z M22 7h2v1H22z M18 8h1v1H18z M22 8h3v1H22z M23 9h1v1H23z M23 10h1v1H23z M23 11h1v1H23z"/>
  <path fill="#808080" d="M2 0h1v1H2z M5 0h14v1H5z M23 0h1v1H23z M4 1h1v1H4z M6 1h13v1H6z M23 1h1v1H23z M1 2h1v1H1z M3 2h1v1H3z M5 2h14v1H5z M20 2h2v1H20z M2 3h1v1H2z M4 3h15v1H4z M20 3h2v1H20z M24 3h1v1H24z M0 4h1v1H0z M3 4h1v1H3z M5 4h14v1H5z M20 4h2v1H20z M24 4h1v1H24z M1 5h2v1H1z M4 5h15v1H4z M23 5h2v1H23z M2 6h1v1H2z M4 6h15v1H4z M23 6h2v1H23z M1 7h1v1H1z M3 7h1v1H3z M5 7h1v1H5z M7 7h10v1H7z M20 7h2v1H20z M24 7h1v1H24z M2 8h1v1H2z M4 8h1v1H4z M6 8h11v1H6z M19 8h3v1H19z M1 9h1v1H1z M3 9h1v1H3z M5 9h12v1H5z M22 9h1v1H22z M0 10h1v1H0z M2 10h1v1H2z M4 10h1v1H4z M7 10h14v1H7z M22 10h1v1H22z M1 11h1v1H1z M3 11h1v1H3z M5 11h14v1H5z M20 11h3v1H20z M1 12h1v1H1z M3 12h1v1H3z M5 12h2v1H5z M8 12h11v1H8z M20 12h4v1H20z M0 13h1v1H0z M2 13h1v1H2z M4 13h1v1H4z M7 13h1v1H7z M9 13h10v1H9z M1 14h1v1H1z M3 14h1v1H3z M5 14h2v1H5z M8 14h1v1H8z M10 14h14v1H10z M0 15h1v1H0z M2 15h1v1H2z M4 15h2v1H4z M7 15h1v1H7z M9 15h15v1H9z M1 16h1v1H1z M3 16h1v1H3z M5 16h2v1H5z M8 16h1v1H8z M10 16h2v1H10z M13 16h2v1H13z M16 16h1v1H16z M0 17h1v1H0z M2 17h1v1H2z M4 17h2v1H4z M7 17h1v1H7z M9 17h1v1H9z M11 17h1v1H11z M17 17h8v1H17z M1 18h1v1H1z M3 18h1v1H3z M5 18h2v1H5z M12 18h13v1H12z M0 19h1v1H0z M2 19h1v1H2z M4 19h1v1H4z M8 19h1v1H8z M10 19h15v1H10z M1 20h1v1H1z M3 20h1v1H3z M6 20h2v1H6z M9 20h1v1H9z M11 20h14v1H11z M0 21h1v1H0z M4 21h1v1H4z M7 21h2v1H7z M10 21h15v1H10z M3 22h1v1H3z M5 22h20v1H5z M2 23h1v1H2z M4 23h2v1H4z M7 23h11v1H7z M0 24h1v1H0z M2 24h1v1H2z M4 24h3v1H4z M8 24h6v1H8z M19 24h1v1H19z M21 24h1v1H21z M23 24h1v1H23z"/>
  <path fill="#000000" d="M1 0h1v1H1z M3 0h2v1H3z M19 0h1v1H19z M22 0h1v1H22z M24 0h1v1H24z M0 1h4v1H0z M5 1h1v1H5z M19 1h1v1H19z M22 1h1v1H22z M24 1h1v1H24z M0 2h1v1H0z M2 2h1v1H2z M4 2h1v1H4z M19 2h1v1H19z M22 2h2v1H22z M0 3h2v1H0z M3 3h1v1H3z M19 3h1v1H19z M22 3h2v1H22z M1 4h2v1H1z M4 4h1v1H4z M19 4h1v1H19z M22 4h2v1H22z M0 5h1v1H0z M3 5h1v1H3z M19 5h1v1H19z M22 5h1v1H22z M0 6h2v1H0z M3 6h1v1H3z M19 6h1v1H19z M22 6h1v1H22z M0 7h1v1H0z M2 7h1v1H2z M4 7h1v1H4z M6 7h1v1H6z M17 7h3v1H17z M0 8h2v1H0z M3 8h1v1H3z M5 8h1v1H5z M17 8h1v1H17z M0 9h1v1H0z M2 9h1v1H2z M4 9h1v1H4z M17 9h5v1H17z M24 9h1v1H24z M1 10h1v1H1z M3 10h1v1H3z M5 10h2v1H5z M21 10h1v1H21z M24 10h1v1H24z M0 11h1v1H0z M2 11h1v1H2z M4 11h1v1H4z M19 11h1v1H19z M24 11h1v1H24z M0 12h1v1H0z M2 12h1v1H2z M4 12h1v1H4z M7 12h1v1H7z M19 12h1v1H19z M24 12h1v1H24z M1 13h1v1H1z M3 13h1v1H3z M5 13h2v1H5z M8 13h1v1H8z M19 13h6v1H19z M0 14h1v1H0z M2 14h1v1H2z M4 14h1v1H4z M7 14h1v1H7z M9 14h1v1H9z M24 14h1v1H24z M1 15h1v1H1z M3 15h1v1H3z M6 15h1v1H6z M8 15h1v1H8z M24 15h1v1H24z M0 16h1v1H0z M2 16h1v1H2z M4 16h1v1H4z M7 16h1v1H7z M9 16h1v1H9z M12 16h1v1H12z M15 16h1v1H15z M17 16h8v1H17z M1 17h1v1H1z M3 17h1v1H3z M6 17h1v1H6z M8 17h1v1H8z M10 17h1v1H10z M12 17h5v1H12z M0 18h1v1H0z M2 18h1v1H2z M4 18h1v1H4z M7 18h5v1H7z M1 19h1v1H1z M3 19h1v1H3z M5 19h3v1H5z M9 19h1v1H9z M0 20h1v1H0z M2 20h1v1H2z M4 20h2v1H4z M8 20h1v1H8z M10 20h1v1H10z M1 21h3v1H1z M5 21h2v1H5z M9 21h1v1H9z M0 22h3v1H0z M4 22h1v1H4z M0 23h2v1H0z M3 23h1v1H3z M6 23h1v1H6z M18 23h7v1H18z M1 24h1v1H1z M3 24h1v1H3z M7 24h1v1H7z M14 24h5v1H14z M20 24h1v1H20z M22 24h1v1H22z M24 24h1v1H24z"/>
</svg>
