<svg xmlns="http://www.w3.org/2000/svg" viewBox="0 0 25 25" width="25" height="25" shape-rendering="crispEdges" aria-hidden="true">
  <path fill="#ffffff" d="M9 0h16v1H9z M9 1h16v1H9z M6 2h2v1H6z M9 2h16v1H9z M6 3h1v1H6z M8 3h17v1H8z M6 4h19v1H6z M6 5h19v1H6z M7 6h18v1H7z M3 7h2v1H3z M6 7h19v1H6z M4 8h21v1H4z M0 9h25v1H0z M0 10h25v1H0z M0 11h25v1H0z M0 12h25v1H0z M0 13h25v1H0z M0 14h25v1H0z M0 15h25v1H0z M0 16h25v1H0z M0 17h25v1H0z M0 18h25v1H0z M0 19h25v1H0z M0 20h25v1H0z M0 21h25v1H0z M0 22h25v1H0z M0 23h25v1H0z M0 24h25v1H0z"/>
  <path fill="#808080" d="M1 0h2v1H1z M5 0h1v1H5z M8 0h1v1H8z M1 1h2v1H1z M5 1h1v1H5z M1 2h2v1H1z M1 3h2v1H1z M1 4h2v1H1z M1 5h1v1H1z M3 6h1v1H3z M5 6h1v1H5z M2 8h1v1H2z"/>
  <path fill="#000000" d="M0 0h1v1H0z M3 0h2v1H3z M6 0h2v1H6z M0 1h1v1H0z M3 1h2v1H3z M6 1h3v1H6z M0 2h1v1H0z M3 2h3v1H3z M8 2h1v1H8z M0 3h1v1H0z M3 3h3v1H3z M7 3h1v1H7z M0 4h1v1H0z M3 4h3v1H3z M0 5h1v1H0z M2 5h4v1H2z M0 6h3v1H0z M4 6h1v1H4z M6 6h1v1H6z M0 7h3v1H0z M5 7h1v1H5z M0 8h2v1H0z M3 8h1v1H3z"/>
</svg>
