<svg xmlns="http://www.w3.org/2000/svg" viewBox="0 0 25 25" width="25" height="25" shape-rendering="crispEdges" aria-hidden="true">
  <path fill="#ffffff" d="M0 0h25v1H0z M0 1h25v1H0z M1 2h24v1H1z M1 3h24v1H1z M2 4h23v1H2z M2 5h23v1H2z M3 6h22v1H3z M3 7h22v1H3z M3 8h22v1H3z M4 9h21v1H4z M4 10h21v1H4z M5 11h20v1H5z M5 12h20v1H5z M5 13h20v1H5z M6 14h19v1H6z M6 15h19v1H6z M6 16h19v1H6z M6 17h19v1H6z M6 18h19v1H6z M6 19h19v1H6z M6 20h19v1H6z M6 21h19v1H6z M6 22h19v1H6z M6 23h19v1H6z M6 24h19v1H6z"/>
  <path fill="#808080" d="M0 4h1v1H0z M0 5h1v1H0z M0 6h2v1H0z M0 7h2v1H0z M0 8h2v1H0z M0 9h3v1H0z M1 10h2v1H1z M1 11h2v1H1z M4 11h1v1H4z M1 12h3v1H1z M1 13h3v1H1z M1 14h1v1H1z M3 14h2v1H3z M1 15h4v1H1z M1 16h4v1H1z M1 17h4v1H1z M1 18h2v1H1z M4 18h1v1H4z M1 19h1v1H1z M3 19h2v1H3z M1 20h2v1H1z M4 20h1v1H4z M1 21h4v1H1z M1 22h4v1H1z M2 23h3v1H2z M0 24h1v1H0z M3 24h2v1H3z"/>
  <path fill="#000000" d="M0 2h1v1H0z M0 3h1v1H0z M1 4h1v1H1z M1 5h1v1H1z M2 6h1v1H2z M2 7h1v1H2z M2 8h1v1H2z M3 9h1v1H3z M0 10h1v1H0z M3 10h1v1H3z M0 11h1v1H0z M3 11h1v1H3z M0 12h1v1H0z M4 12h1v1H4z M0 13h1v1H0z M4 13h1v1H4z M0 14h1v1H0z M2 14h1v1H2z M5 14h1v1H5z M0 15h1v1H0z M5 15h1v1H5z M0 16h1v1H0z M5 16h1v1H5z M0 17h1v1H0z M5 17h1v1H5z M0 18h1v1H0z M3 18h1v1H3z M5 18h1v1H5z M0 19h1v1H0z M2 19h1v1H2z M5 19h1v1H5z M0 20h1v1H0z M3 20h1v1H3z M5 20h1v1H5z M0 21h1v1H0z M5 21h1v1H5z M0 22h1v1H0z M5 22h1v1H5z M0 23h2v1H0z M5 23h1v1H5z M1 24h2v1H1z M5 24h1v1H5z"/>
</svg>
