<svg xmlns="http://www.w3.org/2000/svg" viewBox="0 0 25 25" width="25" height="25" shape-rendering="crispEdges" aria-hidden="true">
  <path fill="#ffffff" d="M0 0h25v1H0z M0 1h25v1H0z M0 2h24v1H0z M0 3h24v1H0z M0 4h23v1H0z M0 5h23v1H0z M0 6h22v1H0z M0 7h22v1H0z M0 8h22v1H0z M0 9h21v1H0z M0 10h21v1H0z M0 11h20v1H0z M0 12h20v1H0z M0 13h20v1H0z M0 14h19v1H0z M0 15h19v1H0z M0 16h19v1H0z M0 17h19v1H0z M0 18h19v1H0z M0 19h19v1H0z M0 20h19v1H0z M0 21h19v1H0z M0 22h19v1H0z M0 23h19v1H0z M0 24h19v1H0z"/>
  <path fill="#808080" d="M24 5h1v1H24z M23 6h1v1H23z M24 7h1v1H24z M23 8h1v1H23z M22 9h1v1H22z M24 9h1v1H24z M23 10h1v1H23z M20 11h1v1H20z M22 11h1v1H22z M22 12h1v1H22z M21 13h1v1H21z M23 13h1v1H23z M22 14h1v1H22z M21 15h1v1H21z M23 15h1v1H23z M20 16h1v1H20z M22 16h1v1H22z M21 17h1v1H21z M23 17h1v1H23z M20 18h1v1H20z M22 18h1v1H22z M21 19h1v1H21z M23 19h1v1H23z M20 20h1v1H20z M22 20h1v1H22z M21 21h1v1H21z M23 21h1v1H23z M20 22h1v1H20z M22 22h1v1H22z M21 23h1v1H21z M20 24h1v1H20z"/>
  <path fill="#000000" d="M24 2h1v1H24z M24 3h1v1H24z M23 4h2v1H23z M23 5h1v1H23z M22 6h1v1H22z M24 6h1v1H24z M22 7h2v1H22z M22 8h1v1H22z M24 8h1v1H24z M21 9h1v1H21z M23 9h1v1H23z M21 10h2v1H21z M24 10h1v1H24z M21 11h1v1H21z M23 11h2v1H23z M20 12h2v1H20z M23 12h2v1H23z M20 13h1v1H20z M22 13h1v1H22z M24 13h1v1H24z M19 14h3v1H19z M23 14h2v1H23z M19 15h2v1H19z M22 15h1v1H22z M24 15h1v1H24z M19 16h1v1H19z M21 16h1v1H21z M23 16h2v1H23z M19 17h2v1H19z M22 17h1v1H22z M24 17h1v1H24z M19 18h1v1H19z M21 18h1v1H21z M23 18h2v1H23z M19 19h2v1H19z M22 19h1v1H22z M24 19h1v1H24z M19 20h1v1H19z M21 20h1v1H21z M23 20h2v1H23z M19 21h2v1H19z M22 21h1v1H22z M24 21h1v1H24z M19 22h1v1H19z M21 22h1v1H21z M23 22h2v1H23z M19 23h2v1H19z M22 23h3v1H22z M19 24h1v1H19z M21 24h4v1H21z"/>
</svg>
