<svg xmlns="http://www.w3.org/2000/svg" viewBox="0 0 25 25" width="25" height="25" shape-rendering="crispEdges" aria-hidden="true">
  <path fill="#ffffff" d="M0 0h25v1H0z M0 1h25v1H0z M0 2h25v1H0z M0 3h25v1H0z M0 4h25v1H0z M0 5h25v1H0z M0 6h25v1H0z M0 7h25v1H0z M0 8h25v1H0z M0 9h25v1H0z M0 10h25v1H0z M0 11h25v1H0z M0 12h25v1H0z M0 13h25v1H0z M0 14h25v1H0z M2 15h23v1H2z M3 16h22v1H3z M8 17h17v1H8z M15 18h10v1H15z M17 19h8v1H17z M18 20h7v1H18z M20 21h5v1H20z M21 22h4v1H21z M22 23h3v1H22z M23 24h2v1H23z"/>
  <path fill="#808080" d="M0 16h2v1H0z M0 18h8v1H0z M13 18h2v1H13z M0 19h15v1H0z M0 20h17v1H0z M0 21h12v1H0z M14 21h4v1H14z M0 22h12v1H0z M15 22h4v1H15z M0 23h20v1H0z M2 24h19v1H2z"/>
  <path fill="#000000" d="M0 15h2v1H0z M2 16h1v1H2z M0 17h8v1H0z M8 18h5v1H8z M15 19h2v1H15z M17 20h1v1H17z M12 21h2v1H12z M18 21h2v1H18z M12 22h3v1H12z M19 22h2v1H19z M20 23h2v1H20z M0 24h2v1H0z M21 24h2v1H21z"/>
</svg>
