<svg xmlns="http://www.w3.org/2000/svg" viewBox="0 0 25 25" width="25" height="25" shape-rendering="crispEdges" aria-hidden="true">
  <path fill="#ffffff" d="M6 0h19v1H6z M6 1h2v1H6z M9 1h16v1H9z M7 2h2v1H7z M10 2h15v1H10z M8 3h1v1H8z M11 3h14v1H11z M11 4h14v1H11z M11 5h14v1H11z M12 6h13v1H12z M12 7h13v1H12z M11 8h14v1H11z M11 9h14v1H11z M11 10h14v1H11z M11 11h14v1H11z M11 12h14v1H11z M11 13h14v1H11z M11 14h14v1H11z M11 15h14v1H11z M11 16h14v1H11z M11 17h14v1H11z M11 18h14v1H11z M11 19h14v1H11z M10 20h15v1H10z M10 21h15v1H10z M10 22h15v1H10z M10 23h15v1H10z M8 24h17v1H8z"/>
  <path fill="#808080" d="M0 0h3v1H0z M4 0h1v1H4z M0 1h4v1H0z M0 2h4v1H0z M0 3h4v1H0z M0 4h4v1H0z M7 4h1v1H7z M0 5h4v1H0z M6 5h1v1H6z M9 5h1v1H9z M1 6h2v1H1z M7 6h1v1H7z M10 6h2v1H10z M6 7h1v1H6z M8 8h1v1H8z M10 8h1v1H10z M5 9h1v1H5z M9 9h1v1H9z M4 10h1v1H4z M6 10h1v1H6z M7 11h1v1H7z M9 11h1v1H9z M8 12h1v1H8z M10 12h1v1H10z M3 13h2v1H3z M7 13h1v1H7z M2 14h4v1H2z M0 15h1v1H0z M2 15h1v1H2z M5 15h1v1H5z M9 15h1v1H9z M0 16h1v1H0z M5 16h1v1H5z M8 16h1v1H8z M0 17h1v1H0z M3 17h1v1H3z M5 17h1v1H5z M0 18h1v1H0z M2 18h2v1H2z M5 18h1v1H5z M0 19h1v1H0z M3 19h3v1H3z M9 19h1v1H9z M0 20h1v1H0z M3 20h2v1H3z M0 21h1v1H0z M3 21h2v1H3z M8 21h1v1H8z M1 22h1v1H1z M3 22h1v1H3z M7 22h1v1H7z M1 23h1v1H1z M3 23h1v1H3z M2 24h2v1H2z M6 24h1v1H6z"/>
  <path fill="#000000" d="M3 0h1v1H3z M5 0h1v1H5z M4 1h2v1H4z M8 1h1v1H8z M4 2h3v1H4z M9 2h1v1H9z M4 3h4v1H4z M9 3h2v1H9z M4 4h3v1H4z M8 4h3v1H8z M4 5h2v1H4z M7 5h2v1H7z M10 5h1v1H10z M0 6h1v1H0z M3 6h4v1H3z M8 6h2v1H8z M0 7h6v1H0z M7 7h5v1H7z M0 8h8v1H0z M9 8h1v1H9z M0 9h5v1H0z M6 9h3v1H6z M10 9h1v1H10z M0 10h4v1H0z M5 10h1v1H5z M7 10h4v1H7z M0 11h7v1H0z M8 11h1v1H8z M10 11h1v1H10z M0 12h8v1H0z M9 12h1v1H9z M0 13h3v1H0z M5 13h2v1H5z M8 13h3v1H8z M0 14h2v1H0z M6 14h5v1H6z M1 15h1v1H1z M3 15h2v1H3z M6 15h3v1H6z M10 15h1v1H10z M1 16h4v1H1z M6 16h2v1H6z M9 16h2v1H9z M1 17h2v1H1z M4 17h1v1H4z M6 17h5v1H6z M1 18h1v1H1z M4 18h1v1H4z M6 18h5v1H6z M1 19h2v1H1z M6 19h3v1H6z M10 19h1v1H10z M1 20h2v1H1z M5 20h5v1H5z M1 21h2v1H1z M5 21h3v1H5z M9 21h1v1H9z M0 22h1v1H0z M2 22h1v1H2z M4 22h3v1H4z M8 22h2v1H8z M0 23h1v1H0z M2 23h1v1H2z M4 23h6v1H4z M0 24h2v1H0z M4 24h2v1H4z M7 24h1v1H7z"/>
</svg>
