<svg xmlns="http://www.w3.org/2000/svg" viewBox="0 0 25 25" width="25" height="25" shape-rendering="crispEdges" aria-hidden="true">
  <path fill="#ffffff" d="M23 4h2v1H23z M6 24h2v1H6z"/>
  <path fill="#808080" d="M0 0h1v1H0z M3 0h1v1H3z M5 0h1v1H5z M7 0h1v1H7z M9 0h1v1H9z M15 0h10v1H15z M1 1h1v1H1z M4 1h1v1H4z M6 1h1v1H6z M8 1h1v1H8z M10 1h1v1H10z M12 1h1v1H12z M17 1h8v1H17z M0 2h1v1H0z M3 2h1v1H3z M5 2h1v1H5z M7 2h1v1H7z M9 2h1v1H9z M11 2h1v1H11z M13 2h1v1H13z M15 2h1v1H15z M19 2h6v1H19z M0 3h18v1H0z M20 3h5v1H20z M0 4h20v1H0z M22 4h1v1H22z M0 5h6v1H0z M20 5h1v1H20z M0 6h5v1H0z M21 6h3v1H21z M0 7h4v1H0z M12 7h6v1H12z M22 7h3v1H22z"/>
  <path fill="#000000" d="M1 0h2v1H1z M4 0h1v1H4z M6 0h1v1H6z M8 0h1v1H8z M10 0h5v1H10z M0 1h1v1H0z M2 1h2v1H2z M5 1h1v1H5z M7 1h1v1H7z M9 1h1v1H9z M11 1h1v1H11z M13 1h4v1H13z M1 2h2v1H1z M4 2h1v1H4z M6 2h1v1H6z M8 2h1v1H8z M10 2h1v1H10z M12 2h1v1H12z M14 2h1v1H14z M16 2h3v1H16z M18 3h2v1H18z M20 4h2v1H20z M6 5h14v1H6z M21 5h4v1H21z M5 6h16v1H5z M24 6h1v1H24z M4 7h8v1H4z M18 7h4v1H18z"/>
</svg>
