<svg xmlns="http://www.w3.org/2000/svg" viewBox="0 0 25 25" width="25" height="25" shape-rendering="crispEdges" aria-hidden="true">
  <path fill="#ffffff" d="M0 0h2v1H0z M24 0h1v1H24z M1 3h1v1H1z M1 4h2v1H1z M5 5h2v1H5z M5 6h2v1H5z M3 7h2v1H3z M6 7h1v1H6z M1 8h2v1H1z"/>
  <path fill="#808080" d="M3 0h18v1H3z M22 0h1v1H22z M0 1h2v1H0z M3 1h19v1H3z M23 1h1v1H23z M0 2h3v1H0z M4 2h18v1H4z M23 2h2v1H23z M2 3h1v1H2z M4 3h19v1H4z M24 3h1v1H24z M8 4h15v1H8z M24 4h1v1H24z M2 5h2v1H2z M8 5h16v1H8z M2 6h2v1H2z M8 6h16v1H8z M0 7h3v1H0z M5 7h1v1H5z M8 7h16v1H8z M0 8h1v1H0z M3 8h4v1H3z M8 8h16v1H8z M3 9h2v1H3z M8 9h16v1H8z M0 10h2v1H0z M3 10h2v1H3z M6 10h19v1H6z M0 11h1v1H0z M2 11h5v1H2z M8 11h17v1H8z M0 12h1v1H0z M2 12h5v1H2z M8 12h17v1H8z M0 13h1v1H0z M8 13h17v1H8z M0 14h25v1H0z M0 15h25v1H0z M8 16h17v1H8z M0 17h8v1H0z M14 17h11v1H14z M0 18h14v1H0z M17 18h8v1H17z M0 19h17v1H0z M19 19h6v1H19z M0 20h19v1H0z M21 20h4v1H21z M0 21h21v1H0z M23 21h2v1H23z M0 22h23v1H0z M7 23h17v1H7z M1 24h1v1H1z M4 24h1v1H4z M6 24h1v1H6z M12 24h13v1H12z"/>
  <path fill="#000000" d="M2 0h1v1H2z M21 0h1v1H21z M23 0h1v1H23z M2 1h1v1H2z M22 1h1v1H22z M24 1h1v1H24z M3 2h1v1H3z M22 2h1v1H22z M0 3h1v1H0z M3 3h1v1H3z M23 3h1v1H23z M0 4h1v1H0z M3 4h5v1H3z M23 4h1v1H23z M0 5h2v1H0z M4 5h1v1H4z M7 5h1v1H7z M24 5h1v1H24z M0 6h2v1H0z M4 6h1v1H4z M7 6h1v1H7z M24 6h1v1H24z M7 7h1v1H7z M24 7h1v1H24z M7 8h1v1H7z M24 8h1v1H24z M0 9h3v1H0z M5 9h3v1H5z M24 9h1v1H24z M2 10h1v1H2z M5 10h1v1H5z M1 11h1v1H1z M7 11h1v1H7z M1 12h1v1H1z M7 12h1v1H7z M1 13h7v1H1z M0 16h8v1H0z M8 17h6v1H8z M14 18h3v1H14z M17 19h2v1H17z M19 20h2v1H19z M21 21h2v1H21z M23 22h2v1H23z M0 23h7v1H0z M24 23h1v1H24z M0 24h1v1H0z M2 24h2v1H2z M5 24h1v1H5z M7 24h5v1H7z"/>
</svg>
