<svg xmlns="http://www.w3.org/2000/svg" viewBox="0 0 25 25" width="25" height="25" shape-rendering="crispEdges" aria-hidden="true">
  <path fill="#ffffff" d="M0 0h19v1H0z M0 1h16v1H0z M17 1h2v1H17z M0 2h15v1H0z M16 2h2v1H16z M0 3h14v1H0z M16 3h1v1H16z M0 4h14v1H0z M0 5h12v1H0z M13 5h2v1H13z M0 6h12v1H0z M14 6h2v1H14z M0 7h13v1H0z M0 8h14v1H0z M0 9h14v1H0z M0 10h14v1H0z M0 11h14v1H0z M0 12h14v1H0z M0 13h14v1H0z M0 14h14v1H0z M0 15h14v1H0z M0 16h14v1H0z M0 17h14v1H0z M0 18h14v1H0z M0 19h14v1H0z M0 20h14v1H0z M0 21h14v1H0z M0 22h16v1H0z M0 23h14v1H0z M0 24h15v1H0z M16 24h2v1H16z"/>
  <path fill="#808080" d="M24 0h1v1H24z M21 1h1v1H21z M23 1h1v1H23z M22 2h1v1H22z M24 2h1v1H24z M21 3h1v1H21z M23 3h1v1H23z M22 4h1v1H22z M24 4h1v1H24z M12 5h1v1H12z M21 5h2v1H21z M24 5h1v1H24z M12 6h1v1H12z M22 6h2v1H22z M17 8h1v1H17z M16 9h1v1H16z M20 9h1v1H20z M15 10h1v1H15z M17 10h1v1H17z M19 10h1v1H19z M15 11h1v1H15z M18 11h1v1H18z M20 11h1v1H20z M17 12h1v1H17z M20 13h2v1H20z M19 14h1v1H19z M21 14h2v1H21z M14 15h1v1H14z M22 15h1v1H22z M16 16h1v1H16z M19 16h1v1H19z M24 16h1v1H24z M21 17h1v1H21z M19 18h1v1H19z M22 18h1v1H22z M24 18h1v1H24z M15 19h1v1H15z M19 19h3v1H19z M17 20h1v1H17z M20 20h1v1H20z M24 20h1v1H24z M16 21h1v1H16z M20 21h2v1H20z M17 22h1v1H17z M21 22h1v1H21z M23 22h1v1H23z M16 23h1v1H16z M23 23h1v1H23z M21 24h2v1H21z"/>
  <path fill="#000000" d="M19 0h5v1H19z M16 1h1v1H16z M19 1h2v1H19z M22 1h1v1H22z M24 1h1v1H24z M15 2h1v1H15z M18 2h4v1H18z M23 2h1v1H23z M14 3h2v1H14z M17 3h4v1H17z M22 3h1v1H22z M24 3h1v1H24z M14 4h8v1H14z M23 4h1v1H23z M15 5h6v1H15z M23 5h1v1H23z M13 6h1v1H13z M16 6h6v1H16z M24 6h1v1H24z M13 7h12v1H13z M14 8h3v1H14z M18 8h7v1H18z M14 9h2v1H14z M17 9h3v1H17z M21 9h4v1H21z M14 10h1v1H14z M16 10h1v1H16z M18 10h1v1H18z M20 10h5v1H20z M14 11h1v1H14z M16 11h2v1H16z M19 11h1v1H19z M21 11h4v1H21z M14 12h3v1H14z M18 12h7v1H18z M14 13h6v1H14z M22 13h3v1H22z M14 14h5v1H14z M20 14h1v1H20z M23 14h2v1H23z M15 15h7v1H15z M23 15h2v1H23z M14 16h2v1H14z M17 16h2v1H17z M20 16h4v1H20z M14 17h7v1H14z M22 17h3v1H22z M14 18h5v1H14z M20 18h2v1H20z M23 18h1v1H23z M14 19h1v1H14z M16 19h3v1H16z M22 19h3v1H22z M14 20h3v1H14z M18 20h2v1H18z M21 20h3v1H21z M14 21h2v1H14z M17 21h3v1H17z M22 21h3v1H22z M16 22h1v1H16z M18 22h3v1H18z M22 22h1v1H22z M24 22h1v1H24z M14 23h2v1H14z M17 23h6v1H17z M24 23h1v1H24z M15 24h1v1H15z M18 24h3v1H18z M23 24h2v1H23z"/>
</svg>
